<?xml version="1.0" ?><svg xmlns="http://www.w3.org/2000/svg" xmlns:xlink="http://www.w3.org/1999/xlink" version="1.1" viewBox="0 0 512 512" style="enable-background:new 0 0 512 512;" xml:space="preserve"><style type="text/css">
	.st0{fill:#231A15;}
	.st1{fill:#FFE000;}
	.st2{fill:#BCA100;}
	.st3{fill:#FC0000;}
	.st4{fill:#AA0000;}
	.st5{fill:#F94343;}
	.st6{fill:#FFFFFF;}
	.st7{fill:#A58E07;}
	.st8{opacity:0.44;}
	.st9{fill:#756204;}
	.st10{opacity:0.64;}
	.st11{opacity:0.38;}
	.st12{fill:#5D5004;}
	.st13{fill:#B7A100;}
	.st14{fill:#1D4DFC;}
	.st15{fill:#143CAF;}
	.st16{opacity:0.59;}
	.st17{opacity:0.52;}
	.st18{fill:#FF7F1F;}
	.st19{fill:#C4570C;}
	.st20{fill:#B29904;}
	.st21{fill:#87720A;}
	.st22{fill:#DDDDDD;}
	.st23{opacity:0.51;}
	.st24{fill:#878787;}
	.st25{fill:#727272;}
	.st26{opacity:0.33;}
	.st27{opacity:0.46;}
	.st28{fill:#25CBF2;}
	.st29{fill:#0A8FA5;}
	.st30{opacity:0.58;}
	.st31{fill:#04889E;}
	.st32{fill:#035A63;}
	.st33{opacity:0.65;}
	.st34{opacity:0.39;}
	.st35{fill:#AB0000;}
	.st36{fill:#1987A1;}
	.st37{fill:#3F1F0A;}
	.st38{fill:#4DEEFF;}
	.st39{fill:#21B9C1;}
	.st40{fill:#BBF9FF;}
	.st41{fill:#64ACAF;}
	.st42{fill:#089FB7;}
	.st43{opacity:0.47;}
	.st44{opacity:0.42;}
	.st45{fill:#DBF7FC;}
	.st46{fill:#B2E7ED;}
	.st47{fill:#0FA2BA;}
	.st48{opacity:0.54;}
	.st49{fill:#8E7716;}
	.st50{fill:#191401;}
	.st51{fill:#382E02;}
	.st52{fill:#605106;}
	.st53{fill:#AFACA0;}
	.st54{fill:#BC0404;}
	.st55{fill:#750000;}
	.st56{fill:#A08B0D;}
	.st57{fill:#5B4C05;}
	.st58{opacity:0.4;}
	.st59{opacity:0.5;}
	.st60{fill:#FF8383;}
	.st61{fill:#FFF0A6;}
	.st62{fill:#E2C227;}
	.st63{fill:#AA9205;}
	.st64{fill:#FFEA71;}
	.st65{opacity:0.22;}
	.st66{fill:#B19B00;}
	.st67{fill:#1989A4;}
	.st68{fill:#13A0B7;}
	.st69{fill:#C4A805;}
	.st70{fill:#FFF3A9;}
	.st71{fill:#846E03;}
	.st72{fill:#2D2502;}
	.st73{opacity:0.36;}
	.st74{fill:#4DD307;}
	.st75{fill:#328402;}
	.st76{fill:#97FF5A;}
	.st77{fill:#7A6500;}
	.st78{fill:#246001;}
	.st79{fill:#359100;}
	.st80{fill:#968022;}
	.st81{fill:#4F420B;}
	.st82{fill:#FFED83;}
	.st83{fill:#BAA335;}
	.st84{fill:#8D0991;}
	.st85{fill:#4B044F;}
	.st86{fill:#CE15CE;}
	.st87{fill:#897502;}
	.st88{fill:#493D01;}
	.st89{fill:#C9C9C9;}
	.st90{fill:#2D280E;}
	.st91{fill:#378C06;}
	.st92{fill:#183A03;}
	.st93{fill:#94FF55;}
	.st94{fill:#2E7F04;}
	.st95{fill:#63AB39;}
	.st96{fill:#AA5F04;}
	.st97{fill:#633502;}
	.st98{fill:#EF9014;}
	.st99{fill:#A05A07;}
	.st100{fill:#05616B;}
	.st101{fill:#033335;}
	.st102{fill:#0E94AA;}
	.st103{fill:#035D66;}
	.st104{opacity:0.27;}
	.st105{opacity:0.43;}
	.st106{fill:#FFF203;}
	.st107{fill:#FFA300;}
	.st108{fill:#2B3030;}
	.st109{opacity:0.28;}
	.st110{fill:#FCD17A;}
	.st111{fill:#AF853A;}
	.st112{opacity:0.31;}
	.st113{fill:#B641FF;}
	.st114{fill:#700FBC;}
	.st115{fill:#F2D0B1;}
	.st116{fill:#AF835F;}
	.st117{fill:#C17540;}
	.st118{fill:#F2BA94;}
	.st119{fill:#592909;}
	.st120{fill:#2B1204;}
	.st121{fill:#894818;}
	.st122{fill:#512609;}
	.st123{fill:#FF7F15;}
	.st124{fill:#A04A0A;}
	.st125{fill:#B7865E;}
	.st126{fill:#70350E;}
	.st127{fill:#3A1805;}
	.st128{fill:#C1521B;}
	.st129{fill:#FFC7AE;}
	.st130{fill:#FF717F;}
	.st131{fill:#6E2F0F;}
	.st132{fill:#AC8675;}
	.st133{opacity:0.25;}
	.st134{opacity:0.32;}
	.st135{fill:#FFFCC5;}
	.st136{fill:#D1CA78;}
	.st137{fill:#D37733;}
	.st138{fill:#A04F18;}
	.st139{fill:#0ABFBA;}
	.st140{fill:#057F79;}
	.st141{fill:#15F9F9;}
	.st142{fill:#09B2AD;}
	.st143{fill:#B2B2B2;}
	.st144{fill:#FFF755;}
	.st145{fill:#BCB121;}
	.st146{fill:#F90368;}
	.st147{opacity:0.49;}
	.st148{fill:#B50857;}
	.st149{fill:#FF76B4;}
	.st150{fill:#F23091;}
	.st151{fill:#FFF800;}
	.st152{fill:#C9BF05;}
	.st153{fill:#FF8500;}
	.st154{fill:#A35507;}
	.st155{fill:#AA6E50;}
	.st156{fill:#723C25;}
	.st157{fill:#EAD4B9;}
	.st158{fill:#AA8D6F;}
	.st159{fill:#B7A8A5;}
	.st160{fill:#84726F;}
	.st161{fill:#77645F;}
	.st162{fill:#51403C;}
	.st163{fill:#EABBA7;}
	.st164{fill:#BC7F69;}
	.st165{fill:#7C5039;}
	.st166{fill:#442619;}
	.st167{fill:#B7AE04;}
	.st168{fill:#BAB108;}
	.st169{fill:#7A7105;}
	.st170{fill:#352B23;}
	.st171{fill:#050403;}
	.st172{fill:#706255;}
	.st173{fill:#44382E;}
	.st174{fill:#634319;}
	.st175{fill:#35210A;}
	.st176{fill:#2D1C08;}
	.st177{fill:#0A0601;}
	.st178{fill:#9E7443;}
	.st179{fill:#704D2A;}
	.st180{fill:#D8A73A;}
	.st181{fill:#A0741C;}
	.st182{fill:#3F2F28;}
	.st183{fill:#211410;}
	.st184{fill:#FF326C;}
	.st185{fill:#BC0749;}
	.st186{fill:#68390E;}
	.st187{fill:#A5632D;}
	.st188{fill:#3D1E05;}
	.st189{fill:#331A06;}
	.st190{fill:#110801;}
	.st191{fill:#160A02;}
	.st192{fill:#663514;}
	.st193{opacity:0.29;}
	.st194{fill:#FC001F;}
	.st195{fill:#AF021F;}
	.st196{fill:#C48622;}
	.st197{fill:#8C5910;}
	.st198{fill:#846D64;}
	.st199{fill:#513B35;}
	.st200{fill:#5B4842;}
	.st201{fill:#332522;}
	.st202{fill:#47332C;}
	.st203{fill:#543E38;}
	.st204{fill:#1E1412;}
	.st205{fill:#604C43;}
	.st206{fill:#D3896C;}
	.st207{fill:#FF001F;}
	.st208{fill:#AF0824;}
	.st209{fill:#A37462;}
	.st210{fill:#5E3E34;}
	.st211{fill:#874A38;}
	.st212{fill:#4C2218;}
	.st213{fill:#5B2B20;}
	.st214{fill:#210C09;}
	.st215{fill:#99001A;}
	.st216{fill:#A08A07;}
	.st217{fill:#A08904;}
	.st218{fill:#5B4C02;}
	.st219{fill:#CECAB7;}
	.st220{fill:#727068;}
	.st221{fill:#42403A;}
	.st222{fill:#B2B0A6;}
	.st223{fill:#726F62;}
	.st224{fill:#6B4F45;}
	.st225{fill:#3A261F;}
	.st226{fill:#777468;}
	.st227{fill:#474436;}
	.st228{fill:#B78B7D;}
	.st229{fill:#845A4E;}
	.st230{fill:#3A372D;}
	.st231{fill:#43CFFF;}
	.st232{fill:#13A0BC;}
</style><g id="_x31_7"><g><path class="st0" d="M225.03,496.14c-1.91,0-3.31-0.3-4.64-0.69c-1.96-0.57-3.7-1.51-5.17-2.79c-0.77-0.66-10.35-8.88-24.23-20.94    l-2.79-2.42c-12.59-10.94-24.77-21.61-36.22-31.71c-2.4-2.12-4.82-4.26-7.25-6.41c-4.86-4.31-9.77-8.67-14.64-13.02    c-10.5-9.38-20.02-17.98-28.28-25.56c-4.59-4.21-8.88-8.18-12.76-11.81c-3.03-2.83-5.91-5.56-8.61-8.15    c-3.71-3.55-7.03-6.8-9.86-9.65c-3.05-3.06-5.64-5.76-7.7-8.03c-5.72-6.29-8.03-9.88-8.79-13.7l-0.58-2.81    c-0.01-0.03-0.03-0.15-0.04-0.18l-4.47-21.28c-8.73-41.41-26.04-123.04-31.8-150.17c-6.28-11.53-1.29-18.49,1.27-21.04    c0.35-0.35,0.76-0.72,1.2-1.12l0.31-0.27c0.33-0.29,0.67-0.57,1.04-0.87l0.25-0.2c0.4-0.32,0.83-0.67,1.3-1.03l0.43-0.33    c0.34-0.26,0.7-0.53,1.07-0.81l0.49-0.37c0.5-0.37,1.01-0.74,1.54-1.13l8.46-5.9c0.83-0.56,1.7-1.15,2.6-1.75l2.99-1.99    c27.78-18.41,74.83-47.08,114.41-69.7c79.19-45.27,89.35-44.66,94.23-44.38c4.08,0.24,14.91,0.88,99.55,58.01    c47.54,32.09,97.24,68.03,123.67,89.42l0.28,0.23c0.86,0.7,1.7,1.38,2.52,2.05l0.13,0.11c0.01,0,0.09,0.07,0.1,0.08    c1.67,1.37,3.25,2.69,4.72,3.95l0.24,0.2c0.73,0.62,1.42,1.21,2.08,1.79l0.23,0.2c1.42,1.24,2.69,2.37,3.85,3.44    c0.02,0.02,0.22,0.2,0.23,0.21c0.54,0.49,1.08,1.01,1.6,1.5l0.25,0.24c0.52,0.5,1.03,0.99,1.5,1.46c0.03,0.03,0.1,0.1,0.13,0.13    c0.47,0.48,0.92,0.93,1.33,1.37l0.14,0.14c0.46,0.49,0.87,0.95,1.25,1.38l0.26,0.3c0.38,0.44,0.77,0.92,1.11,1.36    c0.04,0.06,0.13,0.16,0.18,0.24c0.38,0.5,0.71,0.97,1,1.4c0.04,0.06,0.08,0.13,0.12,0.18c0.46,0.72,0.82,1.37,1.14,2.05    c0.09,0.18,0.17,0.37,0.25,0.55c0.43,0.98,0.77,2.06,0.97,3.13c0.06,0.3,0.11,0.64,0.14,0.95c0.2,1.72,0.08,3.41-0.36,5.03    c-0.83,3.28-12.09,47.75-24.69,93.15c-27.15,97.79-33.92,104.56-37.56,108.19c-0.46,0.46-0.95,0.9-1.5,1.36    c-0.17,0.14-0.35,0.28-0.53,0.42c-0.32,0.26-0.6,0.49-0.93,0.74c-0.17,0.13-0.36,0.27-0.55,0.4l-0.22,0.16    c-0.25,0.18-0.5,0.36-0.78,0.56c-0.17,0.12-0.37,0.26-0.57,0.39l-0.34,0.23c-0.25,0.17-0.49,0.34-0.76,0.52l-8.27,5.1l-15.54,8.66    l-27.64,14.37l-43.14,21.14l-35.26,16.36l-24.3,10.67l-3.72,1.57c-1.07,0.45-2.13,0.9-3.18,1.33l-0.46,0.19    c-1.06,0.44-2.13,0.88-3.17,1.31l-0.31,0.13c-1.11,0.45-2.19,0.89-3.24,1.31l-4.7-11.32l4.56,11.37c-1.11,0.45-2.21,0.88-3.28,1.3    C238.26,494.16,229.95,496.14,225.03,496.14z M231.38,474.24c0.02,0.02,0.04,0.04,0.06,0.06    C231.42,474.28,231.4,474.26,231.38,474.24z M77.74,334.65c0.52,0.68,1.5,1.89,3.26,3.81c1.82,2,4.16,4.43,6.94,7.23    c2.7,2.71,5.88,5.82,9.45,9.24c2.64,2.53,5.45,5.19,8.4,7.96c3.81,3.57,8.04,7.49,12.57,11.64c8.19,7.51,17.62,16.04,28.05,25.35    c4.85,4.33,9.73,8.67,14.56,12.95c2.42,2.14,4.83,4.27,7.22,6.38c11.4,10.06,23.54,20.68,36.08,31.59l2.78,2.41    c9.23,8.01,16.54,14.32,20.61,17.83c3.07-0.78,9.17-2.66,20.68-7.19c1.03-0.41,2.07-0.82,3.13-1.25c0,0,0.13-0.05,0.13-0.05    c1.01-0.41,2.04-0.82,3.09-1.25l0.37-0.15c0.94-0.39,1.97-0.81,3.01-1.24l0.42-0.18c1.04-0.43,2.06-0.86,3.1-1.3l16.16-6.97    l29.98-13.6l54.7-26.44l41.06-21.57l3.64-2.08c0.01,0,0.1-0.06,0.11-0.06l10.36-6.54c7.99-12.02,33.68-102.05,54.72-185.09    c-0.32-0.32-0.7-0.69-1.09-1.06l-0.16-0.15c-0.46-0.44-0.9-0.85-1.36-1.28l-0.22-0.2c-0.96-0.88-2.08-1.88-3.29-2.93l-0.21-0.18    c-0.65-0.56-1.28-1.1-1.93-1.66l-0.23-0.2c-1.38-1.17-2.85-2.4-4.41-3.69l-0.13-0.11c-0.85-0.7-1.65-1.35-2.47-2.01l-0.28-0.23    c-25.55-20.68-72.2-54.45-118.83-86.04c-58.6-39.68-84.09-53.56-90.44-55.81c-19.01,4.12-133.2,69.86-193.61,109.9l-2.87,1.91    c-0.87,0.59-1.7,1.15-2.51,1.69l-7.65,5.33c0.04,0.15,0.07,0.29,0.1,0.44c5.3,24.96,23.26,109.68,32.19,152.03l0.03,0.13    c0,0.01,0.03,0.12,0.03,0.14l4.47,21.28c0,0.01,0.02,0.11,0.03,0.12L77.74,334.65z M417.39,381.52L417.39,381.52L417.39,381.52z     M78.09,336.36l0.02,0.08C78.1,336.41,78.1,336.39,78.09,336.36z M473.93,189.98c0,0,0,0.01,0,0.01    C473.93,189.98,473.93,189.98,473.93,189.98z M473.94,189.94c0,0.01,0,0.01-0.01,0.02C473.94,189.96,473.94,189.95,473.94,189.94z     M473.95,189.91c0,0.01-0.01,0.02-0.01,0.03C473.94,189.93,473.95,189.92,473.95,189.91z M473.96,189.88    c0,0.01-0.01,0.02-0.01,0.03C473.95,189.9,473.96,189.89,473.96,189.88z M246.45,40.26C246.45,40.26,246.45,40.26,246.45,40.26    L246.45,40.26z"/></g><g><g><g><path class="st6" d="M223.24,483.4c0,0-154.79-132.8-157.15-144.56C63.73,327.08,27.1,154.47,27.1,154.47l184.69,92.88      l29.18,113.99"/></g><g><path class="st53" d="M211.79,247.35l-23.63-11.89l-8.63,47.89c-4.54,5.2,13,129.98,5.91,132.34      c-5.66,1.89-91.07-79.77-127.15-114.03c4.13,19.57,7.18,34.04,7.81,37.17c2.36,11.76,157.15,144.56,157.15,144.56l17.72-122.05      L211.79,247.35z"/></g></g><g><g><path class="st6" d="M485.56,193.84c0,0-46.08,182.87-59.08,195.87s-194.96,101.14-203.23,93.7s-11.46-171.68-11.46-171.68"/></g><g><path class="st53" d="M457.51,205.92l2.01,0.04c0,0-39.03,154.21-49.63,167.21c-10.6,13-166.57,76.11-168.93,78.82      c-1.44,1.66-10.39,18.7-17.13,31.71c13.95,4.1,189.86-81.22,202.64-93.99c13-13,59.08-195.87,59.08-195.87L457.51,205.92z"/></g></g><g><g><path class="st6" d="M211.79,316.45c0,0-198.86-147.89-184.69-161.97S227.97,26.96,248.06,28.14      c20.09,1.18,241.04,155.34,237.5,165.7C482.01,204.2,218.45,321.44,211.79,316.45z"/></g><g><path class="st53" d="M461.63,170.72c-45.32,23.03-203.66,98.49-237.79,95.2c-32.41-3.13-138.05-93.95-175.31-126.79      c-11.2,7.39-18.96,12.89-21.44,15.35c-14.18,14.08,184.69,161.97,184.69,161.97c6.66,4.99,270.23-112.25,273.77-122.61      C486.31,191.65,476.99,183,461.63,170.72z"/></g></g><g><g><g><circle class="st3" cx="380.72" cy="173.15" r="26.02"/></g><g><path class="st4" d="M380.72,199.18c14.37,0,26.02-11.65,26.02-26.02c0-13.75-10.67-24.98-24.18-25.93       c0.7,0.44,1.4,0.9,2.07,1.38c2.47,1.17,4.7,3.06,6.42,5.8c0.72,1.15,1.25,2.32,1.63,3.49c0.14,0.29,0.3,0.57,0.43,0.88       c2.32,5.5,1.87,12.08-1.63,17.03c-4.67,6.61-12.96,11.52-21.24,10.41c-4.34-0.58-7.83-2.88-10.22-6.59       c-1.3-2.01-1.72-4.18-1.75-6.4c-0.7-3.14-1.22-6.39-0.98-9.59c0.06-0.85,0.21-1.64,0.34-2.44c-1.86,3.58-2.92,7.64-2.92,11.95       C354.7,187.52,366.35,199.18,380.72,199.18z"/></g></g><g><g><circle class="st3" cx="253.11" cy="155.53" r="26.02"/></g><g><path class="st4" d="M253.12,181.55c14.37,0,26.02-11.65,26.02-26.02c0-13.75-10.67-24.98-24.18-25.93       c0.7,0.44,1.4,0.9,2.07,1.38c2.47,1.17,4.7,3.06,6.42,5.8c0.72,1.15,1.25,2.32,1.63,3.49c0.14,0.29,0.3,0.57,0.43,0.88       c2.32,5.5,1.87,12.08-1.63,17.03c-4.67,6.61-12.96,11.52-21.24,10.41c-4.34-0.58-7.83-2.88-10.22-6.59       c-1.3-2.01-1.72-4.18-1.75-6.4c-0.7-3.14-1.22-6.39-0.98-9.59c0.06-0.85,0.21-1.64,0.34-2.44c-1.86,3.58-2.92,7.64-2.92,11.95       C227.09,169.9,238.74,181.55,253.12,181.55z"/></g></g><g><g><circle class="st3" cx="261.06" cy="73.83" r="26.02"/></g><g><path class="st4" d="M261.06,99.85c14.37,0,26.02-11.65,26.02-26.02c0-13.75-10.67-24.98-24.18-25.93       c0.7,0.44,1.4,0.9,2.07,1.38c2.47,1.17,4.7,3.06,6.42,5.8c0.72,1.15,1.25,2.32,1.63,3.49c0.14,0.29,0.3,0.57,0.43,0.88       c2.32,5.5,1.87,12.08-1.63,17.03c-4.67,6.61-12.96,11.52-21.24,10.41c-4.34-0.58-7.83-2.88-10.22-6.59       c-1.3-2.01-1.72-4.18-1.75-6.4c-0.7-3.14-1.22-6.39-0.98-9.59c0.06-0.85,0.21-1.64,0.34-2.44c-1.86,3.58-2.92,7.64-2.92,11.95       C235.03,88.2,246.68,99.85,261.06,99.85z"/></g></g><g><g><circle class="st3" cx="240.35" cy="240.54" r="26.02"/></g><g><path class="st4" d="M240.36,266.56c14.37,0,26.02-11.65,26.02-26.02c0-13.75-10.67-24.98-24.18-25.93       c0.7,0.44,1.4,0.9,2.07,1.38c2.47,1.17,4.7,3.06,6.42,5.8c0.72,1.15,1.25,2.32,1.63,3.49c0.14,0.29,0.3,0.57,0.43,0.88       c2.32,5.5,1.87,12.08-1.63,17.03c-4.67,6.61-12.96,11.52-21.24,10.41c-4.34-0.58-7.83-2.88-10.22-6.59       c-1.3-2.01-1.72-4.18-1.75-6.4c-0.7-3.14-1.22-6.39-0.98-9.59c0.06-0.85,0.21-1.64,0.34-2.44c-1.86,3.58-2.92,7.64-2.92,11.95       C214.33,254.91,225.98,266.56,240.36,266.56z"/></g></g><g><g><circle class="st3" cx="130.16" cy="154.47" r="26.02"/></g><g><path class="st4" d="M130.16,180.5c14.37,0,26.02-11.65,26.02-26.02c0-13.75-10.67-24.98-24.18-25.93       c0.7,0.44,1.4,0.9,2.07,1.38c2.47,1.17,4.7,3.06,6.42,5.8c0.72,1.15,1.25,2.32,1.63,3.49c0.14,0.29,0.3,0.57,0.43,0.88       c2.32,5.5,1.87,12.08-1.63,17.03c-4.67,6.61-12.96,11.52-21.24,10.41c-4.34-0.58-7.83-2.88-10.22-6.59       c-1.3-2.01-1.72-4.18-1.75-6.4c-0.7-3.14-1.22-6.39-0.98-9.59c0.06-0.85,0.21-1.64,0.34-2.44c-1.86,3.58-2.92,7.64-2.92,11.95       C104.14,168.85,115.79,180.5,130.16,180.5z"/></g></g><g><g><circle class="st3" cx="269" cy="331.09" r="26.02"/></g><g><path class="st4" d="M269,357.12c14.37,0,26.02-11.65,26.02-26.02c0-13.75-10.67-24.98-24.18-25.93c0.7,0.44,1.4,0.9,2.07,1.38       c2.47,1.17,4.7,3.06,6.42,5.8c0.72,1.15,1.25,2.32,1.63,3.49c0.14,0.29,0.3,0.57,0.43,0.88c2.32,5.5,1.87,12.08-1.63,17.03       c-4.67,6.61-12.96,11.52-21.24,10.41c-4.34-0.58-7.83-2.88-10.22-6.59c-1.3-2.01-1.72-4.18-1.75-6.4       c-0.7-3.14-1.22-6.39-0.98-9.59c0.06-0.85,0.21-1.64,0.34-2.44c-1.86,3.58-2.92,7.64-2.92,11.95       C242.98,345.47,254.63,357.12,269,357.12z"/></g></g><g><g><circle class="st3" cx="331.83" cy="344.28" r="23.58"/></g><g><path class="st4" d="M331.83,367.87c13.02,0,23.58-10.56,23.58-23.58c0-12.46-9.67-22.64-21.91-23.5       c0.64,0.4,1.27,0.81,1.87,1.25c2.24,1.06,4.26,2.77,5.82,5.26c0.65,1.04,1.13,2.1,1.48,3.16c0.13,0.27,0.28,0.52,0.39,0.79       c2.11,4.99,1.7,10.94-1.48,15.44c-4.23,5.99-11.75,10.44-19.25,9.43c-3.94-0.53-7.1-2.61-9.27-5.97       c-1.17-1.82-1.56-3.79-1.59-5.8c-0.63-2.85-1.11-5.79-0.89-8.69c0.06-0.77,0.19-1.48,0.31-2.21       c-1.68,3.25-2.65,6.92-2.65,10.83C308.25,357.31,318.81,367.87,331.83,367.87z"/></g></g><g><g><circle class="st3" cx="387.78" cy="357.22" r="19.81"/></g><g><path class="st4" d="M387.78,377.03c10.94,0,19.81-8.87,19.81-19.81c0-10.47-8.12-19.02-18.41-19.74       c0.53,0.34,1.06,0.68,1.57,1.05c1.88,0.89,3.58,2.33,4.89,4.42c0.55,0.88,0.95,1.77,1.24,2.65c0.11,0.22,0.23,0.44,0.33,0.67       c1.77,4.19,1.43,9.19-1.24,12.97c-3.55,5.03-9.87,8.77-16.17,7.92c-3.31-0.44-5.96-2.19-7.78-5.02       c-0.99-1.53-1.31-3.18-1.34-4.87c-0.53-2.39-0.93-4.86-0.75-7.3c0.05-0.64,0.16-1.25,0.26-1.86c-1.41,2.73-2.23,5.82-2.23,9.1       C367.96,368.16,376.83,377.03,387.78,377.03z"/></g></g><g><g><circle class="st3" cx="157.82" cy="348.47" r="23.58"/></g><g><path class="st4" d="M157.82,372.06c13.02,0,23.58-10.56,23.58-23.58c0-12.46-9.67-22.64-21.91-23.5       c0.64,0.4,1.27,0.81,1.87,1.25c2.24,1.06,4.26,2.77,5.82,5.26c0.65,1.04,1.13,2.1,1.48,3.16c0.13,0.27,0.28,0.52,0.39,0.79       c2.11,4.99,1.7,10.94-1.48,15.44c-4.23,5.99-11.75,10.44-19.25,9.43c-3.94-0.53-7.1-2.61-9.27-5.97       c-1.17-1.82-1.56-3.79-1.59-5.8c-0.63-2.85-1.11-5.79-0.89-8.69c0.06-0.77,0.19-1.48,0.31-2.21       c-1.68,3.25-2.65,6.92-2.65,10.83C134.23,361.5,144.79,372.06,157.82,372.06z"/></g></g><g><g><circle class="st3" cx="90.12" cy="284.94" r="23.58"/></g><g><path class="st4" d="M90.12,308.52c13.02,0,23.58-10.56,23.58-23.58c0-12.46-9.67-22.64-21.91-23.5       c0.64,0.4,1.27,0.81,1.87,1.25c2.24,1.06,4.26,2.77,5.82,5.26c0.65,1.04,1.13,2.1,1.48,3.16c0.13,0.27,0.28,0.52,0.39,0.79       c2.11,4.99,1.7,10.94-1.48,15.44c-4.23,5.99-11.75,10.44-19.25,9.43c-3.94-0.53-7.1-2.61-9.27-5.97       c-1.17-1.82-1.56-3.79-1.59-5.8c-0.63-2.85-1.11-5.79-0.89-8.69c0.06-0.77,0.19-1.48,0.31-2.21       c-1.68,3.25-2.65,6.92-2.65,10.83C66.54,297.96,77.09,308.52,90.12,308.52z"/></g></g></g></g></g></svg>