<?xml version="1.0" ?><svg xmlns="http://www.w3.org/2000/svg" xmlns:xlink="http://www.w3.org/1999/xlink" version="1.1" viewBox="0 0 512 512" style="enable-background:new 0 0 512 512;" xml:space="preserve"><style type="text/css">
	.st0{fill:#231A15;}
	.st1{fill:#FFE000;}
	.st2{fill:#BCA100;}
	.st3{fill:#FC0000;}
	.st4{fill:#AA0000;}
	.st5{fill:#F94343;}
	.st6{fill:#FFFFFF;}
	.st7{fill:#A58E07;}
	.st8{opacity:0.44;}
	.st9{fill:#756204;}
	.st10{opacity:0.64;}
	.st11{opacity:0.38;}
	.st12{fill:#5D5004;}
	.st13{fill:#B7A100;}
	.st14{fill:#1D4DFC;}
	.st15{fill:#143CAF;}
	.st16{opacity:0.59;}
	.st17{opacity:0.52;}
	.st18{fill:#FF7F1F;}
	.st19{fill:#C4570C;}
	.st20{fill:#B29904;}
	.st21{fill:#87720A;}
	.st22{fill:#DDDDDD;}
	.st23{opacity:0.51;}
	.st24{fill:#878787;}
	.st25{fill:#727272;}
	.st26{opacity:0.33;}
	.st27{opacity:0.46;}
	.st28{fill:#25CBF2;}
	.st29{fill:#0A8FA5;}
	.st30{opacity:0.58;}
	.st31{fill:#04889E;}
	.st32{fill:#035A63;}
	.st33{opacity:0.65;}
	.st34{opacity:0.39;}
	.st35{fill:#AB0000;}
	.st36{fill:#1987A1;}
	.st37{fill:#3F1F0A;}
	.st38{fill:#4DEEFF;}
	.st39{fill:#21B9C1;}
	.st40{fill:#BBF9FF;}
	.st41{fill:#64ACAF;}
	.st42{fill:#089FB7;}
	.st43{opacity:0.47;}
	.st44{opacity:0.42;}
	.st45{fill:#DBF7FC;}
	.st46{fill:#B2E7ED;}
	.st47{fill:#0FA2BA;}
	.st48{opacity:0.54;}
	.st49{fill:#8E7716;}
	.st50{fill:#191401;}
	.st51{fill:#382E02;}
	.st52{fill:#605106;}
	.st53{fill:#AFACA0;}
	.st54{fill:#BC0404;}
	.st55{fill:#750000;}
	.st56{fill:#A08B0D;}
	.st57{fill:#5B4C05;}
	.st58{opacity:0.4;}
	.st59{opacity:0.5;}
	.st60{fill:#FF8383;}
	.st61{fill:#FFF0A6;}
	.st62{fill:#E2C227;}
	.st63{fill:#AA9205;}
	.st64{fill:#FFEA71;}
	.st65{opacity:0.22;}
	.st66{fill:#B19B00;}
	.st67{fill:#1989A4;}
	.st68{fill:#13A0B7;}
	.st69{fill:#C4A805;}
	.st70{fill:#FFF3A9;}
	.st71{fill:#846E03;}
	.st72{fill:#2D2502;}
	.st73{opacity:0.36;}
	.st74{fill:#4DD307;}
	.st75{fill:#328402;}
	.st76{fill:#97FF5A;}
	.st77{fill:#7A6500;}
	.st78{fill:#246001;}
	.st79{fill:#359100;}
	.st80{fill:#968022;}
	.st81{fill:#4F420B;}
	.st82{fill:#FFED83;}
	.st83{fill:#BAA335;}
	.st84{fill:#8D0991;}
	.st85{fill:#4B044F;}
	.st86{fill:#CE15CE;}
	.st87{fill:#897502;}
	.st88{fill:#493D01;}
	.st89{fill:#C9C9C9;}
	.st90{fill:#2D280E;}
	.st91{fill:#378C06;}
	.st92{fill:#183A03;}
	.st93{fill:#94FF55;}
	.st94{fill:#2E7F04;}
	.st95{fill:#63AB39;}
	.st96{fill:#AA5F04;}
	.st97{fill:#633502;}
	.st98{fill:#EF9014;}
	.st99{fill:#A05A07;}
	.st100{fill:#05616B;}
	.st101{fill:#033335;}
	.st102{fill:#0E94AA;}
	.st103{fill:#035D66;}
	.st104{opacity:0.27;}
	.st105{opacity:0.43;}
	.st106{fill:#FFF203;}
	.st107{fill:#FFA300;}
	.st108{fill:#2B3030;}
	.st109{opacity:0.28;}
	.st110{fill:#FCD17A;}
	.st111{fill:#AF853A;}
	.st112{opacity:0.31;}
	.st113{fill:#B641FF;}
	.st114{fill:#700FBC;}
	.st115{fill:#F2D0B1;}
	.st116{fill:#AF835F;}
	.st117{fill:#C17540;}
	.st118{fill:#F2BA94;}
	.st119{fill:#592909;}
	.st120{fill:#2B1204;}
	.st121{fill:#894818;}
	.st122{fill:#512609;}
	.st123{fill:#FF7F15;}
	.st124{fill:#A04A0A;}
	.st125{fill:#B7865E;}
	.st126{fill:#70350E;}
	.st127{fill:#3A1805;}
	.st128{fill:#C1521B;}
	.st129{fill:#FFC7AE;}
	.st130{fill:#FF717F;}
	.st131{fill:#6E2F0F;}
	.st132{fill:#AC8675;}
	.st133{opacity:0.25;}
	.st134{opacity:0.32;}
	.st135{fill:#FFFCC5;}
	.st136{fill:#D1CA78;}
	.st137{fill:#D37733;}
	.st138{fill:#A04F18;}
	.st139{fill:#0ABFBA;}
	.st140{fill:#057F79;}
	.st141{fill:#15F9F9;}
	.st142{fill:#09B2AD;}
	.st143{fill:#B2B2B2;}
	.st144{fill:#FFF755;}
	.st145{fill:#BCB121;}
	.st146{fill:#F90368;}
	.st147{opacity:0.49;}
	.st148{fill:#B50857;}
	.st149{fill:#FF76B4;}
	.st150{fill:#F23091;}
	.st151{fill:#FFF800;}
	.st152{fill:#C9BF05;}
	.st153{fill:#FF8500;}
	.st154{fill:#A35507;}
	.st155{fill:#AA6E50;}
	.st156{fill:#723C25;}
	.st157{fill:#EAD4B9;}
	.st158{fill:#AA8D6F;}
	.st159{fill:#B7A8A5;}
	.st160{fill:#84726F;}
	.st161{fill:#77645F;}
	.st162{fill:#51403C;}
	.st163{fill:#EABBA7;}
	.st164{fill:#BC7F69;}
	.st165{fill:#7C5039;}
	.st166{fill:#442619;}
	.st167{fill:#B7AE04;}
	.st168{fill:#BAB108;}
	.st169{fill:#7A7105;}
	.st170{fill:#352B23;}
	.st171{fill:#050403;}
	.st172{fill:#706255;}
	.st173{fill:#44382E;}
	.st174{fill:#634319;}
	.st175{fill:#35210A;}
	.st176{fill:#2D1C08;}
	.st177{fill:#0A0601;}
	.st178{fill:#9E7443;}
	.st179{fill:#704D2A;}
	.st180{fill:#D8A73A;}
	.st181{fill:#A0741C;}
	.st182{fill:#3F2F28;}
	.st183{fill:#211410;}
	.st184{fill:#FF326C;}
	.st185{fill:#BC0749;}
	.st186{fill:#68390E;}
	.st187{fill:#A5632D;}
	.st188{fill:#3D1E05;}
	.st189{fill:#331A06;}
	.st190{fill:#110801;}
	.st191{fill:#160A02;}
	.st192{fill:#663514;}
	.st193{opacity:0.29;}
	.st194{fill:#FC001F;}
	.st195{fill:#AF021F;}
	.st196{fill:#C48622;}
	.st197{fill:#8C5910;}
	.st198{fill:#846D64;}
	.st199{fill:#513B35;}
	.st200{fill:#5B4842;}
	.st201{fill:#332522;}
	.st202{fill:#47332C;}
	.st203{fill:#543E38;}
	.st204{fill:#1E1412;}
	.st205{fill:#604C43;}
	.st206{fill:#D3896C;}
	.st207{fill:#FF001F;}
	.st208{fill:#AF0824;}
	.st209{fill:#A37462;}
	.st210{fill:#5E3E34;}
	.st211{fill:#874A38;}
	.st212{fill:#4C2218;}
	.st213{fill:#5B2B20;}
	.st214{fill:#210C09;}
	.st215{fill:#99001A;}
	.st216{fill:#A08A07;}
	.st217{fill:#A08904;}
	.st218{fill:#5B4C02;}
	.st219{fill:#CECAB7;}
	.st220{fill:#727068;}
	.st221{fill:#42403A;}
	.st222{fill:#B2B0A6;}
	.st223{fill:#726F62;}
	.st224{fill:#6B4F45;}
	.st225{fill:#3A261F;}
	.st226{fill:#777468;}
	.st227{fill:#474436;}
	.st228{fill:#B78B7D;}
	.st229{fill:#845A4E;}
	.st230{fill:#3A372D;}
	.st231{fill:#43CFFF;}
	.st232{fill:#13A0BC;}
</style><g id="_x34_9"><g><path class="st0" d="M258.99,462.15c-2.35,0-4.73-0.96-6.72-2.41l-0.66-0.48c-0.03-0.02-0.06-0.04-0.09-0.06l-0.48-0.35    c-0.01-0.01-0.03-0.02-0.04-0.03s-0.02-0.02-0.04-0.03l-0.68-0.5c-0.03-0.02-0.06-0.04-0.09-0.06l-2.98-2.2    c-0.04-0.03-0.08-0.06-0.11-0.08l-2.65-1.97c-0.02-0.02-0.07-0.05-0.09-0.07c-1-0.75-2.09-1.56-3.28-2.45l-0.16-0.12    c-1.16-0.87-2.43-1.83-3.8-2.86l-0.1-0.08c-0.03-0.02-0.07-0.05-0.1-0.07c-1.38-1.04-2.84-2.15-4.4-3.34l-0.19-0.14    c-1.53-1.16-3.2-2.44-4.97-3.79l-0.16-0.13c-1.75-1.34-3.62-2.78-5.58-4.29c-0.01-0.01-0.03-0.03-0.05-0.04l0,0    c-1.99-1.53-4.06-3.14-6.23-4.82c-0.01-0.01-0.03-0.02-0.04-0.03l-3.39-2.64c-2.22-1.73-4.53-3.54-6.93-5.41l-0.1-0.08    c-0.01-0.01-0.07-0.06-0.08-0.06c-2.37-1.86-4.83-3.79-7.37-5.79l-0.36-0.29c-2.55-2.01-5.14-4.06-7.81-6.18l-3.29-2.62    c-1.78-1.42-3.59-2.86-5.44-4.34l-0.56-0.45c-21.41-17.12-43.99-35.58-67.1-54.87c-1.41-1.18-2.8-2.35-4.18-3.52l-0.89-0.76    c-1.06-0.91-2.12-1.82-3.16-2.72l-2.17-1.91c-0.6-0.53-1.2-1.05-1.78-1.58c-0.39-0.35-0.77-0.7-1.16-1.04l-1.1-0.99    c-0.53-0.48-1.07-0.96-1.59-1.44c-0.4-0.37-0.8-0.74-1.19-1.1l-1.04-0.96c-0.51-0.47-1.02-0.94-1.52-1.41    c-0.37-0.34-0.73-0.69-1.1-1.04l-1.16-1.1c-0.46-0.44-0.93-0.88-1.38-1.31c-0.38-0.37-0.76-0.74-1.14-1.11L87.3,326    c-0.45-0.44-0.91-0.88-1.35-1.32c-0.4-0.4-0.8-0.8-1.2-1.2l-0.83-0.83c-0.47-0.47-0.94-0.94-1.4-1.41    c-0.36-0.37-0.71-0.73-1.06-1.09l-0.92-0.94c-0.45-0.47-0.91-0.93-1.35-1.4c-0.37-0.39-0.73-0.77-1.09-1.15l-0.84-0.89    c-0.44-0.46-0.87-0.93-1.3-1.39c-0.37-0.4-0.74-0.81-1.11-1.21l-0.8-0.87c-0.41-0.45-0.82-0.9-1.22-1.34    c-0.36-0.4-0.72-0.81-1.08-1.22l-0.68-0.77c-0.42-0.48-0.85-0.96-1.26-1.43c-0.41-0.47-0.8-0.93-1.2-1.4l-0.58-0.68    c-0.38-0.45-0.77-0.9-1.14-1.34c-0.38-0.45-0.75-0.9-1.11-1.34l-0.58-0.71c-0.38-0.46-0.76-0.92-1.14-1.38s-0.74-0.92-1.11-1.39    l-0.55-0.69c-0.36-0.45-0.71-0.89-1.06-1.34c-0.34-0.44-0.68-0.88-1.01-1.31l-0.46-0.61c-0.38-0.5-0.77-1-1.15-1.51    c-0.33-0.45-0.66-0.89-0.99-1.33l-0.38-0.52c-0.39-0.53-0.77-1.05-1.15-1.58c-0.32-0.44-0.63-0.88-0.94-1.32l-0.42-0.6    c-0.35-0.5-0.71-1-1.05-1.5c-0.38-0.56-0.75-1.1-1.11-1.64l-0.14-0.21c-0.36-0.53-0.71-1.06-1.06-1.58    c-0.32-0.48-0.62-0.96-0.93-1.43l-0.27-0.42c-0.34-0.53-0.69-1.07-1.02-1.6c-0.36-0.57-0.7-1.13-1.04-1.69    c-0.38-0.62-0.73-1.19-1.07-1.76c-0.33-0.55-0.66-1.12-0.99-1.69c-0.36-0.63-0.69-1.19-1.01-1.75c-0.32-0.57-0.63-1.13-0.94-1.7    l-0.08-0.15c-0.29-0.54-0.59-1.07-0.88-1.61c-0.3-0.56-0.59-1.13-0.88-1.69c-0.31-0.59-0.61-1.18-0.91-1.78    c-0.26-0.52-0.53-1.06-0.79-1.6c0-0.01-0.05-0.1-0.05-0.1c-0.29-0.59-0.57-1.18-0.85-1.77c-0.26-0.56-0.53-1.13-0.79-1.71    c-0.27-0.59-0.53-1.17-0.79-1.76c-0.25-0.58-0.5-1.15-0.74-1.72c-0.25-0.6-0.5-1.19-0.74-1.78c-0.23-0.57-0.46-1.14-0.68-1.71    c-0.24-0.6-0.46-1.2-0.69-1.79c-0.22-0.58-0.42-1.15-0.63-1.72c-0.22-0.6-0.43-1.2-0.63-1.79c-0.2-0.58-0.39-1.15-0.58-1.72    c-0.2-0.61-0.39-1.21-0.58-1.82c-0.17-0.56-0.35-1.14-0.52-1.72c-0.18-0.6-0.35-1.2-0.52-1.79c-0.16-0.58-0.32-1.17-0.48-1.75    c-0.15-0.59-0.31-1.18-0.46-1.78c-0.15-0.59-0.29-1.17-0.42-1.75c-0.14-0.61-0.28-1.22-0.41-1.82c-0.13-0.59-0.25-1.17-0.37-1.75    c-0.12-0.61-0.24-1.22-0.35-1.82c-0.11-0.57-0.21-1.15-0.31-1.73c-0.11-0.63-0.2-1.24-0.3-1.84c-0.09-0.57-0.18-1.16-0.26-1.75    c-0.08-0.6-0.16-1.21-0.24-1.82c-0.07-0.58-0.14-1.17-0.21-1.76c-0.07-0.6-0.13-1.22-0.18-1.83c-0.05-0.57-0.11-1.17-0.15-1.76    c-0.05-0.61-0.09-1.22-0.12-1.83c-0.04-0.58-0.07-1.17-0.1-1.76c-0.03-0.63-0.05-1.24-0.07-1.86c-0.02-0.57-0.04-1.16-0.04-1.76    c-0.01-0.62-0.01-1.24-0.01-1.85c0-0.59,0-1.18,0.01-1.77c0.01-0.62,0.03-1.24,0.04-1.87c0.02-0.57,0.04-1.16,0.06-1.75    c0.03-0.63,0.06-1.25,0.1-1.87c0.03-0.59,0.07-1.18,0.12-1.78c0.04-0.61,0.1-1.23,0.16-1.85c0.05-0.6,0.11-1.2,0.17-1.8    c0.06-0.6,0.14-1.23,0.21-1.85l0.02-0.18c0.06-0.53,0.13-1.07,0.2-1.6c0.08-0.63,0.18-1.25,0.27-1.88l0.02-0.15    c0.08-0.54,0.16-1.07,0.25-1.61c0.09-0.53,0.18-1.07,0.28-1.61l0.09-0.53c0.09-0.51,0.18-1.01,0.28-1.52    c0.11-0.58,0.23-1.17,0.35-1.76l0.08-0.37c0.1-0.51,0.21-1.02,0.32-1.53c0.13-0.58,0.26-1.16,0.4-1.74l0.1-0.43    c0.12-0.5,0.23-1,0.36-1.5c0.13-0.52,0.27-1.04,0.4-1.57l0.18-0.69c0.12-0.47,0.25-0.94,0.38-1.42c0.14-0.52,0.29-1.04,0.44-1.56    l0.18-0.63c0.14-0.5,0.29-1,0.44-1.5c0.17-0.57,0.35-1.12,0.53-1.68l0.21-0.65c0.14-0.46,0.29-0.91,0.44-1.37    c0.17-0.52,0.35-1.05,0.54-1.58l0.28-0.8c0.15-0.44,0.3-0.87,0.46-1.31c0.21-0.6,0.43-1.18,0.65-1.76l0.25-0.66    c0.16-0.43,0.32-0.86,0.48-1.29c0.21-0.55,0.43-1.09,0.65-1.64l0.29-0.74c0.18-0.45,0.36-0.9,0.54-1.35c0.2-0.5,0.42-1,0.63-1.51    l0.42-1c0.17-0.4,0.34-0.8,0.51-1.2c0.22-0.52,0.45-1.01,0.67-1.51l0.41-0.92c0.2-0.44,0.4-0.88,0.6-1.33    c0.23-0.5,0.47-1,0.71-1.51l0.47-1c0.19-0.41,0.39-0.82,0.59-1.24c0.25-0.51,0.51-1.03,0.76-1.54l0.49-0.97    c0.21-0.42,0.41-0.83,0.62-1.25c0.26-0.52,0.54-1.04,0.81-1.56l0.56-1.08c0.2-0.38,0.39-0.76,0.6-1.14    c0.31-0.58,0.63-1.17,0.95-1.75l0.48-0.88c0.21-0.39,0.42-0.78,0.64-1.17c0.32-0.57,0.65-1.15,0.98-1.72l0.56-0.99    c0.21-0.37,0.41-0.73,0.63-1.1c0.33-0.57,0.67-1.14,1.01-1.7l0.68-1.15c0.19-0.32,0.38-0.64,0.58-0.97    c0.42-0.7,0.86-1.41,1.3-2.12l0.55-0.89c0.17-0.28,0.34-0.56,0.52-0.84c0.81-1.29,1.62-2.57,2.46-3.86    c0.8-1.24,1.67-2.52,2.56-3.82c0.21-0.3,0.41-0.58,0.62-0.87l0.28-0.39c0.58-0.81,1.16-1.63,1.75-2.43    c0.25-0.34,0.51-0.68,0.77-1.01l0.5-0.65c0.48-0.63,0.96-1.26,1.45-1.88c0.31-0.39,0.63-0.78,0.95-1.17l0.26-0.32    c0.52-0.64,1.05-1.29,1.59-1.92c0.4-0.47,0.81-0.94,1.22-1.41l0.07-0.08c0.52-0.6,1.05-1.19,1.57-1.78    c0.45-0.49,0.9-0.98,1.35-1.46c0.53-0.57,1.06-1.13,1.59-1.67c0.46-0.47,0.93-0.95,1.4-1.42c0.53-0.53,1.06-1.05,1.59-1.56    c0.49-0.47,0.98-0.94,1.47-1.4c0.52-0.49,1.05-0.97,1.58-1.44c0.51-0.46,1.02-0.92,1.54-1.37c0.51-0.45,1.04-0.9,1.57-1.34    l0.14-0.11c0.48-0.41,0.97-0.82,1.46-1.21c0.46-0.37,0.92-0.74,1.39-1.1l0.49-0.39c0.44-0.35,0.89-0.7,1.33-1.04    c0.35-0.27,0.7-0.52,1.06-0.78l0.78-0.58c0.47-0.35,0.95-0.7,1.42-1.03c0.28-0.2,0.58-0.4,0.87-0.6l0.34-0.23    c2.6-1.78,5.28-3.46,7.95-4.99l0.16-0.09c0.17-0.1,0.33-0.2,0.5-0.29c0.8-0.45,1.61-0.88,2.43-1.32l0.28-0.15    c0.22-0.12,0.45-0.24,0.68-0.36c0.81-0.42,1.6-0.81,2.4-1.2l0.28-0.14c0.25-0.12,0.5-0.25,0.75-0.37    c0.81-0.39,1.61-0.75,2.42-1.11l0.24-0.11c0.27-0.12,0.53-0.24,0.8-0.36c0.82-0.36,1.63-0.7,2.45-1.03l0.15-0.06    c0.29-0.12,0.58-0.24,0.87-0.35c0.83-0.33,1.67-0.65,2.51-0.96l0.96-0.35c0.88-0.31,1.75-0.61,2.61-0.9l0.88-0.28    c0.89-0.28,1.8-0.57,2.71-0.83l0.68-0.19c1-0.29,1.97-0.55,2.95-0.8l0.42-0.1c10.21-2.57,20.78-3.71,31.43-3.37    c6.09,0.19,12.24,0.87,18.29,2.01c1.19,0.22,2.38,0.47,3.57,0.73c0.04,0.01,0.07,0.02,0.11,0.02c1.19,0.26,2.37,0.54,3.55,0.84    c0.03,0.01,0.06,0.01,0.08,0.02l0,0c1.19,0.3,2.37,0.62,3.55,0.96c0.04,0.01,0.08,0.02,0.12,0.03c1.15,0.33,2.3,0.68,3.44,1.04    c0.03,0.01,0.09,0.03,0.12,0.04c1.2,0.38,2.31,0.76,3.41,1.15c0.04,0.01,0.07,0.02,0.09,0.03c1.17,0.41,2.28,0.82,3.38,1.25    c0.03,0.01,0.1,0.04,0.14,0.05c1.15,0.45,2.23,0.88,3.31,1.34l0.17,0.07c1.13,0.48,2.19,0.94,3.24,1.42l0.31,0.15    c1.01,0.47,2.04,0.95,3.05,1.46l0.4,0.2c0.94,0.47,1.93,0.97,2.91,1.5l0.41,0.22c0.97,0.52,1.92,1.04,2.86,1.58l0.44,0.26    c0.96,0.55,1.88,1.09,2.79,1.65l0.56,0.35c0.85,0.53,1.73,1.08,2.6,1.65l0.6,0.4c0.84,0.56,1.68,1.12,2.51,1.7l0.66,0.47    c0.8,0.57,1.6,1.14,2.39,1.72l0.72,0.54c0.77,0.58,1.53,1.16,2.28,1.75l0.76,0.61c0.74,0.59,1.46,1.18,2.17,1.77    c0.2,0.17,0.39,0.33,0.58,0.5l0.25,0.21c0.68,0.58,1.36,1.17,2.03,1.77l0.85,0.78c0.66,0.61,1.31,1.2,1.94,1.8    c0.22,0.21,0.43,0.41,0.63,0.62l0.64,0.62c0.38,0.37,0.76,0.74,1.14,1.11l0.29,0.3c0.25,0.25,0.47,0.49,0.7,0.73l0.4,0.42    c0.52,0.54,1.05,1.09,1.56,1.64l0.22,0.24c0.21,0.22,0.39,0.43,0.57,0.63l0.46,0.51c0.44,0.49,0.88,0.97,1.31,1.47    c0.14,0.16,0.29,0.34,0.45,0.52l0.18,0.22c0.31,0.37,0.61,0.72,0.91,1.08l0.29,0.34c0.22,0.26,0.44,0.52,0.65,0.78    c0.26,0.33,0.51,0.64,0.76,0.96l0.28,0.36c0.01,0.02,0.02,0.03,0.04,0.05l0.2,0.24c0.21,0.27,0.43,0.53,0.64,0.8l0.49,0.62    c0.25,0.33,0.5,0.67,0.75,1.01l0.58,0.79c0.27,0.36,0.53,0.71,0.79,1.08c7.09-13.17,18.53-29.56,35.95-42.55    c25.38-18.93,55.88-25.17,90.65-18.54c1.25,0.24,2.58,0.52,4.05,0.87l0.52,0.12c1.22,0.3,2.47,0.63,3.8,1.01l0.64,0.18    c1.28,0.38,2.53,0.78,3.73,1.19l0.54,0.19c1.38,0.48,2.61,0.94,3.8,1.41l0.29,0.12c1.27,0.5,2.56,1.05,3.82,1.61l0.15,0.07    c1.16,0.52,2.39,1.11,3.73,1.78l0.34,0.17c1.23,0.62,2.44,1.27,3.65,1.93l0.36,0.2c1.25,0.7,2.45,1.41,3.61,2.12l0.16,0.1    c3.74,2.31,7.39,4.87,10.89,7.65l0.09,0.07c1.22,0.97,2.36,1.92,3.46,2.86c0.04,0.04,0.09,0.08,0.12,0.1    c1.33,1.14,2.71,2.38,4.06,3.65c4.28,4.02,8.41,8.47,12.26,13.21c0.02,0.02,0.03,0.04,0.04,0.05c3.78,4.66,7.36,9.68,10.65,14.94    c0.01,0.01,0.02,0.03,0.02,0.04s0.02,0.03,0.03,0.04c3.26,5.22,6.28,10.75,8.99,16.43l-8.97,4.43l9.02-4.32    c2.03,4.28,3.9,8.68,5.58,13.13c0.02,0.04,0.04,0.11,0.06,0.15c0.55,1.45,1.08,2.92,1.59,4.39l0.11,0.31    c1.52,4.42,2.92,9.04,4.11,13.68l0.09,0.34c0.38,1.46,0.74,2.97,1.09,4.48l0.07,0.31c0.73,3.19,1.36,6.35,1.9,9.46    c0.01,0.06,0.02,0.13,0.03,0.19c0.26,1.49,0.5,3.05,0.73,4.61l0.06,0.44c0.22,1.55,0.42,3.08,0.6,4.61l0.05,0.46    c0.37,3.18,0.66,6.41,0.86,9.59l0.02,0.3c0.09,1.52,0.17,3.07,0.22,4.62l0.02,0.56c0.05,1.56,0.08,3.1,0.09,4.63l0,0.52    c0.01,3.2-0.06,6.42-0.21,9.6l-0.02,0.42c-0.08,1.58-0.18,3.11-0.3,4.65l-0.06,0.72c-0.12,1.51-0.27,3.03-0.43,4.56l-0.06,0.54    c-0.36,3.21-0.8,6.4-1.33,9.54l-0.1,0.59c-0.26,1.52-0.54,3.03-0.84,4.54l-0.15,0.75c-0.31,1.53-0.63,3.03-0.98,4.53l-0.15,0.65    c-0.38,1.61-0.75,3.11-1.13,4.55c-0.01,0.04-0.02,0.08-0.03,0.13l0,0c-0.38,1.42-0.8,2.93-1.3,4.62l-0.21,0.7    c-0.44,1.48-0.91,2.95-1.4,4.42l-0.27,0.82c-0.49,1.46-1.01,2.94-1.55,4.41l-0.22,0.58c-0.54,1.46-1.11,2.93-1.71,4.4    c-0.01,0.03-0.03,0.06-0.04,0.1L472,267.4c-0.56,1.37-1.18,2.82-1.88,4.41l-0.32,0.74c-0.63,1.42-1.3,2.85-1.99,4.27l-0.38,0.79    c-0.76,1.55-1.46,2.95-2.17,4.29l-0.27,0.51c-0.73,1.37-1.5,2.78-2.29,4.17l-0.24,0.43c-0.73,1.29-1.55,2.67-2.48,4.18l-0.47,0.77    c-0.83,1.34-1.7,2.71-2.59,4.05l-0.51,0.77c-0.98,1.47-1.9,2.81-2.81,4.08l-0.28,0.38c-0.95,1.33-1.93,2.66-2.93,3.97l-0.36,0.48    c-0.95,1.24-1.98,2.53-3.12,3.94l-0.59,0.72c-1.08,1.31-2.17,2.59-3.25,3.82l-0.6,0.67c-1.27,1.44-2.42,2.7-3.52,3.87l-0.23,0.25    c-1.15,1.22-2.37,2.47-3.64,3.73c0,0-0.01,0.01-0.01,0.01l-0.48,0.48c-1.18,1.16-2.42,2.35-3.78,3.62l-0.74,0.69    c-1.31,1.21-2.63,2.39-3.92,3.51l-0.67,0.57c-1.55,1.34-2.95,2.5-4.28,3.58l-0.19,0.15c-1.37,1.11-2.79,2.21-4.36,3.4l-0.64,0.48    c-1.4,1.05-2.9,2.15-4.46,3.26l-0.87,0.61c-1.56,1.09-3.12,2.16-4.62,3.15l-0.75,0.49c-1.8,1.18-3.45,2.22-5.04,3.2    c-114.57,70.11-130.63,100.08-132.35,104.02c-0.27,3.49-2.32,5.95-5.53,7.5C261.31,461.92,260.16,462.15,258.99,462.15z     M233.81,420.76c0.03,0.02,0.06,0.05,0.08,0.06c1.91,1.47,3.77,2.9,5.53,4.25l0.16,0.12c1.71,1.31,3.37,2.57,4.93,3.76l-5.94,8.05    l6.03-7.98c1.6,1.22,3.05,2.32,4.41,3.35l0.14,0.1c1.4,1.06,2.66,2.01,3.83,2.88l0.16,0.12c0.66,0.49,1.29,0.97,1.9,1.43    c11.95-16.49,44.75-49,134.81-104.11c1.42-0.87,2.9-1.81,4.54-2.88l0.68-0.44c1.34-0.88,2.74-1.84,4.15-2.83l0.76-0.54    c1.42-1.01,2.77-1.99,4.02-2.93l0.56-0.42c1.44-1.09,2.72-2.09,3.92-3.06l0.18-0.14c1.18-0.96,2.41-1.98,3.77-3.16l0.61-0.53    c1.13-0.98,2.3-2.03,3.48-3.12l0.65-0.6c1.22-1.14,2.32-2.19,3.36-3.22l0.43-0.43c0,0,0,0,0.01-0.01l0,0    c1.12-1.12,2.2-2.22,3.19-3.27l0.19-0.19c1-1.06,2.02-2.18,3.15-3.46l0.53-0.59c0.95-1.09,1.92-2.22,2.87-3.37l0.51-0.62    c1.03-1.27,1.94-2.4,2.77-3.5l0.3-0.39c0.89-1.17,1.76-2.35,2.59-3.5l0.26-0.36c0.78-1.09,1.59-2.28,2.47-3.59l0.44-0.66    c0.78-1.18,1.54-2.37,2.28-3.57l0.4-0.66c0.83-1.36,1.55-2.57,2.2-3.71l0.2-0.35c0.69-1.21,1.36-2.44,2.01-3.67l0.22-0.42    c0.67-1.27,1.3-2.53,1.92-3.79l0.33-0.68c0.61-1.25,1.18-2.5,1.74-3.75l0.29-0.65c0.58-1.31,1.14-2.61,1.67-3.92l0.09-0.23h0    c0.52-1.29,1.02-2.59,1.51-3.89l0.19-0.5c0.48-1.29,0.93-2.59,1.37-3.89l0.24-0.7c0.43-1.3,0.84-2.59,1.23-3.89l0.18-0.61    c0.4-1.35,0.79-2.71,1.15-4.08c0,0,0-0.01,0-0.01c0,0,0-0.01,0-0.01c0.37-1.41,0.71-2.78,1.03-4.15l0.13-0.56    c0.3-1.29,0.59-2.63,0.86-3.96l0.14-0.7c0.26-1.32,0.51-2.65,0.74-3.99l0.09-0.56c0.46-2.76,0.85-5.59,1.17-8.4l0.06-0.5    c0.15-1.36,0.27-2.71,0.38-4.06l0.05-0.65c0.11-1.35,0.2-2.71,0.27-4.08l0.02-0.39c0.14-2.84,0.2-5.71,0.19-8.53l0-0.49    c-0.01-1.35-0.04-2.71-0.08-4.08l-0.02-0.48c-0.05-1.44-0.12-2.82-0.2-4.19l-0.01-0.16c-0.18-2.91-0.44-5.79-0.77-8.62l-0.05-0.43    c-0.16-1.34-0.34-2.7-0.53-4.06l-0.06-0.41c-0.2-1.36-0.41-2.72-0.64-4.07c-0.01-0.06-0.02-0.12-0.03-0.18    c-0.47-2.73-1.04-5.58-1.69-8.42l-0.07-0.29c-0.32-1.38-0.64-2.72-0.98-4.05l-0.06-0.23c-1.08-4.17-2.31-8.28-3.69-12.26    c-0.01-0.02-0.07-0.2-0.08-0.22c-0.45-1.31-0.92-2.61-1.41-3.9l-0.07-0.19c-1.46-3.88-3.12-7.78-4.9-11.52l8.97-4.42l-9.02,4.32    c-2.39-5.03-5.04-9.88-7.9-14.46c-0.01-0.01-0.02-0.03-0.03-0.04c0-0.01-0.01-0.01-0.01-0.02l0,0c-2.86-4.58-5.97-8.94-9.25-12.97    c-0.01-0.01-0.02-0.03-0.03-0.04c-3.29-4.04-6.79-7.82-10.41-11.22c-1.14-1.07-2.3-2.11-3.44-3.09c-0.98-0.84-1.93-1.63-2.91-2.4    l-0.07-0.06c-2.92-2.32-5.92-4.43-8.96-6.3l-0.16-0.1c-0.95-0.58-1.92-1.16-2.92-1.71l-0.33-0.18c-0.97-0.54-1.94-1.06-2.9-1.54    l-0.3-0.15c-1.09-0.54-2.08-1.02-3.02-1.44l-0.13-0.06c-0.95-0.42-1.98-0.86-3.02-1.28l-0.26-0.11c-0.88-0.35-1.86-0.71-2.95-1.09    l-0.46-0.16c-0.93-0.32-1.92-0.63-2.93-0.93l-0.5-0.15c-1.06-0.31-2.04-0.57-3-0.8l-0.4-0.09c-1.18-0.28-2.23-0.51-3.18-0.69    c-64.59-12.31-95.35,29.94-107.93,56.22l-0.39,0.83c0,0-0.04,0.09-0.05,0.1l-1.49,3.32c0,0-0.04,0.1-0.04,0.1l-0.7,1.67    c-0.28,0.68-0.53,1.33-0.74,1.88c0,0.01-0.04,0.11-0.05,0.12l-0.13,0.35l-7.77-2.71l-0.04,0.02l7.75,2.86l-0.31,0.85l-8.94-2.97    l-0.01,0l8.9,3.09c-0.01,0.02-0.04,0.11-0.04,0.13l-0.03,0.08c-0.01,0.02-0.01,0.03-0.01,0.04c-0.01,0.02-0.01,0.04-0.02,0.06    c-1.2,3.91-4.65,6.64-8.73,6.97c-4.09,0.32-7.96-1.92-9.77-5.61c-0.49-0.99-0.99-1.98-1.51-2.95l-0.26-0.48    c-0.09-0.17-0.21-0.38-0.32-0.58l-0.54-0.98c-0.16-0.28-0.31-0.57-0.47-0.84l-0.55-0.91c-0.22-0.37-0.43-0.72-0.64-1.08    l-0.49-0.82c-0.17-0.28-0.35-0.54-0.52-0.81l-0.39-0.61c-0.02-0.03-0.05-0.08-0.07-0.1l-0.25-0.4c-0.1-0.15-0.2-0.31-0.3-0.46    l-0.26-0.4c-0.18-0.27-0.37-0.55-0.57-0.82l-0.7-1.02c-0.19-0.27-0.38-0.55-0.57-0.82c-0.24-0.33-0.48-0.66-0.73-0.99l-0.67-0.91    c-0.17-0.24-0.34-0.47-0.52-0.7l-0.42-0.54c-0.14-0.18-0.29-0.36-0.43-0.54l-0.27-0.34c-0.03-0.04-0.07-0.08-0.1-0.12l-0.25-0.32    c-0.18-0.23-0.35-0.45-0.54-0.68c-0.14-0.17-0.29-0.35-0.44-0.53l-0.34-0.41c-0.25-0.3-0.51-0.6-0.77-0.91l-0.51-0.6    c-0.35-0.41-0.71-0.79-1.05-1.18l-1.05-1.17c-0.47-0.5-0.9-0.95-1.33-1.4l-0.48-0.5c-0.15-0.16-0.3-0.31-0.45-0.47l-0.22-0.22    c-0.32-0.32-0.61-0.6-0.89-0.87l-1.18-1.15c-0.52-0.49-1.06-0.99-1.61-1.49l-0.73-0.67c-0.55-0.49-1.12-0.99-1.7-1.48l-0.7-0.6    c-0.59-0.5-1.2-0.99-1.8-1.47l-0.64-0.52c-0.64-0.51-1.28-0.99-1.92-1.47l-0.59-0.45c-0.67-0.5-1.34-0.98-2.01-1.45l-0.56-0.4    c-0.7-0.48-1.4-0.96-2.11-1.43l-0.49-0.32c-0.74-0.49-1.48-0.95-2.22-1.41l-0.42-0.26c-0.79-0.48-1.56-0.93-2.33-1.38l-0.4-0.23    c-0.79-0.45-1.6-0.89-2.41-1.33l-0.36-0.2c-0.8-0.42-1.63-0.85-2.46-1.26l-0.31-0.16c-0.84-0.42-1.7-0.82-2.56-1.22l-0.32-0.15    c-0.8-0.37-1.69-0.76-2.58-1.13l-0.15-0.06c-0.96-0.4-1.87-0.77-2.79-1.13l-0.21-0.08c-0.87-0.33-1.8-0.68-2.74-1.01    c-0.04-0.01-0.07-0.02-0.09-0.03c-0.99-0.35-1.95-0.67-2.91-0.98c-0.02-0.01-0.07-0.02-0.1-0.03c-1-0.32-1.95-0.6-2.9-0.88    c-0.03-0.01-0.07-0.02-0.1-0.03c-0.96-0.27-1.92-0.53-2.89-0.78c-0.02,0-0.04-0.01-0.07-0.02l0,0c-0.98-0.25-1.97-0.48-2.96-0.7    c-0.02,0-0.05-0.01-0.07-0.01l0,0c-1.01-0.22-2.02-0.43-3.04-0.62c-5.04-0.95-10.16-1.51-15.21-1.67    c-8.81-0.27-17.52,0.66-25.91,2.77l-0.4,0.1c-0.76,0.2-1.56,0.42-2.36,0.64L131.43,86c-0.75,0.22-1.5,0.45-2.25,0.69l-0.7,0.23    c-0.72,0.24-1.43,0.48-2.14,0.74l-0.81,0.29c-0.66,0.24-1.35,0.5-2.04,0.78l-0.84,0.34c-0.67,0.27-1.34,0.55-2.01,0.84l-0.86,0.38    c-0.67,0.3-1.33,0.6-1.99,0.91l-0.85,0.41c-0.66,0.32-1.32,0.65-1.97,0.99l-0.79,0.42c-0.68,0.36-1.34,0.71-2.01,1.08l-0.55,0.32    c-2.19,1.25-4.4,2.64-6.55,4.12l-0.46,0.31c-0.18,0.12-0.36,0.24-0.53,0.36c-0.38,0.26-0.74,0.53-1.1,0.8l-0.85,0.62    c-0.26,0.19-0.52,0.38-0.78,0.58c-0.34,0.26-0.68,0.53-1.02,0.79l-0.53,0.42c-0.37,0.29-0.75,0.58-1.11,0.88    c-0.4,0.33-0.79,0.66-1.18,0.99l-0.14,0.12c-0.44,0.37-0.88,0.74-1.31,1.12c-0.43,0.38-0.86,0.76-1.28,1.14    c-0.44,0.4-0.89,0.8-1.33,1.21c-0.41,0.39-0.82,0.78-1.24,1.18c-0.44,0.43-0.89,0.87-1.33,1.31c-0.39,0.39-0.79,0.79-1.18,1.2    c-0.46,0.47-0.9,0.94-1.34,1.41c-0.37,0.4-0.76,0.81-1.14,1.24c-0.45,0.5-0.89,1-1.34,1.51l-0.07,0.08    c-0.34,0.39-0.68,0.78-1.02,1.18c-0.46,0.54-0.9,1.08-1.35,1.63l-0.28,0.35c-0.25,0.31-0.5,0.61-0.75,0.92    c-0.41,0.52-0.82,1.05-1.23,1.59l-0.54,0.71c-0.19,0.24-0.37,0.49-0.56,0.73c-0.51,0.69-1.01,1.4-1.51,2.1l-0.37,0.52    c-0.13,0.18-0.26,0.37-0.39,0.55c-0.75,1.08-1.49,2.18-2.22,3.31c-0.78,1.2-1.54,2.4-2.29,3.59l-1.01,1.64    c-0.4,0.64-0.79,1.28-1.18,1.92l-1.2,2.02c-0.3,0.51-0.6,1.01-0.9,1.52c-0.17,0.3-0.34,0.6-0.51,0.9l-0.62,1.08    c-0.29,0.51-0.58,1.02-0.87,1.52c-0.18,0.33-0.36,0.65-0.53,0.97l-0.52,0.96c-0.28,0.52-0.57,1.03-0.84,1.55    c-0.16,0.31-0.33,0.62-0.49,0.93l-0.6,1.16c-0.24,0.45-0.47,0.9-0.7,1.35c-0.18,0.35-0.35,0.7-0.52,1.05l-0.52,1.05    c-0.22,0.44-0.44,0.88-0.65,1.32c-0.17,0.35-0.33,0.69-0.5,1.04l-0.5,1.05c-0.21,0.43-0.41,0.87-0.61,1.3    c-0.17,0.37-0.33,0.73-0.5,1.1l-0.44,0.99c-0.19,0.42-0.38,0.85-0.57,1.27c-0.14,0.32-0.28,0.65-0.42,0.99l-0.45,1.05    c-0.18,0.43-0.36,0.86-0.54,1.28c-0.16,0.38-0.3,0.75-0.45,1.12l-0.32,0.8c-0.18,0.46-0.37,0.93-0.55,1.39    c-0.13,0.35-0.26,0.7-0.4,1.06l-0.27,0.72c-0.19,0.5-0.37,1-0.55,1.5c-0.12,0.34-0.25,0.71-0.37,1.07l-0.29,0.84    c-0.15,0.44-0.3,0.88-0.45,1.32c-0.13,0.38-0.24,0.75-0.36,1.12l-0.22,0.7c-0.15,0.47-0.3,0.95-0.45,1.42    c-0.12,0.41-0.24,0.83-0.36,1.24l-0.19,0.67c-0.12,0.43-0.25,0.85-0.37,1.28c-0.11,0.39-0.21,0.78-0.31,1.17l-0.19,0.71    c-0.11,0.43-0.23,0.86-0.33,1.29c-0.1,0.41-0.2,0.83-0.29,1.24l-0.11,0.47c-0.11,0.49-0.23,0.97-0.34,1.46    c-0.09,0.41-0.18,0.83-0.26,1.25l-0.08,0.4c-0.1,0.49-0.2,0.98-0.29,1.47c-0.08,0.43-0.16,0.85-0.23,1.26l-0.09,0.53    c-0.08,0.44-0.16,0.88-0.23,1.32c-0.07,0.45-0.14,0.9-0.2,1.34l-0.03,0.17c-0.08,0.54-0.16,1.06-0.23,1.59    c-0.06,0.43-0.11,0.87-0.16,1.32l-0.02,0.18c-0.06,0.52-0.12,1.04-0.18,1.55c-0.05,0.52-0.1,1.01-0.14,1.51    c-0.05,0.52-0.09,1.04-0.13,1.55c-0.04,0.5-0.07,1-0.1,1.49c-0.03,0.53-0.06,1.04-0.08,1.56c-0.02,0.48-0.04,0.97-0.05,1.46    c-0.02,0.53-0.03,1.04-0.04,1.55c-0.01,0.5-0.01,0.99-0.01,1.49c0,0.51,0,1.02,0.01,1.53c0.01,0.48,0.02,0.97,0.04,1.46    c0.02,0.54,0.03,1.05,0.06,1.55c0.02,0.47,0.05,0.96,0.08,1.45c0.03,0.52,0.06,1.03,0.1,1.53c0.04,0.49,0.08,0.97,0.12,1.46    c0.05,0.52,0.1,1.02,0.15,1.52c0.05,0.5,0.11,0.98,0.17,1.46c0.06,0.52,0.13,1.02,0.2,1.52c0.07,0.49,0.14,0.97,0.21,1.45    c0.08,0.52,0.16,1.03,0.25,1.53c0.08,0.46,0.17,0.95,0.26,1.44c0.1,0.52,0.19,1.02,0.29,1.53c0.1,0.48,0.2,0.97,0.3,1.46    c0.11,0.5,0.22,1,0.34,1.51c0.11,0.48,0.23,0.97,0.35,1.46c0.12,0.5,0.25,1.01,0.39,1.51c0.13,0.49,0.26,0.98,0.4,1.46    c0.14,0.5,0.29,1.01,0.44,1.51c0.14,0.49,0.29,0.97,0.44,1.45c0.16,0.52,0.32,1.02,0.49,1.52c0.16,0.48,0.32,0.97,0.49,1.46    c0.17,0.51,0.35,1.02,0.54,1.53c0.17,0.48,0.35,0.97,0.54,1.46c0.19,0.5,0.38,1.01,0.58,1.51c0.19,0.48,0.38,0.98,0.58,1.47    c0.21,0.51,0.42,1.02,0.63,1.53c0.21,0.48,0.42,0.98,0.63,1.48c0.22,0.5,0.45,1.01,0.68,1.52c0.22,0.49,0.45,0.99,0.68,1.48    c0.25,0.52,0.49,1.03,0.74,1.54c0.26,0.54,0.49,1.01,0.72,1.47c0.26,0.52,0.52,1.03,0.79,1.54c0.26,0.5,0.51,0.99,0.78,1.49    c0.25,0.47,0.51,0.94,0.76,1.4l0.08,0.15c0.27,0.49,0.55,0.99,0.83,1.49c0.28,0.49,0.56,0.98,0.85,1.47    c0.33,0.57,0.62,1.06,0.91,1.55c0.3,0.51,0.61,1.01,0.91,1.51c0.35,0.57,0.65,1.07,0.97,1.57c0.29,0.46,0.59,0.93,0.89,1.4    l0.27,0.42c0.27,0.42,0.53,0.83,0.8,1.24c0.3,0.46,0.62,0.93,0.94,1.41l0.11,0.16c0.37,0.55,0.7,1.04,1.03,1.52    c0.3,0.43,0.61,0.88,0.92,1.32l0.43,0.61c0.27,0.39,0.54,0.77,0.82,1.16c0.33,0.46,0.68,0.93,1.02,1.4l0.39,0.53    c0.29,0.39,0.58,0.79,0.87,1.18c0.33,0.44,0.67,0.89,1.01,1.33l0.48,0.63c0.3,0.39,0.59,0.78,0.9,1.17    c0.3,0.39,0.62,0.79,0.93,1.18l0.56,0.71c0.33,0.41,0.66,0.83,0.99,1.24c0.33,0.41,0.67,0.82,1.01,1.23l0.61,0.74    c0.33,0.4,0.65,0.79,0.98,1.19c0.33,0.39,0.67,0.79,1.02,1.2l0.61,0.71c0.36,0.42,0.71,0.84,1.08,1.26    c0.37,0.42,0.75,0.86,1.13,1.29l0.71,0.81c0.32,0.36,0.63,0.72,0.96,1.08c0.36,0.41,0.73,0.8,1.09,1.21l0.83,0.91    c0.33,0.36,0.66,0.72,0.99,1.08c0.39,0.42,0.79,0.84,1.18,1.26l0.87,0.93c0.32,0.34,0.64,0.68,0.97,1.03    c0.4,0.42,0.82,0.85,1.23,1.27l0.96,0.98c0.31,0.32,0.63,0.65,0.95,0.97c0.42,0.42,0.85,0.85,1.28,1.28l0.87,0.88    c0.36,0.36,0.72,0.72,1.08,1.08c0.41,0.4,0.82,0.8,1.23,1.21l1.08,1.06c0.34,0.33,0.68,0.67,1.03,1c0.42,0.4,0.84,0.8,1.26,1.2    l1.2,1.14c0.33,0.31,0.66,0.62,0.99,0.94c0.46,0.43,0.93,0.86,1.39,1.29l1.09,1.01c0.36,0.33,0.71,0.66,1.08,1    c0.49,0.44,0.98,0.89,1.47,1.33l2.2,1.98c0.55,0.49,1.11,0.98,1.67,1.47l2.11,1.86c0.99,0.86,2.01,1.74,3.03,2.61l0.84,0.72    c1.33,1.13,2.67,2.26,4.02,3.39c23,19.2,45.47,37.57,66.78,54.61l0.54,0.43c1.85,1.48,3.65,2.91,5.42,4.32l3.26,2.59    c2.67,2.12,5.25,4.16,7.74,6.13l0.39,0.3c2.53,2,4.97,3.92,7.33,5.76l0.1,0.08c0.01,0.01,0.07,0.06,0.08,0.06    c2.38,1.86,4.67,3.65,6.88,5.37l3.38,2.63c0.02,0.01,0.04,0.03,0.05,0.04C229.79,417.65,231.84,419.24,233.81,420.76    C233.8,420.75,233.81,420.75,233.81,420.76z M428.02,315.59L428.02,315.59L428.02,315.59z"/></g><g><g><g><path class="st146" d="M258.15,451.65c0,0-50.14-36.28-138.86-110.31S15.15,204.32,67.22,123.95s156.21-59.48,190.93,11.08      c0,0,28.93-90.8,123.43-72.8s144.64,198.85,13.5,279.1S258.15,451.65,258.15,451.65z"/></g><g class="st147"><path class="st6" d="M192.2,400.84L192.2,400.84L192.2,400.84L192.2,400.84z M381.58,62.23c-94.5-18-123.43,72.8-123.43,72.8      c-5.43-11.03-12.55-20.85-20.91-29.26l19.15,68.44c0,0,42.16-99.71,107.84-92.7c28.86,3.08,53.66,8.73,72.4,14.09      C421.48,78.34,402.63,66.24,381.58,62.23z M115.2,337.88c-29.66-31.87-56.76-74.03-57.62-122.19      C56,127.63,133,84.93,160.97,72.34c-34.37-1.08-69.64,14.41-93.75,51.62C15.96,203.06,30.11,265.34,115.2,337.88z"/></g><g><path class="st148" d="M395.08,341.34c-131.14,80.25-136.93,110.31-136.93,110.31s-26.9-19.47-76.16-58.97      c61.86-27.42,183.67-85.04,222.73-176.2c29.04-67.78,22.94-112.61,11.1-139.59C486.03,125.47,509.2,271.5,395.08,341.34z       M256,177.27l6.75-53.31c-3.2,6.67-4.6,11.08-4.6,11.08c-17.08-34.71-50.97-57.39-87.19-61.92      C234.52,109.42,256,177.27,256,177.27z"/></g><g><path class="st6" d="M160.97,122.14c0,14.7-11.92,26.62-26.62,26.62c-14.7,0-26.62-11.92-26.62-26.62s11.92-26.62,26.62-26.62      C149.05,95.52,160.97,107.44,160.97,122.14z M85.52,148.77c-4.25,0-7.7,3.45-7.7,7.7c0,4.25,3.45,7.7,7.7,7.7      c4.25,0,7.7-3.45,7.7-7.7C93.22,152.21,89.77,148.77,85.52,148.77z"/></g><g class="st112"><path class="st6" d="M369.52,334.08c0,10.25-8.31,18.56-18.56,18.56c-10.25,0-18.56-8.31-18.56-18.56      c0-10.25,8.31-18.56,18.56-18.56C361.21,315.52,369.52,323.83,369.52,334.08z M393.87,292.37c-2.53,0-4.58,2.05-4.58,4.58      s2.05,4.58,4.58,4.58s4.58-2.05,4.58-4.58S396.4,292.37,393.87,292.37z"/></g></g><g><g><path class="st149" d="M257.2,366.21c0,0-28.11-20.34-77.85-61.85s-58.39-76.82-29.19-121.87s87.58-33.34,107.04,6.21      c0,0,16.22-50.91,69.2-40.82c52.98,10.09,81.09,111.48,7.57,156.48S257.2,366.21,257.2,366.21z"/></g><g class="st147"><path class="st6" d="M220.23,337.72L220.23,337.72C220.23,337.72,220.23,337.72,220.23,337.72L220.23,337.72z M326.4,147.89      c-52.98-10.09-69.2,40.82-69.2,40.82c-3.04-6.19-7.04-11.69-11.72-16.4l10.74,38.37c0,0,23.63-55.9,60.46-51.97      c16.18,1.73,30.08,4.89,40.59,7.9C348.77,156.92,338.21,150.13,326.4,147.89z M177.06,302.43      c-16.63-17.87-31.82-41.5-32.3-68.51c-0.89-49.37,42.29-73.31,57.97-80.37c-19.27-0.61-39.04,8.08-52.56,28.94      C121.42,226.84,129.36,261.75,177.06,302.43z"/></g><g><path class="st150" d="M333.97,304.36c-73.52,44.99-76.77,61.85-76.77,61.85s-15.08-10.91-42.7-33.06      c34.68-15.37,102.97-47.67,124.87-98.78c16.28-38,12.86-63.13,6.22-78.26C384.96,183.34,397.96,265.21,333.97,304.36z       M256,212.38l3.78-29.89c-1.79,3.74-2.58,6.21-2.58,6.21c-9.58-19.46-28.58-32.18-48.88-34.71      C243.95,174.34,256,212.38,256,212.38z"/></g><g><path class="st6" d="M202.72,181.47c0,8.24-6.68,14.93-14.93,14.93c-8.24,0-14.93-6.68-14.93-14.93      c0-8.24,6.68-14.93,14.93-14.93C196.04,166.55,202.72,173.23,202.72,181.47z M160.42,196.4c-2.38,0-4.32,1.93-4.32,4.32      s1.93,4.32,4.32,4.32s4.32-1.93,4.32-4.32S162.8,196.4,160.42,196.4z"/></g><g class="st112"><path class="st6" d="M319.64,300.29c0,5.75-4.66,10.41-10.41,10.41c-5.75,0-10.41-4.66-10.41-10.41      c0-5.75,4.66-10.41,10.41-10.41C314.98,289.89,319.64,294.55,319.64,300.29z M333.29,276.91c-1.42,0-2.57,1.15-2.57,2.57      c0,1.42,1.15,2.57,2.57,2.57c1.42,0,2.57-1.15,2.57-2.57C335.86,278.06,334.71,276.91,333.29,276.91z"/></g></g></g></g></svg>