<?xml version="1.0" ?><svg xmlns="http://www.w3.org/2000/svg" xmlns:xlink="http://www.w3.org/1999/xlink" version="1.1" viewBox="0 0 512 512" style="enable-background:new 0 0 512 512;" xml:space="preserve"><style type="text/css">
	.st0{fill:#231A15;}
	.st1{fill:#FFE000;}
	.st2{fill:#BCA100;}
	.st3{fill:#FC0000;}
	.st4{fill:#AA0000;}
	.st5{fill:#F94343;}
	.st6{fill:#FFFFFF;}
	.st7{fill:#A58E07;}
	.st8{opacity:0.44;}
	.st9{fill:#756204;}
	.st10{opacity:0.64;}
	.st11{opacity:0.38;}
	.st12{fill:#5D5004;}
	.st13{fill:#B7A100;}
	.st14{fill:#1D4DFC;}
	.st15{fill:#143CAF;}
	.st16{opacity:0.59;}
	.st17{opacity:0.52;}
	.st18{fill:#FF7F1F;}
	.st19{fill:#C4570C;}
	.st20{fill:#B29904;}
	.st21{fill:#87720A;}
	.st22{fill:#DDDDDD;}
	.st23{opacity:0.51;}
	.st24{fill:#878787;}
	.st25{fill:#727272;}
	.st26{opacity:0.33;}
	.st27{opacity:0.46;}
	.st28{fill:#25CBF2;}
	.st29{fill:#0A8FA5;}
	.st30{opacity:0.58;}
	.st31{fill:#04889E;}
	.st32{fill:#035A63;}
	.st33{opacity:0.65;}
	.st34{opacity:0.39;}
	.st35{fill:#AB0000;}
	.st36{fill:#1987A1;}
	.st37{fill:#3F1F0A;}
	.st38{fill:#4DEEFF;}
	.st39{fill:#21B9C1;}
	.st40{fill:#BBF9FF;}
	.st41{fill:#64ACAF;}
	.st42{fill:#089FB7;}
	.st43{opacity:0.47;}
	.st44{opacity:0.42;}
	.st45{fill:#DBF7FC;}
	.st46{fill:#B2E7ED;}
	.st47{fill:#0FA2BA;}
	.st48{opacity:0.54;}
	.st49{fill:#8E7716;}
	.st50{fill:#191401;}
	.st51{fill:#382E02;}
	.st52{fill:#605106;}
	.st53{fill:#AFACA0;}
	.st54{fill:#BC0404;}
	.st55{fill:#750000;}
	.st56{fill:#A08B0D;}
	.st57{fill:#5B4C05;}
	.st58{opacity:0.4;}
	.st59{opacity:0.5;}
	.st60{fill:#FF8383;}
	.st61{fill:#FFF0A6;}
	.st62{fill:#E2C227;}
	.st63{fill:#AA9205;}
	.st64{fill:#FFEA71;}
	.st65{opacity:0.22;}
	.st66{fill:#B19B00;}
	.st67{fill:#1989A4;}
	.st68{fill:#13A0B7;}
	.st69{fill:#C4A805;}
	.st70{fill:#FFF3A9;}
	.st71{fill:#846E03;}
	.st72{fill:#2D2502;}
	.st73{opacity:0.36;}
	.st74{fill:#4DD307;}
	.st75{fill:#328402;}
	.st76{fill:#97FF5A;}
	.st77{fill:#7A6500;}
	.st78{fill:#246001;}
	.st79{fill:#359100;}
	.st80{fill:#968022;}
	.st81{fill:#4F420B;}
	.st82{fill:#FFED83;}
	.st83{fill:#BAA335;}
	.st84{fill:#8D0991;}
	.st85{fill:#4B044F;}
	.st86{fill:#CE15CE;}
	.st87{fill:#897502;}
	.st88{fill:#493D01;}
	.st89{fill:#C9C9C9;}
	.st90{fill:#2D280E;}
	.st91{fill:#378C06;}
	.st92{fill:#183A03;}
	.st93{fill:#94FF55;}
	.st94{fill:#2E7F04;}
	.st95{fill:#63AB39;}
	.st96{fill:#AA5F04;}
	.st97{fill:#633502;}
	.st98{fill:#EF9014;}
	.st99{fill:#A05A07;}
	.st100{fill:#05616B;}
	.st101{fill:#033335;}
	.st102{fill:#0E94AA;}
	.st103{fill:#035D66;}
	.st104{opacity:0.27;}
	.st105{opacity:0.43;}
	.st106{fill:#FFF203;}
	.st107{fill:#FFA300;}
	.st108{fill:#2B3030;}
	.st109{opacity:0.28;}
	.st110{fill:#FCD17A;}
	.st111{fill:#AF853A;}
	.st112{opacity:0.31;}
	.st113{fill:#B641FF;}
	.st114{fill:#700FBC;}
	.st115{fill:#F2D0B1;}
	.st116{fill:#AF835F;}
	.st117{fill:#C17540;}
	.st118{fill:#F2BA94;}
	.st119{fill:#592909;}
	.st120{fill:#2B1204;}
	.st121{fill:#894818;}
	.st122{fill:#512609;}
	.st123{fill:#FF7F15;}
	.st124{fill:#A04A0A;}
	.st125{fill:#B7865E;}
	.st126{fill:#70350E;}
	.st127{fill:#3A1805;}
	.st128{fill:#C1521B;}
	.st129{fill:#FFC7AE;}
	.st130{fill:#FF717F;}
	.st131{fill:#6E2F0F;}
	.st132{fill:#AC8675;}
	.st133{opacity:0.25;}
	.st134{opacity:0.32;}
	.st135{fill:#FFFCC5;}
	.st136{fill:#D1CA78;}
	.st137{fill:#D37733;}
	.st138{fill:#A04F18;}
	.st139{fill:#0ABFBA;}
	.st140{fill:#057F79;}
	.st141{fill:#15F9F9;}
	.st142{fill:#09B2AD;}
	.st143{fill:#B2B2B2;}
	.st144{fill:#FFF755;}
	.st145{fill:#BCB121;}
	.st146{fill:#F90368;}
	.st147{opacity:0.49;}
	.st148{fill:#B50857;}
	.st149{fill:#FF76B4;}
	.st150{fill:#F23091;}
	.st151{fill:#FFF800;}
	.st152{fill:#C9BF05;}
	.st153{fill:#FF8500;}
	.st154{fill:#A35507;}
	.st155{fill:#AA6E50;}
	.st156{fill:#723C25;}
	.st157{fill:#EAD4B9;}
	.st158{fill:#AA8D6F;}
	.st159{fill:#B7A8A5;}
	.st160{fill:#84726F;}
	.st161{fill:#77645F;}
	.st162{fill:#51403C;}
	.st163{fill:#EABBA7;}
	.st164{fill:#BC7F69;}
	.st165{fill:#7C5039;}
	.st166{fill:#442619;}
	.st167{fill:#B7AE04;}
	.st168{fill:#BAB108;}
	.st169{fill:#7A7105;}
	.st170{fill:#352B23;}
	.st171{fill:#050403;}
	.st172{fill:#706255;}
	.st173{fill:#44382E;}
	.st174{fill:#634319;}
	.st175{fill:#35210A;}
	.st176{fill:#2D1C08;}
	.st177{fill:#0A0601;}
	.st178{fill:#9E7443;}
	.st179{fill:#704D2A;}
	.st180{fill:#D8A73A;}
	.st181{fill:#A0741C;}
	.st182{fill:#3F2F28;}
	.st183{fill:#211410;}
	.st184{fill:#FF326C;}
	.st185{fill:#BC0749;}
	.st186{fill:#68390E;}
	.st187{fill:#A5632D;}
	.st188{fill:#3D1E05;}
	.st189{fill:#331A06;}
	.st190{fill:#110801;}
	.st191{fill:#160A02;}
	.st192{fill:#663514;}
	.st193{opacity:0.29;}
	.st194{fill:#FC001F;}
	.st195{fill:#AF021F;}
	.st196{fill:#C48622;}
	.st197{fill:#8C5910;}
	.st198{fill:#846D64;}
	.st199{fill:#513B35;}
	.st200{fill:#5B4842;}
	.st201{fill:#332522;}
	.st202{fill:#47332C;}
	.st203{fill:#543E38;}
	.st204{fill:#1E1412;}
	.st205{fill:#604C43;}
	.st206{fill:#D3896C;}
	.st207{fill:#FF001F;}
	.st208{fill:#AF0824;}
	.st209{fill:#A37462;}
	.st210{fill:#5E3E34;}
	.st211{fill:#874A38;}
	.st212{fill:#4C2218;}
	.st213{fill:#5B2B20;}
	.st214{fill:#210C09;}
	.st215{fill:#99001A;}
	.st216{fill:#A08A07;}
	.st217{fill:#A08904;}
	.st218{fill:#5B4C02;}
	.st219{fill:#CECAB7;}
	.st220{fill:#727068;}
	.st221{fill:#42403A;}
	.st222{fill:#B2B0A6;}
	.st223{fill:#726F62;}
	.st224{fill:#6B4F45;}
	.st225{fill:#3A261F;}
	.st226{fill:#777468;}
	.st227{fill:#474436;}
	.st228{fill:#B78B7D;}
	.st229{fill:#845A4E;}
	.st230{fill:#3A372D;}
	.st231{fill:#43CFFF;}
	.st232{fill:#13A0BC;}
</style><g id="_x34_4"><g><path class="st0" d="M271.24,477.04h-0.5c-1.61,0-3.16,0-4.7-0.01l-15.21-0.1c-1.46-0.02-2.91-0.03-4.35-0.05l-13.83-0.24    c-1.4-0.03-2.68-0.06-3.95-0.09l-12.17-0.34c-0.02,0-0.05,0-0.07,0l-0.27-0.01c-4.9-0.16-9.83-0.34-14.67-0.55    c-1.84-0.08-3.65-0.16-5.4-0.25c-1.76-0.08-3.48-0.17-5.15-0.26l-2.48-0.13c-1.63-0.09-3.23-0.18-4.78-0.27l-2.28-0.13    c-2.33-0.14-4.55-0.29-6.68-0.43c-1.3-0.09-2.55-0.17-3.78-0.26l-2.22-0.16c-1.23-0.09-2.42-0.18-3.58-0.27l-5.03-0.4    c-2.22-0.18-4.3-0.36-6.24-0.53l-7.01-0.63c-3.93-0.36-7.03-0.64-9.28-0.78c-0.09-0.01-0.18-0.01-0.26-0.02    c-0.11-0.01-0.23-0.02-0.34-0.04c-0.52-0.06-1.04-0.15-1.55-0.28c-0.26-0.07-0.56-0.16-0.83-0.25c-0.34-0.11-0.67-0.23-1-0.37    c-0.3-0.13-0.56-0.25-0.8-0.38c-0.28-0.14-0.56-0.29-0.84-0.47c-0.19-0.11-0.4-0.25-0.6-0.4c-0.22-0.15-0.43-0.3-0.64-0.46    c-0.23-0.18-0.39-0.31-0.55-0.45c-0.16-0.14-0.34-0.29-0.53-0.47c-0.03-0.02-0.05-0.05-0.08-0.07c-0.12-0.12-0.25-0.24-0.37-0.37    c-0.16-0.16-0.31-0.32-0.47-0.49c-0.13-0.14-0.27-0.3-0.4-0.46c-0.09-0.1-0.23-0.26-0.37-0.44c-0.02-0.03-0.05-0.06-0.07-0.08    l-0.24-0.31c-0.17-0.22-0.28-0.37-0.4-0.53l-0.27-0.39c-0.16-0.23-0.27-0.39-0.38-0.57l-0.19-0.3c-0.01-0.02-0.05-0.08-0.06-0.1    c-0.13-0.21-0.22-0.36-0.31-0.51l-0.18-0.31c-0.01-0.01-0.05-0.08-0.05-0.09l-0.52-0.95c-0.1-0.19-0.2-0.37-0.3-0.57l-0.16-0.31    c0,0-0.05-0.09-0.05-0.09l-0.49-1.02c-0.07-0.16-0.17-0.37-0.27-0.59l-0.19-0.43c-0.08-0.18-0.17-0.4-0.27-0.62l-1.92-4.95    l-2.1-6.48l-2.05-7.26l-0.81-3.13c-0.01-0.03-0.01-0.06-0.02-0.08c-9-35.34-18.21-95.47-22.78-127.26c-0.25,0-0.5,0-0.74,0    c-1.45,0-2.78-0.04-3.98-0.12c-1.9-0.12-3.5-0.33-4.91-0.65c-0.48-0.11-0.9-0.22-1.28-0.34c-2.69-0.81-4.85-2.17-6.42-4.06    c-0.37-0.45-0.71-0.92-1.02-1.41c-0.08-0.14-0.2-0.33-0.29-0.49c-0.11-0.19-0.25-0.43-0.39-0.71c-0.05-0.09-0.12-0.25-0.2-0.41    c-0.1-0.21-0.19-0.4-0.28-0.61c-0.05-0.1-0.11-0.24-0.16-0.38c-0.1-0.24-0.18-0.43-0.26-0.63l-0.14-0.35    c0-0.01-0.04-0.1-0.04-0.11l-0.32-0.89c-0.01-0.02-0.04-0.13-0.05-0.14l-1.37-4.6l-1.47-6.21c-0.24-1.12-0.48-2.29-0.72-3.51    l-1.97-11.38l-1.32-9.69l-0.19-1.6c-0.01-0.05-0.01-0.1-0.02-0.16c-1.31-11.42-2.38-26.17-1.31-38.9    c-0.28-0.02-0.56-0.03-0.84-0.05c-0.77-0.05-1.52-0.11-2.27-0.18c-0.17-0.02-0.37-0.04-0.56-0.06l-0.29-0.03    c-0.44-0.05-0.89-0.1-1.32-0.16c-0.23-0.03-0.45-0.06-0.67-0.1l-0.43-0.07c-0.36-0.05-0.72-0.11-1.07-0.17    c-0.22-0.04-0.44-0.08-0.66-0.12l-0.44-0.08c-0.33-0.06-0.66-0.13-0.98-0.2c-0.23-0.05-0.46-0.1-0.68-0.16l-0.34-0.08    c-0.33-0.08-0.66-0.16-0.99-0.24c-0.29-0.08-0.52-0.14-0.76-0.21l-0.25-0.07c-0.34-0.09-0.67-0.19-1-0.29    c-0.21-0.06-0.46-0.14-0.7-0.22l-0.14-0.04c-0.36-0.12-0.71-0.23-1.05-0.35c-0.23-0.08-0.45-0.16-0.68-0.25l-0.15-0.05    c-0.36-0.14-0.7-0.26-1.03-0.4c-0.24-0.09-0.48-0.2-0.71-0.3c-0.01,0-0.11-0.04-0.11-0.05c-0.33-0.14-0.66-0.28-0.98-0.43    c-0.22-0.1-0.49-0.23-0.76-0.36c-0.33-0.16-0.65-0.31-0.96-0.47c-0.26-0.13-0.51-0.26-0.76-0.4c-0.28-0.15-0.59-0.32-0.9-0.49    c-0.25-0.14-0.48-0.28-0.72-0.42c-0.3-0.18-0.59-0.36-0.88-0.54c-0.23-0.14-0.46-0.29-0.68-0.44c-0.3-0.2-0.59-0.39-0.88-0.59    l-0.62-0.44c-0.29-0.21-0.58-0.42-0.85-0.64l-0.57-0.44c-0.31-0.25-0.58-0.47-0.85-0.7c-0.24-0.2-0.4-0.33-0.55-0.47    c-0.25-0.21-0.52-0.46-0.79-0.71l-0.48-0.44c-0.3-0.29-0.57-0.55-0.83-0.82l-0.42-0.42c-0.26-0.27-0.53-0.56-0.8-0.86l-0.35-0.38    c-0.29-0.32-0.56-0.64-0.83-0.96l-0.26-0.31c-0.31-0.38-0.6-0.75-0.88-1.12l-0.16-0.21c-3.04-4.04-5.45-8.8-7.15-14.13    c0,0,0,0,0-0.01c0,0,0,0,0,0c-0.15-0.47-0.29-0.95-0.43-1.42c-0.01-0.02-0.01-0.05-0.02-0.07c-3.35-11.56-2.78-22.91-2.51-28.37    c0.04-0.76,0.07-1.37,0.07-1.77c0-2.7,0-9.01,5.59-12.92c6.39-4.47,14.15-2.36,30.33,3.52c7.48,2.72,15.83,3.13,23.13,2.67    c-9.36-23.93-4.61-46.75-3.58-51c0.84-5.35,6.94-34.5,41.94-55.63c15.67-9.46,30.53-12.47,44.17-8.94    c15.2,3.93,28.2,15.59,39.74,35.66c6.72,11.69,14.81,21.77,21.13,28.83c4.44-2.77,9.63-4.77,15.52-6    c16.27-3.38,31.24-2.39,43.29,2.86c0.74,0.32,1.5,0.68,2.38,1.12l0.65,0.33c0.65,0.34,1.27,0.67,1.88,1.02l0.47,0.26    c0.66,0.39,1.3,0.79,1.93,1.19c6.5-7.19,14.89-17.54,21.84-29.63c11.54-20.07,24.54-31.73,39.74-35.66    c13.64-3.52,28.5-0.52,44.17,8.94c35,21.13,41.1,50.28,41.94,55.63c1.02,4.25,5.78,27.05-3.57,50.98    c7.13,0.44,15.61,0.07,23.12-2.66c15.57-5.66,23.05-7.76,29.39-4.13c1.9,1.09,5.23,3.72,6.21,9.11c0.13,0.73,0.22,1.5,0.27,2.37    l0.01,0.16c0.03,0.59,0.05,1.21,0.05,1.88c0,0.28,0.02,0.67,0.04,1.14c0,0,0,0,0,0l0.03,0.63c0.16,3.16,0.42,8.44-0.08,14.63    c-0.06,0.8-0.14,1.62-0.23,2.44c-0.14,1.28-0.32,2.56-0.52,3.8c-0.14,0.88-0.3,1.75-0.48,2.63c-1.02,4.98-2.56,9.58-4.59,13.65    c-2.5,5.02-5.78,9.35-9.75,12.86c-1.75,1.55-3.67,2.96-5.68,4.2c-1.03,0.63-2.12,1.23-3.22,1.78c-2.61,1.29-5.42,2.34-8.41,3.14    c0,0.07,0,0.14,0,0.21c0,1.53-0.02,3.14-0.05,4.82c-0.01,0.56-0.03,1.12-0.05,1.69c-0.25,8.18-0.96,17.5-2.01,26.25    c-0.16,1.3-0.32,2.6-0.49,3.89c-0.26,1.95-0.54,3.87-0.83,5.77c-0.1,0.64-0.2,1.27-0.3,1.89c-1.36,8.26-2.96,15.18-4.76,20.56    c-0.91,2.72-1.85,5.02-2.88,7.02c-0.74,1.43-1.53,2.73-2.36,3.85c-1.07,1.44-2.25,2.67-3.52,3.65c-1.12,0.86-2.31,1.54-3.56,2.04    c-1.51,0.59-3.06,0.9-4.63,0.93c-0.48,0.01-1.02,0.01-1.62-0.01c-0.26,3.83-0.55,7.97-0.85,12.35l-0.12,1.71    c-0.82,11.7-1.64,23.05-2.43,33.74l-0.3,3.98c-0.3,3.99-0.61,8-0.92,12.01c-0.66,8.47-1.3,16.46-1.9,23.72    c-0.16,1.93-0.32,3.84-0.48,5.72c-0.56,6.54-1.1,12.6-1.61,18c-0.37,3.97-0.74,7.74-1.11,11.25c-0.16,1.51-0.31,2.98-0.47,4.4    c-0.1,0.95-0.21,1.87-0.31,2.77c-0.26,2.27-0.51,4.38-0.75,6.33c-1.55,12.21-2.53,14.9-3.48,16.78c-1.72,3.38-4.01,6.13-6.99,8.39    c-0.25,0.19-0.53,0.4-0.82,0.6c-1.38,0.97-2.93,1.86-4.61,2.67c-0.33,0.16-0.67,0.31-1.03,0.47c-1.69,0.75-3.52,1.42-5.59,2.05    c-0.41,0.12-0.82,0.25-1.25,0.37c-1.25,0.36-2.6,0.7-3.99,1.02c-1.86,0.43-3.9,0.84-6.05,1.22c-2.16,0.38-4.52,0.74-7.02,1.07    c-1.25,0.17-2.56,0.33-3.92,0.49c-1.34,0.16-2.75,0.31-4.21,0.46c-5.09,0.52-10.9,0.98-17.27,1.37c-1.84,0.11-3.75,0.22-5.73,0.33    c-1.97,0.1-4,0.2-6.1,0.3c-2.1,0.09-4.27,0.18-6.5,0.27c-3.35,0.13-6.85,0.24-10.52,0.35c-2.44,0.07-4.96,0.13-7.55,0.19    l-3.93,0.09c-4.65,0.1-9.54,0.18-14.66,0.24l-6.78,0.08c-1.74,0.02-3.45,0.03-5.15,0.04L271.24,477.04z M217.17,456.23l12,0.33    c1.27,0.03,2.53,0.06,3.82,0.09l0.11,0c0.03,0,0.15,0,0.18,0c0.02,0,0.09,0,0.12,0l13.36,0.23c1.43,0.02,2.86,0.04,4.31,0.05    l15.04,0.1c1.53,0,3.06,0.01,4.62,0.01l16.62-0.06c1.7-0.01,3.4-0.03,5.12-0.04l6.7-0.08c5.09-0.07,9.92-0.14,14.52-0.24    l3.89-0.09c2.56-0.06,5.04-0.12,7.44-0.19c3.6-0.1,7.05-0.22,10.34-0.34c2.19-0.08,4.31-0.17,6.36-0.26    c2.05-0.09,4.03-0.19,5.95-0.29c1.91-0.1,3.76-0.21,5.55-0.32c6.11-0.38,11.65-0.81,16.49-1.31c1.36-0.14,2.66-0.28,3.91-0.43    c1.25-0.14,2.44-0.29,3.59-0.45c2.23-0.3,4.32-0.62,6.21-0.95c1.81-0.32,3.49-0.66,5.01-1.01c1.07-0.25,2.08-0.5,3.01-0.77    c0.3-0.09,0.59-0.17,0.88-0.26c1.28-0.39,2.42-0.81,3.38-1.23c0.18-0.08,0.34-0.15,0.5-0.23c0.68-0.32,1.25-0.65,1.71-0.97    l0.19-0.14c0.48-0.36,0.78-0.68,1.06-1.15c0.21-0.82,0.78-3.46,1.69-10.63c0.24-1.86,0.48-3.89,0.72-6.06    c0.1-0.87,0.2-1.77,0.3-2.69c0.15-1.38,0.3-2.81,0.46-4.29c0.36-3.46,0.72-7.17,1.09-11.07c0.5-5.35,1.04-11.35,1.6-17.83    c0.16-1.87,0.32-3.77,0.48-5.68c0.6-7.23,1.24-15.17,1.9-23.61c0.31-3.99,0.61-7.99,0.91-11.96l0.3-3.96    c0.79-10.66,1.61-21.98,2.43-33.65l0.12-1.71c0.6-8.57,1.12-16.22,1.53-22.41c0.18-2.71,1.46-5.23,3.54-6.98    c2.08-1.75,4.78-2.58,7.48-2.3c2.05,0.21,4.44,0.45,6.42,0.6c0.47-1,0.96-2.24,1.45-3.7c1.44-4.32,2.83-10.35,4-17.46    c0.09-0.57,0.19-1.15,0.28-1.74c0.27-1.74,0.53-3.52,0.77-5.32c0.16-1.2,0.31-2.41,0.46-3.62c0.98-8.17,1.64-16.87,1.87-24.48    c0.02-0.52,0.03-1.03,0.04-1.54c0.03-1.51,0.05-2.96,0.05-4.33c0-0.89-0.01-1.76-0.03-2.59c-0.03-1.22-0.07-2.34-0.13-3.35    c-0.02-0.32-0.04-0.64-0.07-0.95c-0.02-0.26-0.04-0.5-0.06-0.74c-0.25-2.65,0.57-5.28,2.27-7.32c1.7-2.04,4.14-3.33,6.78-3.57    c4.16-0.38,7.78-1.32,10.78-2.8c0.58-0.29,1.14-0.6,1.67-0.92c1.02-0.62,1.98-1.33,2.85-2.1c2.03-1.8,3.75-4.09,5.1-6.8    c1.25-2.51,2.23-5.45,2.9-8.73c0.13-0.62,0.24-1.25,0.34-1.86c0.15-0.9,0.28-1.84,0.38-2.78c0.07-0.63,0.13-1.24,0.18-1.84    c0.26-3.2,0.26-6.15,0.18-8.6c-2.24,0.71-5.26,1.73-9.33,3.21c-17.58,6.4-37.16,3.77-47.26,1.64c-3.22-0.68-5.89-2.89-7.16-5.93    c-1.27-3.03-0.97-6.5,0.81-9.26c11.86-18.47,9.51-39.51,8.25-46.6c-1.34-2.07-1.88-4.59-1.47-7.07    c-1.92-7.06-8.8-24.51-31.83-38.42c-11.04-6.67-20.47-8.86-28.83-6.7c-9.72,2.51-18.69,11.1-27.4,26.27    c-10.62,18.48-24.11,33.18-31.2,40.31c-1.88,1.89-4.43,2.94-7.09,2.94c-0.02,0-0.04,0-0.05,0c-2.68-0.01-5.24-1.1-7.11-3.02    l-0.63-0.62c-0.35-0.34-0.69-0.65-1.04-0.96c-0.04-0.03-0.1-0.08-0.15-0.13c-0.35-0.3-0.71-0.58-1.07-0.86l-0.28-0.21    c-0.37-0.28-0.7-0.51-1.03-0.74l-0.25-0.17c-0.46-0.31-0.89-0.57-1.33-0.83l-0.29-0.16c-0.38-0.22-0.75-0.42-1.12-0.61l-0.43-0.22    c-0.43-0.22-0.92-0.45-1.42-0.67c-8.23-3.59-19.03-4.15-31.23-1.61c-5.63,1.17-9.9,3.34-12.7,6.45c-0.43,0.48-0.91,0.92-1.43,1.31    l-0.17,0.13c-4,3.18-9.75,2.82-13.34-0.82c-8.44-8.58-20.57-22.39-30.42-39.51c-8.72-15.16-17.68-23.75-27.4-26.27    c-8.36-2.16-17.79,0.03-28.83,6.7c-23,13.88-29.89,31.31-31.83,38.43c0.41,2.47-0.14,4.99-1.47,7.05    c-1.25,7.05-3.61,28.11,8.25,46.59c1.78,2.77,2.08,6.23,0.81,9.26s-3.95,5.25-7.17,5.93l-3.8,0.73c-0.51,0.09-1.03,0.18-1.57,0.26    c-10.97,1.76-27.13,2.73-41.89-2.64c-4.06-1.48-7.08-2.5-9.32-3.21c-0.14,4.84-0.01,11.87,1.9,18.43c0,0.02,0.01,0.04,0.02,0.05    c0.08,0.28,0.17,0.56,0.26,0.84c0.01,0.03,0.02,0.05,0.02,0.07c1.01,3.16,2.38,5.89,4.05,8.13c0.04,0.05,0.1,0.12,0.12,0.15    c0.14,0.18,0.29,0.38,0.45,0.57l0.14,0.17c0.13,0.15,0.27,0.32,0.41,0.48l0.17,0.18c0.14,0.15,0.27,0.3,0.41,0.44l0.23,0.23    c0.13,0.13,0.26,0.26,0.4,0.4l0.25,0.23c0.09,0.08,0.23,0.21,0.37,0.33l0.28,0.24c0.14,0.11,0.28,0.23,0.42,0.35l0.3,0.23    c0.11,0.08,0.25,0.19,0.4,0.3l0.31,0.22c0.15,0.1,0.3,0.2,0.45,0.3l0.33,0.21c0.15,0.1,0.31,0.19,0.48,0.29l0.36,0.21    c0.15,0.08,0.31,0.17,0.47,0.25l0.42,0.22c0.16,0.08,0.32,0.16,0.49,0.24c0.12,0.06,0.25,0.12,0.38,0.18    c0.23,0.1,0.4,0.18,0.58,0.25l0.42,0.18c0.19,0.08,0.38,0.15,0.57,0.22l0.47,0.17c0.2,0.07,0.4,0.13,0.61,0.2l0.47,0.15    c0.21,0.07,0.39,0.11,0.56,0.16l0.67,0.19c0.14,0.04,0.34,0.08,0.53,0.13l0.68,0.16c0.17,0.04,0.34,0.07,0.51,0.1l0.8,0.16    c0.21,0.04,0.4,0.07,0.6,0.1l0.78,0.12c0.28,0.04,0.58,0.07,0.87,0.1l0.61,0.07c0.52,0.05,1.03,0.09,1.55,0.13    c3.52,0.22,7.24,0.31,11.06,0.25c3.14-0.03,6.09,1.37,8.02,3.82c1.93,2.46,2.6,5.67,1.81,8.7c-2.28,8.77-2.33,24.77-0.13,43.92    c0,0.02,0.01,0.06,0.01,0.1l2.08,14.72l1.16,6.38c0.21,1.09,0.43,2.16,0.65,3.17l1.52,6.3c0.48,0.01,1,0.02,1.56,0.02    c0.76,0,1.55-0.01,2.4-0.03c0.44-0.01,0.88-0.02,1.35-0.04c1.52-0.05,3.19-0.13,4.97-0.24c5.2-0.3,9.77,3.43,10.5,8.59    c3.87,27.62,13.93,95.95,23.61,134c0,0.02,0.01,0.04,0.01,0.06l0.38,1.48c0,0.01,0.02,0.09,0.03,0.1l0.36,1.36    c0,0.02,0.04,0.13,0.04,0.15l3.42,11.44l2.32,5.82c1.78,0.15,3.8,0.33,6.09,0.54l6.95,0.62c1.89,0.16,3.94,0.34,6.13,0.52    l4.92,0.39c1.14,0.09,2.31,0.18,3.51,0.26l2.18,0.16c1.21,0.08,2.44,0.17,3.71,0.26c2.08,0.14,4.26,0.28,6.54,0.42l2.25,0.13    c1.53,0.09,3.09,0.18,4.69,0.27l2.43,0.13c1.65,0.09,3.34,0.17,5.06,0.25c1.73,0.08,3.5,0.16,5.32,0.24    c4.76,0.21,9.62,0.39,14.44,0.54l0.27,0.01C217.13,456.23,217.15,456.23,217.17,456.23z M143.68,453.34    C143.68,453.35,143.69,453.35,143.68,453.34C143.68,453.35,143.68,453.34,143.68,453.34z M32.56,187.27L32.56,187.27L32.56,187.27    z M184.73,192.83c-1.45,0-2.89-0.32-4.22-0.93c-27.24-12.67-44.02-27.7-49.89-44.65c-7.5-21.66-3.67-35.4,0.86-43.11    c1.41-2.41,3.77-4.11,6.49-4.71c2.72-0.59,5.58-0.02,7.86,1.58c20.73,14.5,53.39,31.19,69.99,32.88c4.72,0.48,8.45,4.21,8.94,8.92    c0.34,3.31,0.98,6.87,1.89,10.6l0,0c0.11,0.45,0.22,0.9,0.34,1.35l2.29,7.68l1.06,3.02c0,0.01,0.04,0.1,0.04,0.1l4.45,10.8    c0.01,0.01,0.05,0.1,0.05,0.12l0.05,0.12c1.4,3.05,1.17,6.61-0.61,9.46c-1.78,2.85-4.87,4.62-8.23,4.71l-3.23,0.09    c-1.93,0.06-3.83,0.12-5.71,0.19c-10.81,0.39-21.46,0.99-31.66,1.77C185.24,192.82,184.99,192.83,184.73,192.83z M146.39,125.25    c0.11,4.52,1.16,9.74,3.14,15.45c3.83,11.06,16.63,22.08,37.1,31.96c7.98-0.58,16.2-1.05,24.54-1.41l-2.6-8.05l-0.94-3.43    c-0.14-0.53-0.28-1.08-0.41-1.63c0,0,0,0,0,0c-0.47-1.93-0.88-3.83-1.24-5.7C187.47,148.2,163.85,136.05,146.39,125.25z     M327.94,192.51c-0.18,0-0.36,0-0.54-0.01c-8.85-0.48-18.26-0.88-27.97-1.2c-0.01,0-0.09,0-0.1,0c-1.92-0.06-3.84-0.12-5.79-0.18    c-3.25-0.1-6.26-1.77-8.05-4.49c-1.79-2.72-2.15-6.14-0.96-9.17l0.08-0.2c0.31-0.78,0.61-1.57,0.89-2.35l0.24-0.64    c0.34-0.94,0.67-1.88,0.98-2.82l0.22-0.67c0.24-0.73,0.47-1.47,0.69-2.21l0.22-0.75c0.27-0.92,0.52-1.83,0.75-2.72l0.04-0.17    c0.21-0.83,0.41-1.66,0.6-2.49l0.16-0.74c0.15-0.7,0.3-1.4,0.43-2.1l0.1-0.52c0.15-0.82,0.29-1.65,0.41-2.47l0.08-0.6    c0.09-0.64,0.17-1.28,0.24-1.91l0.07-0.64c0.08-0.79,0.15-1.57,0.21-2.33l0.01-0.25c0.04-0.68,0.07-1.35,0.09-2.02l0.01-0.63    c0.01-0.62,0.02-1.22,0.01-1.82l0-0.31c-0.01-0.76-0.04-1.46-0.08-2.14c0-0.07-0.01-0.16-0.01-0.24    c-0.22-4.98,3.27-9.37,8.19-10.27c18.12-3.31,48.05-19.19,67.01-32.45c2.29-1.6,5.14-2.17,7.86-1.58c2.73,0.59,5.08,2.3,6.49,4.71    c4.53,7.71,8.35,21.45,0.86,43.11c-5.82,16.81-22.37,31.72-49.19,44.33C330.86,192.19,329.4,192.51,327.94,192.51z M307.55,171.57    c6.31,0.24,12.45,0.51,18.37,0.82c20.15-9.81,32.77-20.74,36.56-31.7c1.98-5.71,3.03-10.94,3.14-15.46    c-15.75,9.71-36.97,20.82-54.65,25.92c-0.02,0.33-0.04,0.66-0.06,1l-0.02,0.29c-0.07,1.05-0.16,2.06-0.27,3.08l-0.09,0.82    c-0.09,0.82-0.2,1.64-0.31,2.46l-0.11,0.78c-0.15,1.02-0.32,2.06-0.52,3.11l-0.12,0.62c-0.17,0.88-0.35,1.75-0.54,2.63l-0.2,0.9    c-0.23,1.02-0.47,2.03-0.74,3.06l-0.05,0.19C307.82,170.59,307.69,171.08,307.55,171.57z"/></g><g><g><g><path class="st1" d="M412.43,158.68c0,0,25.71,7.71,46.93,0c21.21-7.71,22.5-6.43,22.5,0s5.79,50.14-34.71,52.71      s-82.29-12.86-82.29-12.86l7.05-12.68 M99.57,158.68c0,0-25.71,7.71-46.93,0c-21.21-7.71-22.5-6.43-22.5,0      s-5.79,50.14,34.71,52.71s82.29-12.86,82.29-12.86l-7.05-12.68"/></g><g><path class="st2" d="M481.86,158.68c0,6.43,5.79,50.14-34.71,52.71s-82.29-12.86-82.29-12.86l7.05-12.68l21.82-14.63      c2.14,6.04,6.66,11.19,13.29,12.21c27.94,4.32,53.86-9.43,74.67-27.38C481.83,156.79,481.86,157.67,481.86,158.68z       M140.09,185.86l-40.52-27.18c0,0-4.18,1.25-10.54,2.24c-2.69,16.95-16.59,27.92-34.05,28.97c-8.03,0.48-16.06-1.32-23.1-4.98      c3.33,12.6,11.86,25.14,32.98,26.48c40.5,2.57,82.29-12.86,82.29-12.86L140.09,185.86z"/></g></g><g><g><path class="st1" d="M426.57,102.9c0,0,8.58,31.82-10.29,58.99c-18.87,27.17-38.57,32.79-42.43,32.79s-58.74-3.86-64.29-3.86      c-5.55,0,51.43-15.28,62.36-46.85c10.93-31.58-5.79-41.07-5.79-41.07L388,82.82 M85.43,102.9c0,0-8.58,31.82,10.29,58.99      s38.57,32.79,42.43,32.79c3.86,0,58.74-3.86,64.29-3.86s-51.43-15.28-62.36-46.85s5.79-41.07,5.79-41.07L124,82.82"/></g><g><path class="st2" d="M426.57,102.9c0,0,8.58,31.82-10.29,58.99c-18.87,27.17-38.57,32.79-42.43,32.79s-58.74-3.86-64.29-3.86      c-5.55,0,51.43-15.28,62.36-46.85c10.93-31.58-5.79-41.07-5.79-41.07L388,82.82 M85.43,102.9c0,0-8.58,31.82,10.29,58.99      s38.57,32.79,42.43,32.79c3.86,0,58.74-3.86,64.29-3.86s-51.43-15.28-62.36-46.85s5.79-41.07,5.79-41.07L124,82.82"/></g></g><g><path class="st1" d="M283.86,120.75c0,0,20.57-18,35.36-43.71c14.79-25.71,36-43.71,70.07-23.14s37.29,49.01,37.29,49.01     s-27.64-15.28-46.29,0s-66.86,42.43-88.07,41.07 M228.14,120.75c0,0-20.57-18-35.36-43.71c-14.79-25.71-36-43.71-70.07-23.14     S85.43,102.9,85.43,102.9s27.64-15.28,46.29,0s66.86,42.43,88.07,41.07"/></g><g><g><path class="st1" d="M227.93,185.04c0,0-37.29-70.07,12.21-80.36s75.86,25.07,52.07,80.36"/></g><g><path class="st2" d="M277.4,106.91c1.48,3.02,2.11,6.36,1.98,9.78c2.09,7.9,2,16.39-0.63,24.05      c-5.63,16.39-21.1,27.28-38.61,24.93c-8.35-1.12-16.68-4.59-23.22-9.97c3.89,15.94,11.01,29.33,11.01,29.33h64.29      C308.94,146.16,300.87,117.14,277.4,106.91z"/></g></g><g><g><path class="st3" d="M100.64,284.68c0,0,23.14,175.57,37.61,176.5c14.46,0.93,56.89,6.71,154.29,5.75s110.89-7.08,115.71-16.56      c4.82-9.48,15.43-175.34,15.43-175.34l-110.89-29.89"/></g><g><path class="st54" d="M387.75,265.35c3.54,23.32,3.02,47.63-5.38,69.75c-9.9,26.07-27.69,46.69-50.84,62.05      c-26.66,17.69-58.11,30.14-89.46,36.3c-38.77,7.61-77.92,6.11-116.11-1.46c4.31,17.26,8.58,28.96,12.29,29.19      c14.46,0.93,56.89,6.71,154.29,5.75c97.39-0.96,110.89-7.08,115.71-16.56c4.82-9.48,15.43-175.34,15.43-175.34L387.75,265.35z"/></g></g><g><g><path class="st3" d="M84.25,200.79c0,0,53.04-22.18,183.21-20.25s176.46,15.43,180.32,26.04c3.86,10.61-1.93,85.32-14.46,85.57      c-12.54,0.25-80.04-12.29-179.36-6.5S89.07,303,84.25,297.21C79.43,291.43,65.26,206.57,84.25,200.79z"/></g><g><path class="st54" d="M447.79,206.57c-2.28-6.26-19.36-13.54-59.77-18.84c2.12,16.39-9.96,39.45-84,51.87      c-97.78,16.41-176.32,10.03-228.32,13.82c2,21.1,6.29,41.08,8.55,43.79c4.82,5.79,70.39-5.79,169.71-11.57      c99.32-5.79,166.82,6.75,179.36,6.5C445.86,291.9,451.64,217.18,447.79,206.57z"/></g></g><g><g><path class="st1" d="M304.02,181.45c-11.38-0.41-23.54-0.72-36.56-0.91c-18.41-0.27-35.28-0.06-50.68,0.5v285.18      c20.47,0.66,45.45,1.01,75.75,0.71c3.97-0.04,7.79-0.09,11.48-0.14V181.45z"/></g><g><path class="st2" d="M272.54,180.62c2.79,43.86,13.87,232.17-0.59,245.05c-12.03,10.72-40.76,12.26-55.16,12.32v28.23      c20.47,0.66,45.45,1.01,75.75,0.71c3.97-0.04,7.79-0.09,11.48-0.14V181.45C294.14,181.09,283.66,180.81,272.54,180.62z"/></g></g><g><path class="st6" d="M219.57,153.36c0,0-15.73-34.17,8.57-42.26s41.57,0,41.57,0s-26.36-3.21-37.29,10.93     S219.57,153.36,219.57,153.36z M351.36,57.75c23.34-12.06,55.93,18.64,55.93,18.64s-20.2-23.79-42.43-27.64     c-22.23-3.86-32.76,10.41-41.14,30.21s-28.29,36-28.29,36C323.07,114.97,328.01,69.81,351.36,57.75z M417.57,172.18     c43.07,10.93,44.36-13.5,44.36-13.5c-23.79,12.21-38.43,4.5-38.43,4.5 M164.29,75.75c17.36,26.36,45.64,31.77,45.64,31.77     c-29.57-15.81-35.36-61.34-70.71-54.91S89.51,94.49,89.51,94.49C102.8,72.08,146.93,49.39,164.29,75.75z M75.7,166.84     c0,0-31.12-4.32-38.06-8.16c-6.94-3.84,0,23.84,0,23.84s1.29-15.24,8.36-15.69 M269.71,183.87l-47.57,1.31v246.07     c0,0,2.62-219.94,14.14-233.36S269.71,183.87,269.71,183.87z M207.36,185.18c-0.11-3.75-105.91,11.09-118.86,21.71     s-5.02,43.07-5.02,43.07s0.45-23.14,21.02-35.36C125.07,202.39,207.36,185.18,207.36,185.18z M209.93,292.14     c0,0-79.71,6.68-101.57,11.18c0,0,10.93,96.43,21.86,120.21c0,0-16.07-92.57-1.29-107.36S209.93,292.14,209.93,292.14z"/></g><g class="st43"><path class="st6" d="M424.64,280.68c-12.25,0-12.23-19,0-19C436.89,261.68,436.87,280.68,424.64,280.68z M434.29,242.82     c-2.57,0-2.58,4,0,4C436.86,246.82,436.86,242.82,434.29,242.82z M388,430.75c-12.23,0-12.25,19,0,19     C400.23,449.75,400.25,430.75,388,430.75z M399.57,411.39c-3.22,0-3.22,5,0,5C402.79,416.39,402.79,411.39,399.57,411.39z      M94.21,279.39c-5.15,0-5.16,8,0,8C99.36,287.39,99.37,279.39,94.21,279.39z"/></g><g><path class="st6" d="M115.43,237.61c-12.25,0-12.23-19,0-19C127.68,218.61,127.65,237.61,115.43,237.61z M132.14,215.11     c-5.15,0-5.16,8,0,8C137.29,223.11,137.3,215.11,132.14,215.11z M141.14,323.11c-5.15,0-5.16,8,0,8     C146.29,331.11,146.3,323.11,141.14,323.11z M249.3,127.11c-0.36-1.27-1-2.37-1.93-3.31c-0.51-0.39-1.01-0.78-1.52-1.17     c-1.17-0.68-2.43-1.02-3.79-1.02h-0.64c-1.03-0.04-2,0.18-2.89,0.65c-0.93,0.3-1.73,0.82-2.41,1.55     c-0.73,0.68-1.25,1.48-1.55,2.41c-0.47,0.89-0.68,1.86-0.65,2.89c0.09,0.66,0.18,1.33,0.27,1.99c0.36,1.27,1,2.37,1.93,3.31     c0.51,0.39,1.01,0.78,1.52,1.17c1.17,0.68,2.43,1.02,3.79,1.02h0.64c1.03,0.04,2-0.18,2.89-0.65c0.93-0.3,1.73-0.82,2.41-1.55     c0.73-0.68,1.25-1.48,1.55-2.41c0.47-0.89,0.68-1.86,0.65-2.89C249.48,128.44,249.39,127.78,249.3,127.11z M232.43,139.96     c-2.57,0-2.58,4,0,4C235,143.96,235.01,139.96,232.43,139.96z M134.88,78.03c-0.17-0.59-0.47-1.11-0.9-1.54     c-0.21-0.21-0.43-0.43-0.64-0.64c-0.32-0.34-0.69-0.58-1.13-0.72c-0.42-0.22-0.87-0.32-1.35-0.3c-0.48-0.02-0.93,0.08-1.35,0.3     c-0.43,0.14-0.81,0.38-1.13,0.72c-0.18,0.24-0.36,0.47-0.55,0.71c-0.32,0.55-0.48,1.13-0.48,1.77c0.04,0.31,0.08,0.62,0.12,0.93     c0.17,0.59,0.47,1.11,0.9,1.54c0.21,0.21,0.43,0.43,0.64,0.64c0.32,0.34,0.69,0.58,1.13,0.72c0.42,0.22,0.87,0.32,1.35,0.3     c0.48,0.02,0.93-0.08,1.35-0.3c0.43-0.14,0.81-0.38,1.13-0.72c0.18-0.24,0.36-0.47,0.55-0.71c0.32-0.55,0.48-1.13,0.48-1.77     C134.96,78.65,134.92,78.34,134.88,78.03z"/></g></g></g></svg>