<?xml version="1.0" ?><svg xmlns="http://www.w3.org/2000/svg" xmlns:xlink="http://www.w3.org/1999/xlink" version="1.1" viewBox="0 0 512 512" style="enable-background:new 0 0 512 512;" xml:space="preserve"><style type="text/css">
	.st0{fill:#231A15;}
	.st1{fill:#FFE000;}
	.st2{fill:#BCA100;}
	.st3{fill:#FC0000;}
	.st4{fill:#AA0000;}
	.st5{fill:#F94343;}
	.st6{fill:#FFFFFF;}
	.st7{fill:#A58E07;}
	.st8{opacity:0.44;}
	.st9{fill:#756204;}
	.st10{opacity:0.64;}
	.st11{opacity:0.38;}
	.st12{fill:#5D5004;}
	.st13{fill:#B7A100;}
	.st14{fill:#1D4DFC;}
	.st15{fill:#143CAF;}
	.st16{opacity:0.59;}
	.st17{opacity:0.52;}
	.st18{fill:#FF7F1F;}
	.st19{fill:#C4570C;}
	.st20{fill:#B29904;}
	.st21{fill:#87720A;}
	.st22{fill:#DDDDDD;}
	.st23{opacity:0.51;}
	.st24{fill:#878787;}
	.st25{fill:#727272;}
	.st26{opacity:0.33;}
	.st27{opacity:0.46;}
	.st28{fill:#25CBF2;}
	.st29{fill:#0A8FA5;}
	.st30{opacity:0.58;}
	.st31{fill:#04889E;}
	.st32{fill:#035A63;}
	.st33{opacity:0.65;}
	.st34{opacity:0.39;}
	.st35{fill:#AB0000;}
	.st36{fill:#1987A1;}
	.st37{fill:#3F1F0A;}
	.st38{fill:#4DEEFF;}
	.st39{fill:#21B9C1;}
	.st40{fill:#BBF9FF;}
	.st41{fill:#64ACAF;}
	.st42{fill:#089FB7;}
	.st43{opacity:0.47;}
	.st44{opacity:0.42;}
	.st45{fill:#DBF7FC;}
	.st46{fill:#B2E7ED;}
	.st47{fill:#0FA2BA;}
	.st48{opacity:0.54;}
	.st49{fill:#8E7716;}
	.st50{fill:#191401;}
	.st51{fill:#382E02;}
	.st52{fill:#605106;}
	.st53{fill:#AFACA0;}
	.st54{fill:#BC0404;}
	.st55{fill:#750000;}
	.st56{fill:#A08B0D;}
	.st57{fill:#5B4C05;}
	.st58{opacity:0.4;}
	.st59{opacity:0.5;}
	.st60{fill:#FF8383;}
	.st61{fill:#FFF0A6;}
	.st62{fill:#E2C227;}
	.st63{fill:#AA9205;}
	.st64{fill:#FFEA71;}
	.st65{opacity:0.22;}
	.st66{fill:#B19B00;}
	.st67{fill:#1989A4;}
	.st68{fill:#13A0B7;}
	.st69{fill:#C4A805;}
	.st70{fill:#FFF3A9;}
	.st71{fill:#846E03;}
	.st72{fill:#2D2502;}
	.st73{opacity:0.36;}
	.st74{fill:#4DD307;}
	.st75{fill:#328402;}
	.st76{fill:#97FF5A;}
	.st77{fill:#7A6500;}
	.st78{fill:#246001;}
	.st79{fill:#359100;}
	.st80{fill:#968022;}
	.st81{fill:#4F420B;}
	.st82{fill:#FFED83;}
	.st83{fill:#BAA335;}
	.st84{fill:#8D0991;}
	.st85{fill:#4B044F;}
	.st86{fill:#CE15CE;}
	.st87{fill:#897502;}
	.st88{fill:#493D01;}
	.st89{fill:#C9C9C9;}
	.st90{fill:#2D280E;}
	.st91{fill:#378C06;}
	.st92{fill:#183A03;}
	.st93{fill:#94FF55;}
	.st94{fill:#2E7F04;}
	.st95{fill:#63AB39;}
	.st96{fill:#AA5F04;}
	.st97{fill:#633502;}
	.st98{fill:#EF9014;}
	.st99{fill:#A05A07;}
	.st100{fill:#05616B;}
	.st101{fill:#033335;}
	.st102{fill:#0E94AA;}
	.st103{fill:#035D66;}
	.st104{opacity:0.27;}
	.st105{opacity:0.43;}
	.st106{fill:#FFF203;}
	.st107{fill:#FFA300;}
	.st108{fill:#2B3030;}
	.st109{opacity:0.28;}
	.st110{fill:#FCD17A;}
	.st111{fill:#AF853A;}
	.st112{opacity:0.31;}
	.st113{fill:#B641FF;}
	.st114{fill:#700FBC;}
	.st115{fill:#F2D0B1;}
	.st116{fill:#AF835F;}
	.st117{fill:#C17540;}
	.st118{fill:#F2BA94;}
	.st119{fill:#592909;}
	.st120{fill:#2B1204;}
	.st121{fill:#894818;}
	.st122{fill:#512609;}
	.st123{fill:#FF7F15;}
	.st124{fill:#A04A0A;}
	.st125{fill:#B7865E;}
	.st126{fill:#70350E;}
	.st127{fill:#3A1805;}
	.st128{fill:#C1521B;}
	.st129{fill:#FFC7AE;}
	.st130{fill:#FF717F;}
	.st131{fill:#6E2F0F;}
	.st132{fill:#AC8675;}
	.st133{opacity:0.25;}
	.st134{opacity:0.32;}
	.st135{fill:#FFFCC5;}
	.st136{fill:#D1CA78;}
	.st137{fill:#D37733;}
	.st138{fill:#A04F18;}
	.st139{fill:#0ABFBA;}
	.st140{fill:#057F79;}
	.st141{fill:#15F9F9;}
	.st142{fill:#09B2AD;}
	.st143{fill:#B2B2B2;}
	.st144{fill:#FFF755;}
	.st145{fill:#BCB121;}
	.st146{fill:#F90368;}
	.st147{opacity:0.49;}
	.st148{fill:#B50857;}
	.st149{fill:#FF76B4;}
	.st150{fill:#F23091;}
	.st151{fill:#FFF800;}
	.st152{fill:#C9BF05;}
	.st153{fill:#FF8500;}
	.st154{fill:#A35507;}
	.st155{fill:#AA6E50;}
	.st156{fill:#723C25;}
	.st157{fill:#EAD4B9;}
	.st158{fill:#AA8D6F;}
	.st159{fill:#B7A8A5;}
	.st160{fill:#84726F;}
	.st161{fill:#77645F;}
	.st162{fill:#51403C;}
	.st163{fill:#EABBA7;}
	.st164{fill:#BC7F69;}
	.st165{fill:#7C5039;}
	.st166{fill:#442619;}
	.st167{fill:#B7AE04;}
	.st168{fill:#BAB108;}
	.st169{fill:#7A7105;}
	.st170{fill:#352B23;}
	.st171{fill:#050403;}
	.st172{fill:#706255;}
	.st173{fill:#44382E;}
	.st174{fill:#634319;}
	.st175{fill:#35210A;}
	.st176{fill:#2D1C08;}
	.st177{fill:#0A0601;}
	.st178{fill:#9E7443;}
	.st179{fill:#704D2A;}
	.st180{fill:#D8A73A;}
	.st181{fill:#A0741C;}
	.st182{fill:#3F2F28;}
	.st183{fill:#211410;}
	.st184{fill:#FF326C;}
	.st185{fill:#BC0749;}
	.st186{fill:#68390E;}
	.st187{fill:#A5632D;}
	.st188{fill:#3D1E05;}
	.st189{fill:#331A06;}
	.st190{fill:#110801;}
	.st191{fill:#160A02;}
	.st192{fill:#663514;}
	.st193{opacity:0.29;}
	.st194{fill:#FC001F;}
	.st195{fill:#AF021F;}
	.st196{fill:#C48622;}
	.st197{fill:#8C5910;}
	.st198{fill:#846D64;}
	.st199{fill:#513B35;}
	.st200{fill:#5B4842;}
	.st201{fill:#332522;}
	.st202{fill:#47332C;}
	.st203{fill:#543E38;}
	.st204{fill:#1E1412;}
	.st205{fill:#604C43;}
	.st206{fill:#D3896C;}
	.st207{fill:#FF001F;}
	.st208{fill:#AF0824;}
	.st209{fill:#A37462;}
	.st210{fill:#5E3E34;}
	.st211{fill:#874A38;}
	.st212{fill:#4C2218;}
	.st213{fill:#5B2B20;}
	.st214{fill:#210C09;}
	.st215{fill:#99001A;}
	.st216{fill:#A08A07;}
	.st217{fill:#A08904;}
	.st218{fill:#5B4C02;}
	.st219{fill:#CECAB7;}
	.st220{fill:#727068;}
	.st221{fill:#42403A;}
	.st222{fill:#B2B0A6;}
	.st223{fill:#726F62;}
	.st224{fill:#6B4F45;}
	.st225{fill:#3A261F;}
	.st226{fill:#777468;}
	.st227{fill:#474436;}
	.st228{fill:#B78B7D;}
	.st229{fill:#845A4E;}
	.st230{fill:#3A372D;}
	.st231{fill:#43CFFF;}
	.st232{fill:#13A0BC;}
</style><g id="_x30_1"><g><path class="st0" d="M260.17,492.51c-18.93,0-38.17-1.03-57.2-3.07c-51.99-5.57-86.71-16.61-88.17-17.08    c-4.83-1.55-8.77-4.89-11.09-9.41s-2.74-9.66-1.19-14.49s4.89-8.77,9.41-11.09c2.33-1.2,4.82-1.89,7.36-2.06v-21.59    c-2.69-0.78-4.23-1.27-4.5-1.35c-4.83-1.55-8.77-4.89-11.08-9.41s-2.74-9.66-1.19-14.49c0.47-1.47,1.11-2.85,1.89-4.14    l-10.75-7.59c-2.66-1.87-4.23-4.92-4.23-8.17v-5.07c-2.33-2.27-5.27-5.31-8.54-9.1c-0.12,0.02-0.23,0.03-0.35,0.05    c-0.17,0.03-0.4,0.06-0.65,0.08c-1.54,0.15-2.91,0.13-4.45-0.04c-0.25-0.03-0.5-0.07-0.74-0.11c-0.58-0.09-1.11-0.19-1.64-0.32    c-0.29-0.07-0.56-0.14-0.82-0.22c-0.53-0.15-1.06-0.33-1.58-0.53c-0.23-0.08-0.46-0.18-0.69-0.28c-0.66-0.28-1.27-0.59-1.85-0.92    c-0.08-0.05-0.16-0.09-0.24-0.14c-0.64-0.38-1.26-0.81-1.89-1.3c-0.18-0.14-0.37-0.3-0.57-0.47c-0.4-0.34-0.78-0.69-1.14-1.05    c-0.18-0.18-0.36-0.37-0.53-0.56c-0.34-0.37-0.68-0.77-0.99-1.19c-0.11-0.14-0.26-0.33-0.4-0.52c-0.39-0.54-0.74-1.09-1.06-1.65    c-0.03-0.05-0.06-0.11-0.09-0.16c-0.3-0.53-0.6-1.14-0.89-1.81c-0.09-0.2-0.16-0.39-0.23-0.58c-0.16-0.41-0.33-0.87-0.48-1.35    c-0.07-0.23-0.13-0.42-0.18-0.62c-0.13-0.46-0.24-0.93-0.34-1.4c-0.04-0.18-0.08-0.36-0.11-0.54c-0.23-1.28-0.34-2.6-0.32-3.91    c0-0.19,0.01-0.38,0.02-0.57c0.01-0.41,0.05-0.9,0.1-1.4c0.02-0.21,0.04-0.39,0.07-0.57c0.07-0.51,0.15-0.99,0.25-1.47    c0.03-0.17,0.07-0.35,0.12-0.54c0.4-1.69,0.99-3.29,1.77-4.76c-2.97-5.46-5.66-11.12-8.04-16.92c-0.06-0.01-0.12-0.02-0.19-0.03    c-0.17-0.03-0.32-0.06-0.47-0.09c-0.67-0.15-1.26-0.3-1.83-0.49c-0.12-0.04-0.26-0.09-0.39-0.13c-0.47-0.16-0.92-0.34-1.37-0.54    c-0.17-0.07-0.34-0.15-0.51-0.23c-0.41-0.19-0.82-0.41-1.22-0.63c-0.14-0.08-0.27-0.15-0.39-0.23c-0.55-0.33-1.06-0.67-1.53-1.03    c-0.11-0.08-0.27-0.21-0.38-0.3c-0.36-0.29-0.68-0.56-0.99-0.85c-0.1-0.1-0.26-0.24-0.4-0.38c-0.29-0.29-0.58-0.59-0.86-0.9    c-0.1-0.11-0.2-0.22-0.29-0.33c-0.38-0.44-0.71-0.88-1.03-1.32c-0.11-0.16-0.21-0.31-0.31-0.46c-0.2-0.3-0.4-0.61-0.58-0.93    c-0.12-0.21-0.23-0.4-0.33-0.59c-0.15-0.27-0.31-0.6-0.47-0.93c-0.1-0.22-0.21-0.45-0.31-0.68c-0.16-0.38-0.31-0.74-0.44-1.12    c-0.08-0.21-0.15-0.44-0.22-0.66c-0.1-0.31-0.16-0.53-0.23-0.76c-0.08-0.28-0.14-0.54-0.2-0.79c-0.05-0.2-0.08-0.38-0.12-0.55    c-0.12-0.6-0.21-1.17-0.28-1.74c-0.01-0.11-0.03-0.25-0.04-0.39c-0.03-0.32-0.06-0.65-0.07-0.99l-0.02-0.41    c-0.05-1.57,0.08-3.18,0.39-4.74c0.01-0.03,0.01-0.06,0.02-0.08c0.62-3.04,1.92-5.9,3.78-8.26c0.01-0.01,0.02-0.02,0.03-0.03    c0.45-0.56,0.92-1.1,1.42-1.6c-1.57-8.16-2.54-16.31-2.91-24.38c-0.36-0.18-0.7-0.36-1.03-0.55c-0.16-0.1-0.33-0.2-0.49-0.3    c-0.38-0.23-0.73-0.47-1.07-0.72c-0.18-0.13-0.33-0.24-0.49-0.36c-0.35-0.27-0.67-0.54-0.98-0.83c-0.14-0.12-0.27-0.24-0.4-0.36    c-0.41-0.39-0.82-0.82-1.2-1.26c-0.11-0.12-0.23-0.28-0.36-0.44c-0.26-0.31-0.49-0.62-0.72-0.94c-0.12-0.16-0.23-0.33-0.34-0.5    c-0.2-0.31-0.39-0.61-0.57-0.91c-0.13-0.22-0.22-0.37-0.3-0.53c-0.21-0.38-0.4-0.76-0.57-1.14c-0.07-0.15-0.13-0.28-0.19-0.41    c-0.21-0.47-0.38-0.91-0.53-1.35c-0.07-0.19-0.13-0.39-0.2-0.59c-0.11-0.34-0.19-0.62-0.27-0.9c-0.07-0.26-0.13-0.49-0.18-0.72    c-0.06-0.28-0.12-0.55-0.17-0.81c-0.05-0.25-0.09-0.49-0.13-0.73c-0.04-0.23-0.06-0.47-0.09-0.71c-0.06-0.55-0.1-1.05-0.12-1.55    c-0.01-0.24-0.02-0.42-0.02-0.59c0-0.31,0-0.62,0.01-0.93c0.01-0.19,0.01-0.36,0.02-0.54c0.02-0.31,0.04-0.64,0.07-0.96    c0.02-0.16,0.04-0.31,0.06-0.47c0.14-1.14,0.39-2.31,0.73-3.43c0.01-0.04,0.05-0.16,0.09-0.28c0.11-0.35,0.24-0.71,0.37-1.06    l0.12-0.31c0.16-0.4,0.32-0.76,0.48-1.11c0.02-0.04,0.04-0.08,0.06-0.12c0.02-0.03,0.03-0.07,0.05-0.11    c0.56-1.16,1.27-2.29,2.08-3.33c0.05-0.06,0.13-0.16,0.21-0.26c0.25-0.31,0.52-0.62,0.8-0.93l0.22-0.24    c0.34-0.36,0.65-0.66,0.97-0.95c1.97-1.78,4.25-3.08,6.74-3.87c1.87-9.08,4.65-17.57,8.31-25.38c-0.01-0.01-0.01-0.02-0.02-0.03    c-0.22-0.33-0.44-0.68-0.65-1.03c-0.04-0.07-0.12-0.2-0.2-0.34c-0.27-0.49-0.5-0.94-0.71-1.41c-0.07-0.16-0.15-0.33-0.22-0.5    c-0.13-0.3-0.26-0.65-0.39-1c-0.05-0.15-0.12-0.34-0.19-0.53c-0.12-0.36-0.22-0.72-0.32-1.08c-0.06-0.21-0.11-0.43-0.17-0.66    c-0.08-0.36-0.16-0.74-0.23-1.12c-0.04-0.21-0.07-0.45-0.11-0.69c-0.03-0.24-0.07-0.51-0.1-0.79c-0.02-0.24-0.05-0.46-0.06-0.69    c-0.03-0.37-0.04-0.75-0.05-1.13c0-0.3,0-0.6,0.01-0.9c0.01-0.24,0.02-0.48,0.03-0.72c0.02-0.27,0.04-0.53,0.07-0.8    c0.02-0.23,0.05-0.44,0.08-0.65c0.06-0.49,0.15-0.96,0.24-1.43c0.04-0.21,0.08-0.41,0.13-0.61c0.07-0.28,0.14-0.57,0.22-0.85    c0.05-0.19,0.11-0.39,0.17-0.58c0.08-0.25,0.18-0.55,0.28-0.84c0.05-0.14,0.12-0.32,0.19-0.49c0.21-0.54,0.44-1.05,0.69-1.55    c0.09-0.19,0.17-0.35,0.25-0.5c0.16-0.29,0.31-0.57,0.47-0.84c0.11-0.18,0.23-0.37,0.34-0.55c0.17-0.26,0.34-0.52,0.53-0.78    c3.52-4.9,9.16-7.72,15.45-7.72c2.18,0,4.29,0.33,6.28,0.98c9.01-7.98,19.65-14.04,31.72-18.05c1.18-0.39,2.38-0.78,3.59-1.15    c0.68-3.84,2.43-7.4,5.06-10.15c3.52-3.68,8.42-5.71,13.79-5.71c2.36,0,4.64,0.39,6.78,1.17c3.94,1.42,7.19,4.07,9.4,7.65    c0.05,0.09,0.11,0.17,0.16,0.26c21.78-1.44,41.81,2.76,57.17,12.11c1.29-1.08,2.68-1.98,4.17-2.69c0.01-0.01,0.03-0.01,0.04-0.02    h0c2.77-1.31,5.82-1.98,9.06-1.98c2.87,0,5.59,0.52,8.06,1.53c4.78-3.02,10.03-5.34,15.6-6.91l-0.17-16.77    c-1.9-1.36-3.63-2.94-5.16-4.7l-14.41,0.14l-7.69,7.5c-7.11,6.93-18.52,6.78-25.45-0.32c-0.48-0.49-0.92-1.01-1.38-1.59    c-0.03-0.03-0.05-0.07-0.08-0.1c-0.03-0.04-0.07-0.09-0.1-0.14c-5.36-7.18-4.57-17.32,1.88-23.61l0.55-0.54l-1.44-1.62    c-0.46-0.52-0.89-1.06-1.31-1.66c-0.12-0.17-0.24-0.36-0.36-0.55c-0.26-0.39-0.51-0.83-0.75-1.27c-0.08-0.15-0.19-0.35-0.29-0.55    c-0.23-0.47-0.43-0.93-0.61-1.39c-0.07-0.18-0.14-0.35-0.2-0.52c-0.23-0.65-0.43-1.33-0.58-1.99c-1.46-6.42,0.68-13.11,5.59-17.47    c7.42-6.59,18.82-5.92,25.41,1.49l6.76,7.6l12.61,0.12c1.81-2.57,4.01-4.85,6.52-6.74l-0.13-13.38l-7.5-7.69    c-0.39-0.4-0.79-0.85-1.16-1.31c-0.18-0.22-0.33-0.43-0.48-0.64c-0.18-0.24-0.36-0.5-0.54-0.76c-0.15-0.23-0.3-0.48-0.45-0.73    c0-0.01-0.06-0.1-0.06-0.11c-0.12-0.2-0.24-0.41-0.35-0.62c-0.16-0.31-0.32-0.64-0.47-0.96c-0.09-0.2-0.17-0.38-0.25-0.56    c-0.13-0.32-0.28-0.71-0.41-1.1l-0.11-0.33c-0.14-0.46-0.26-0.9-0.37-1.34c-0.01-0.04-0.04-0.18-0.05-0.22    c-0.1-0.45-0.19-0.93-0.25-1.42c0-0.02-0.01-0.05-0.01-0.07l0,0c-0.29-2.2-0.18-4.4,0.33-6.55c0.13-0.56,0.29-1.11,0.47-1.63    c0.91-2.67,2.45-5.13,4.47-7.09c7.1-6.93,18.52-6.78,25.45,0.32l0.54,0.55l1.62-1.44c7.42-6.59,18.82-5.92,25.41,1.49    c3,3.38,4.61,7.73,4.54,12.25c0,0.15,0,0.3-0.01,0.45c-0.01,0.33-0.04,0.73-0.08,1.12c-0.01,0.12-0.03,0.28-0.05,0.43    c-0.06,0.42-0.11,0.76-0.18,1.1c-0.04,0.21-0.08,0.43-0.13,0.64c-0.07,0.3-0.15,0.62-0.24,0.93c-0.06,0.22-0.13,0.45-0.21,0.69    c-0.1,0.29-0.2,0.57-0.3,0.85c-0.09,0.24-0.19,0.48-0.3,0.72c-0.13,0.3-0.25,0.55-0.37,0.8c-0.12,0.25-0.27,0.51-0.41,0.77    c-0.15,0.27-0.27,0.48-0.4,0.69c-0.17,0.27-0.34,0.53-0.52,0.78c-0.16,0.23-0.29,0.42-0.44,0.61c-0.22,0.28-0.44,0.56-0.68,0.83    c-0.15,0.18-0.29,0.35-0.45,0.51c-0.4,0.43-0.82,0.85-1.25,1.23l-8.34,7.42l0.13,13.07c2.37,1.83,4.43,4,6.14,6.45l14.51-0.14    l6.76-7.6c6.59-7.42,17.99-8.09,25.41-1.5c0.91,0.81,1.73,1.71,2.46,2.67c0.33,0.45,0.64,0.9,0.94,1.4    c0.11,0.17,0.21,0.35,0.31,0.54c0.18,0.32,0.34,0.61,0.48,0.91c0.1,0.21,0.19,0.39,0.27,0.58c0.15,0.34,0.28,0.65,0.4,0.96    c0.08,0.21,0.16,0.43,0.23,0.65c0.1,0.3,0.2,0.61,0.29,0.93c0.06,0.21,0.12,0.44,0.17,0.67c0.07,0.29,0.14,0.62,0.2,0.96    c0.04,0.22,0.08,0.42,0.1,0.63c0.05,0.32,0.08,0.66,0.11,1c0.02,0.22,0.04,0.43,0.05,0.64c0.03,0.52,0.03,1.05,0.01,1.58    c-0.02,0.53-0.06,1.07-0.14,1.63c-0.02,0.18-0.05,0.38-0.09,0.58c-0.05,0.34-0.12,0.69-0.19,1.03c-0.05,0.21-0.09,0.39-0.14,0.58    c-0.09,0.36-0.19,0.7-0.3,1.03c-0.06,0.2-0.14,0.41-0.21,0.61c-0.11,0.32-0.24,0.64-0.38,0.96c-0.09,0.2-0.18,0.41-0.28,0.62    c-0.13,0.29-0.3,0.61-0.47,0.92c-0.1,0.19-0.2,0.37-0.31,0.55c-0.18,0.3-0.38,0.61-0.58,0.91c-0.12,0.18-0.24,0.35-0.36,0.52    c-0.35,0.48-0.7,0.91-1.07,1.33l-1.44,1.62l0.55,0.54c7.11,6.93,7.25,18.35,0.32,25.45c-6.93,7.11-18.35,7.25-25.45,0.32    l-7.69-7.5l-16.31-0.16c-1.16,1.35-2.45,2.58-3.84,3.7l0.18,18.3c5.28,1.65,10.24,3.98,14.74,6.94c2.77-1.35,5.91-2.06,9.27-2.06    c1.47,0,2.94,0.14,4.35,0.43c0.51,0.1,1,0.23,1.49,0.36c0.22,0.06,0.43,0.11,0.63,0.18c0.47,0.15,0.94,0.32,1.4,0.5    c0.15,0.06,0.37,0.14,0.58,0.23c0.47,0.2,0.9,0.42,1.32,0.64c0.19,0.1,0.4,0.21,0.6,0.32c0.41,0.23,0.79,0.48,1.18,0.73    c0.22,0.15,0.41,0.27,0.59,0.4c0.36,0.26,0.71,0.53,1.05,0.82c0.02,0.02,0.05,0.04,0.07,0.06c15.22-9.3,35.23-13.56,57.19-12.1    c0.75-1.26,1.65-2.44,2.67-3.48c3.51-3.6,8.37-5.59,13.68-5.59c5.44,0,10.39,2.08,13.92,5.85c2.56,2.74,4.26,6.23,4.93,10.01    c1.21,0.37,2.4,0.75,3.58,1.15c12.07,4.01,22.71,10.06,31.72,18.05c1.97-0.65,4.08-0.99,6.27-0.99c6.8,0,12.69,3.2,16.16,8.78    c0.01,0.02,0.07,0.11,0.08,0.13c0.23,0.38,0.45,0.76,0.65,1.15c0.02,0.04,0.04,0.09,0.07,0.13c0.57,1.12,1.04,2.31,1.4,3.54    c0.02,0.07,0.04,0.14,0.06,0.21c0.1,0.37,0.19,0.75,0.28,1.12l0.05,0.23c0.09,0.44,0.16,0.82,0.21,1.2c0,0.02,0.01,0.04,0.01,0.07    c0.1,0.73,0.17,1.49,0.19,2.25c0.01,0.13,0.01,0.26,0.01,0.38c0.01,0.28,0,0.62-0.01,0.95c0,0.14-0.01,0.32-0.02,0.5    c-0.02,0.31-0.04,0.61-0.07,0.91c-0.02,0.2-0.04,0.38-0.07,0.56c-0.06,0.47-0.12,0.88-0.2,1.28c-0.06,0.33-0.13,0.65-0.2,0.97    c-0.06,0.24-0.11,0.45-0.17,0.66c-0.1,0.35-0.17,0.61-0.26,0.87c-0.07,0.21-0.15,0.44-0.23,0.66c-0.12,0.32-0.22,0.59-0.34,0.86    c-0.11,0.26-0.19,0.45-0.28,0.64c-0.21,0.46-0.44,0.92-0.69,1.37c-0.09,0.17-0.18,0.31-0.27,0.45c-0.18,0.31-0.39,0.64-0.6,0.95    c1.56,3.32,2.95,6.76,4.18,10.3c0.01,0.03,0.02,0.05,0.03,0.08c1.66,4.79,3.03,9.82,4.11,15.02c1.64,0.52,3.2,1.27,4.62,2.22    c0.24,0.16,0.44,0.29,0.64,0.44c0.29,0.21,0.55,0.42,0.8,0.63c0.25,0.21,0.43,0.36,0.61,0.52c0.27,0.24,0.52,0.48,0.76,0.72    c0.18,0.18,0.35,0.36,0.51,0.54c0.23,0.25,0.46,0.51,0.68,0.77c0.14,0.16,0.29,0.36,0.43,0.55c0.22,0.29,0.41,0.55,0.59,0.81    c0.13,0.18,0.25,0.38,0.37,0.57c0.31,0.49,0.64,1.07,0.93,1.66c0.08,0.15,0.17,0.34,0.26,0.53c0.14,0.31,0.26,0.59,0.37,0.86    c0.1,0.26,0.18,0.46,0.26,0.66c0.11,0.31,0.2,0.59,0.29,0.86c0.07,0.23,0.14,0.45,0.2,0.69c0.09,0.32,0.16,0.6,0.22,0.88    c0.05,0.21,0.1,0.46,0.15,0.7c0.06,0.32,0.11,0.57,0.15,0.82c0.04,0.25,0.07,0.49,0.09,0.73c0.04,0.33,0.07,0.59,0.09,0.84    c0.04,0.46,0.06,0.95,0.06,1.45c0,0.24,0,0.46-0.01,0.68c-0.01,0.29-0.02,0.59-0.04,0.89c-0.02,0.23-0.04,0.44-0.06,0.65    c-0.04,0.38-0.07,0.66-0.11,0.94c-0.04,0.26-0.08,0.5-0.12,0.74c-0.05,0.27-0.11,0.56-0.17,0.85c-0.05,0.24-0.11,0.47-0.17,0.69    c-0.09,0.33-0.18,0.65-0.28,0.96c-0.06,0.18-0.12,0.38-0.19,0.58c-0.17,0.48-0.35,0.93-0.54,1.38c-0.01,0.02-0.03,0.08-0.04,0.09    l-0.09,0.2c-0.2,0.43-0.43,0.89-0.68,1.34c-0.08,0.15-0.19,0.33-0.3,0.52c-0.18,0.3-0.38,0.63-0.6,0.95    c-0.12,0.18-0.25,0.36-0.38,0.54c-0.21,0.29-0.44,0.58-0.68,0.87c-0.15,0.18-0.29,0.35-0.44,0.51l0,0    c-0.26,0.3-0.54,0.58-0.82,0.87c-0.15,0.15-0.31,0.31-0.47,0.46c-0.29,0.27-0.62,0.55-0.95,0.81c-0.16,0.13-0.32,0.26-0.48,0.38    c-0.47,0.35-0.99,0.7-1.52,1.02c-0.18,0.11-0.35,0.2-0.52,0.29c-0.24,0.14-0.5,0.27-0.77,0.41c-0.02,0.35-0.03,0.69-0.05,1.04    c0,0,0,0.01,0,0.01c0,0.01,0,0.02,0,0.03c-0.09,1.75-0.21,3.52-0.36,5.26c0,0.03-0.01,0.07-0.01,0.1    c-0.15,1.76-0.33,3.55-0.54,5.33c-0.21,1.79-0.45,3.58-0.71,5.35c-0.01,0.06-0.01,0.06-0.02,0.12c-0.25,1.67-0.54,3.43-0.85,5.17    c-0.01,0.03-0.01,0.07-0.02,0.1c-0.11,0.62-0.23,1.25-0.35,1.88c0.01,0.01,0.01,0.01,0.02,0.02c0.13,0.13,0.29,0.3,0.45,0.47    c0.26,0.28,0.52,0.58,0.78,0.89c0.1,0.12,0.22,0.28,0.34,0.43c0.25,0.33,0.48,0.64,0.69,0.96c0.12,0.18,0.22,0.33,0.31,0.48    c0.2,0.33,0.41,0.67,0.6,1.01c0.09,0.17,0.16,0.31,0.23,0.45c0.64,1.24,1.15,2.58,1.52,3.95c0.01,0.05,0.03,0.1,0.04,0.15l0,0    c0.09,0.34,0.16,0.69,0.23,1.03c0.04,0.2,0.08,0.37,0.11,0.55c0.05,0.31,0.1,0.61,0.14,0.92l-9.9,1.43l9.91-1.3    c0.03,0.2,0.05,0.4,0.07,0.6c0.03,0.32,0.05,0.62,0.06,0.92c0.01,0.22,0.02,0.45,0.03,0.68c0.01,0.31,0,0.61,0,0.91    c-0.01,0.23-0.02,0.48-0.03,0.74c-0.02,0.28-0.04,0.57-0.07,0.86c-0.02,0.23-0.05,0.49-0.09,0.74c-0.04,0.3-0.08,0.57-0.13,0.84    c-0.05,0.28-0.11,0.54-0.17,0.81c-0.06,0.27-0.12,0.52-0.18,0.77c-0.08,0.29-0.16,0.57-0.24,0.84c-0.09,0.29-0.16,0.53-0.24,0.76    c-0.11,0.3-0.22,0.6-0.35,0.9c-0.09,0.23-0.18,0.44-0.27,0.65c-0.23,0.51-0.46,0.97-0.71,1.43l-0.17,0.3    c-0.24,0.43-0.54,0.89-0.84,1.33c-0.12,0.17-0.26,0.36-0.4,0.55c-0.23,0.31-0.45,0.6-0.69,0.88c-0.16,0.19-0.32,0.36-0.48,0.54    c-0.26,0.28-0.52,0.56-0.79,0.82c-0.17,0.17-0.35,0.33-0.54,0.5c-0.31,0.27-0.59,0.52-0.89,0.75c-0.18,0.14-0.39,0.3-0.61,0.46    c-0.31,0.22-0.62,0.43-0.94,0.63c-0.25,0.16-0.48,0.29-0.72,0.43c-0.34,0.19-0.66,0.36-1,0.52c-0.27,0.13-0.52,0.25-0.77,0.36    c-0.36,0.16-0.73,0.3-1.1,0.43c-0.27,0.1-0.53,0.19-0.8,0.27c-0.35,0.11-0.75,0.21-1.14,0.31c-0.28,0.07-0.52,0.13-0.77,0.18    c-0.12,0.02-0.24,0.05-0.36,0.07c-2.38,5.81-5.07,11.47-8.05,16.94c1.17,2.22,1.94,4.69,2.22,7.3c0,0.03,0.01,0.06,0.01,0.1l0,0    c0.04,0.42,0.07,0.84,0.09,1.26l0.01,0.34c0.01,0.37,0.01,0.74,0,1.12l-0.02,0.4c-0.02,0.41-0.04,0.76-0.08,1.12    c-0.02,0.16-0.03,0.31-0.05,0.46c-0.05,0.41-0.1,0.76-0.16,1.1c-0.02,0.14-0.06,0.34-0.11,0.55c-0.11,0.54-0.26,1.13-0.43,1.71    c-0.06,0.22-0.13,0.45-0.21,0.68c-0.09,0.26-0.18,0.5-0.27,0.74c-0.11,0.29-0.21,0.56-0.33,0.82c-0.11,0.25-0.2,0.45-0.3,0.65    c-0.15,0.32-0.3,0.61-0.45,0.89c-0.12,0.21-0.24,0.43-0.36,0.64c-0.18,0.3-0.36,0.58-0.54,0.86c-0.13,0.2-0.27,0.41-0.42,0.61    c-0.2,0.27-0.42,0.56-0.65,0.84c-0.17,0.21-0.31,0.38-0.45,0.54c-0.26,0.29-0.53,0.58-0.81,0.86c-0.14,0.15-0.28,0.29-0.43,0.43    c-0.49,0.45-0.96,0.86-1.45,1.22c-0.11,0.08-0.24,0.18-0.37,0.27c-0.39,0.28-0.78,0.54-1.18,0.79c-0.23,0.14-0.42,0.24-0.61,0.35    c-0.32,0.18-0.7,0.38-1.1,0.57c-0.2,0.09-0.42,0.19-0.63,0.28c-0.41,0.17-0.79,0.32-1.17,0.45c-0.24,0.08-0.48,0.16-0.71,0.23    c-0.4,0.12-0.8,0.23-1.21,0.32c-0.27,0.06-0.49,0.11-0.71,0.16c-0.43,0.08-0.88,0.15-1.33,0.21c-0.16,0.02-0.38,0.05-0.6,0.07    c-1.6,0.15-2.87,0.13-4.36-0.04c-0.25-0.03-0.47-0.06-0.69-0.1c-3.43,3.98-6.51,7.15-8.93,9.48v4.69c0,3.25-1.58,6.3-4.23,8.17    l-11,7.77c0.73,1.22,1.34,2.54,1.79,3.96c1.55,4.83,1.13,9.98-1.19,14.49s-6.26,7.86-11.09,9.41c-0.19,0.06-0.39,0.12-0.58,0.19    v23.47c5.88,1.7,10.84,6.19,12.85,12.44c1.55,4.83,1.13,9.98-1.19,14.49s-6.26,7.86-11.09,9.41    C354.84,485.73,309,492.51,260.17,492.51z M120.32,455.22L120.32,455.22L120.32,455.22z M231.02,453.64    c32.85,1.94,79.58,1.32,128.27-10.34c2.52-0.61,5.03-1.24,7.52-1.89c0.8-0.21,1.6-0.42,2.4-0.64c0.93-0.25,1.86-0.51,2.8-0.77    c1.06-0.29,2.11-0.6,3.17-0.9l0.57-0.17c0.03-0.01,0.07-0.02,0.1-0.03v-33.74c0-3.87,2.22-7.33,5.61-8.99    c-0.09-0.04-0.18-0.09-0.27-0.13c-3.32-1.72-5.4-5.14-5.4-8.88v-0.82c0-4.37,2.83-8.23,7-9.54l0.59-0.18l18.77-13.24v-3.88    c0-2.87,1.24-5.61,3.39-7.51c2.69-2.37,8.17-7.57,14.56-15.74c1.71-2.19,4.25-3.56,7.01-3.8c1.25-0.11,2.49,0.02,3.67,0.36    c-0.78-1.03-1.36-2.21-1.7-3.48c-0.69-2.62-0.3-5.4,1.1-7.72c5.01-8.31,9.25-17.23,12.6-26.5c1.44-3.99,5.17-6.51,9.19-6.6    c-1.14-0.77-2.11-1.78-2.86-2.97c-1.42-2.26-1.84-4.99-1.24-7.58c0.25-1.06,0.49-2.12,0.71-3.18c0.01-0.03,0.01-0.06,0.02-0.08    c0.13-0.59,0.25-1.19,0.37-1.78c-0.84,3.02-1.8,6.04-2.89,9.05c-6.45,17.79-13.92,33.38-22.2,46.36c-0.64,1-1.27,1.96-1.89,2.89    l-0.31,0.46c-0.62,0.92-1.24,1.82-1.84,2.68c-0.02,0.02-0.04,0.05-0.05,0.07c-0.41,0.57-0.81,1.13-1.2,1.67    c-3.22,4.42-9.38,5.43-13.85,2.28l-5.61-3.96c-3.97-2.8-5.35-8.04-3.28-12.43c0.48-1.03,0.96-2.07,1.43-3.13    c0.52-1.19,1.03-2.41,1.53-3.65c2.04-5.09,3.83-10.47,5.31-15.97c0.38-1.41,0.74-2.85,1.08-4.29c0.87-3.67,1.61-7.42,2.2-11.14    c0.49-3.07,0.88-6.19,1.17-9.26c0.15-1.57,0.27-3.16,0.37-4.72c0.45-7.34,0.34-14.66-0.34-21.75c-0.08-0.82-0.16-1.63-0.26-2.45    c-0.96-8.37-2.73-16.54-5.27-24.27c-0.01-0.03-0.02-0.05-0.03-0.08c-0.27-0.82-0.52-1.53-0.79-2.23l-0.38-0.94    c-0.15-0.39-0.3-0.77-0.47-1.15c-0.05-0.13-0.11-0.25-0.17-0.37l-0.34-0.75c-0.13-0.3-0.26-0.59-0.4-0.88    c-0.07-0.14-0.15-0.29-0.22-0.43l-0.35-0.68c-0.14-0.27-0.27-0.53-0.41-0.79c-0.09-0.16-0.18-0.32-0.27-0.47l-0.32-0.57    c-0.15-0.26-0.3-0.52-0.45-0.78c-0.1-0.17-0.21-0.33-0.31-0.5l-0.31-0.49c-0.16-0.25-0.32-0.51-0.48-0.76    c-0.11-0.17-0.23-0.33-0.35-0.5l-0.29-0.42c-0.17-0.24-0.34-0.49-0.51-0.72c-0.14-0.19-0.28-0.37-0.42-0.56l-0.22-0.28    c-0.19-0.25-0.38-0.49-0.57-0.73c-0.16-0.2-0.31-0.38-0.47-0.56l-0.13-0.15c-0.23-0.27-0.45-0.54-0.68-0.8    c-0.18-0.2-0.35-0.39-0.53-0.58l-0.08-0.09c-0.24-0.26-0.47-0.51-0.71-0.76c-0.21-0.22-0.43-0.43-0.64-0.65    c-0.25-0.25-0.49-0.49-0.75-0.73c-0.22-0.21-0.44-0.41-0.66-0.61c-0.26-0.24-0.52-0.48-0.78-0.71c-0.22-0.19-0.45-0.39-0.68-0.58    c-0.26-0.22-0.53-0.44-0.8-0.66c-0.23-0.19-0.46-0.37-0.7-0.55c-0.28-0.22-0.56-0.43-0.84-0.64c-0.24-0.18-0.48-0.35-0.72-0.52    c-0.28-0.2-0.58-0.41-0.87-0.61c-0.25-0.17-0.49-0.33-0.73-0.49c-0.3-0.2-0.61-0.4-0.92-0.59c-0.23-0.15-0.48-0.3-0.72-0.45    c-0.32-0.2-0.64-0.38-0.95-0.57c-0.24-0.14-0.49-0.29-0.74-0.43c-0.33-0.19-0.66-0.36-0.99-0.54c-0.25-0.14-0.5-0.27-0.74-0.4    c-0.35-0.18-0.69-0.35-1.04-0.53l-0.73-0.36c-0.36-0.18-0.73-0.34-1.09-0.51l-0.71-0.32c-0.38-0.17-0.76-0.33-1.14-0.49    l-0.69-0.29c-0.39-0.16-0.8-0.32-1.2-0.47l-0.66-0.26c-0.43-0.16-0.86-0.32-1.29-0.47l-0.58-0.21c-0.48-0.17-0.94-0.32-1.41-0.47    l-0.51-0.17c-0.52-0.17-1.04-0.32-1.57-0.48l-0.28-0.09c-0.69-0.2-1.31-0.38-1.92-0.54c-0.03-0.01-0.12-0.03-0.15-0.04    c-1.41-0.38-2.96-0.75-4.56-1.09c-4.99-1.07-8.38-5.72-7.86-10.79c0.01-0.08,0.01-0.15,0.01-0.23c0-0.02,0-0.03,0-0.05l0-0.12    c0-0.01,0-0.01,0-0.03l-0.02-0.24c-0.04-0.28-0.11-0.49-0.17-0.6c-0.16-0.03-0.67-0.03-0.84,0c0,0,0,0,0,0    c-0.04,0.08-0.11,0.24-0.15,0.47c-0.02,0.12-0.05,0.25-0.07,0.37c-0.64,2.94-2.58,5.44-5.28,6.8c-2.85,1.43-6.22,1.42-9.06-0.04    c-4.3-2.21-9.28-3.66-14.81-4.32c-4.4-0.52-7.9-3.89-8.65-8.25c-0.03-0.16-0.05-0.32-0.07-0.48c-2.38,1.15-5.16,1.34-7.73,0.42    c-3.36-1.2-5.82-4.09-6.47-7.58c-0.02-0.1-0.04-0.2-0.05-0.29l-0.12-0.47c0-0.01-0.02-0.04-0.03-0.07l-0.02-0.03    c0,0,0-0.01-0.01-0.02l-0.05-0.01c-0.29-0.05-0.65-0.02-0.79,0c-1.54,2.54-4.15,4.29-7.1,4.73c-2.98,0.44-6.01-0.46-8.23-2.49    c-5.32-4.86-12.18-8.11-19.84-9.39c-2.68-0.45-4.96-1.94-6.45-4.01c-1.57,2.01-3.89,3.42-6.59,3.78    c-7.75,1.02-14.79,4.05-20.36,8.76c-2.07,1.75-4.77,2.59-7.47,2.31c-2.67-0.27-5.11-1.6-6.79-3.69c-0.15-0.03-0.69-0.03-0.85,0    l-0.03,0.05c-0.02,0.05-0.06,0.15-0.09,0.25c0,0,0,0,0,0.01l-0.03,0.12c0,0.02-0.02,0.11-0.03,0.16c0,0.01,0,0.02,0,0.02    c-0.04,0.26-0.09,0.52-0.15,0.78c0.1,0.16,0.2,0.32,0.29,0.49c0.01,0.02,0.04,0.06,0.04,0.07c0.12,0.06,0.24,0.12,0.36,0.19    c4.31,2.26,6.38,7.32,4.84,11.99c-1.59,4.82-6.55,7.69-11.52,6.66l-18.37-3.8c-4.91,0.73-9.37,2.11-13.27,4.11    c-2.82,1.45-6.16,1.47-9,0.07s-4.85-4.07-5.41-7.19c-0.02-0.12-0.06-0.25-0.11-0.37c-0.02-0.05-0.04-0.09-0.05-0.11    c-0.12-0.02-0.67-0.03-0.84,0c-0.07,0.14-0.18,0.44-0.19,0.89c0,0.02,0,0.04,0,0.07l0.01,0.3c0.52,5.08-2.87,9.74-7.86,10.8    c-3.32,0.71-6.53,1.58-9.54,2.59l-0.33,0.11c-0.41,0.14-0.85,0.3-1.29,0.46l-0.47,0.17c-0.42,0.15-0.82,0.31-1.22,0.46l-0.58,0.23    c-0.37,0.15-0.75,0.3-1.13,0.46l-0.62,0.26c-0.35,0.15-0.71,0.31-1.07,0.47l-0.67,0.31c-0.33,0.15-0.67,0.32-1.01,0.48l-0.67,0.33    c-0.32,0.16-0.65,0.33-0.97,0.5l-0.7,0.38c-0.3,0.16-0.62,0.33-0.93,0.51l-0.71,0.41c-0.3,0.17-0.6,0.35-0.9,0.53l-0.89,0.56    c-0.22,0.14-0.45,0.28-0.67,0.42l-0.96,0.65c-0.18,0.12-0.37,0.25-0.55,0.37c-0.16,0.11-0.3,0.22-0.44,0.32l-0.61,0.45    c-0.15,0.11-0.29,0.21-0.43,0.32c-0.48,0.36-0.94,0.73-1.4,1.11l-0.84,0.71c-0.19,0.16-0.37,0.31-0.56,0.48    c-0.13,0.11-0.24,0.22-0.35,0.32l-0.43,0.4c-0.19,0.18-0.39,0.35-0.58,0.54c-0.13,0.12-0.25,0.24-0.36,0.36l-0.32,0.32    c-0.21,0.21-0.42,0.42-0.63,0.63c-0.14,0.14-0.27,0.29-0.41,0.44l-0.17,0.19c-0.23,0.25-0.45,0.49-0.67,0.74    c-0.18,0.21-0.36,0.42-0.53,0.62c-0.25,0.29-0.47,0.55-0.68,0.81c-0.19,0.23-0.37,0.46-0.54,0.69c-0.21,0.27-0.42,0.54-0.62,0.82    c-0.17,0.23-0.34,0.47-0.51,0.71c-0.2,0.28-0.4,0.57-0.6,0.86c-0.17,0.24-0.33,0.49-0.49,0.73c-0.2,0.3-0.38,0.6-0.57,0.91    c-0.15,0.25-0.31,0.5-0.46,0.75c-0.19,0.32-0.37,0.64-0.55,0.97l-0.09,0.17c-0.11,0.2-0.23,0.41-0.34,0.61    c-0.18,0.34-0.35,0.69-0.53,1.04l-0.13,0.27c-0.09,0.17-0.18,0.35-0.26,0.52c-0.16,0.33-0.31,0.67-0.46,1.02l-0.21,0.47    c-0.06,0.14-0.13,0.28-0.19,0.42c-0.17,0.41-0.33,0.82-0.5,1.23l-0.31,0.77c-0.25,0.67-0.5,1.36-0.73,2.06    c-0.01,0.04-0.03,0.08-0.04,0.12c-6.28,19.22-7.77,40.8-4.33,62.48c0.59,3.73,1.33,7.48,2.2,11.14c0.67,2.84,1.44,5.69,2.28,8.47    c0.61,2.03,1.27,4.06,1.96,6.04c0.46,1.31,0.93,2.6,1.42,3.86c0.48,1.26,0.98,2.5,1.49,3.72c0.65,1.56,1.36,3.15,2.11,4.74    c2.06,4.39,0.67,9.62-3.29,12.42l-5.65,3.98c-4.47,3.16-10.65,2.13-13.86-2.3l-0.19-0.26c-0.14-0.19-0.28-0.39-0.43-0.59    c-2.26-3.17-4.52-6.61-6.7-10.21l0,0c-3.79-6.25-7.44-13.16-10.85-20.52c-3.23-6.97-6.32-14.49-9.17-22.34    c-1.08-2.99-2.04-5.98-2.88-8.98c0.33,1.66,0.69,3.32,1.08,4.97c0.61,2.6,0.15,5.33-1.26,7.59c-0.74,1.18-1.72,2.19-2.85,2.96    c4.03,0.08,7.77,2.6,9.21,6.6c3.35,9.27,7.59,18.19,12.6,26.5c1.4,2.32,1.79,5.11,1.1,7.72c-0.34,1.27-0.92,2.45-1.7,3.48    c1.18-0.34,2.42-0.47,3.66-0.36c2.76,0.24,5.31,1.62,7.02,3.8c6.2,7.93,11.57,13.08,14.22,15.44c2.13,1.9,3.34,4.61,3.34,7.46    v4.23l19.83,14c2.31,1.63,3.82,4.16,4.16,6.97c0.34,2.81-0.52,5.62-2.38,7.76l-0.14,0.16c-1.12,1.29-2.52,2.24-4.05,2.81    c1.4,0.39,3.04,0.84,4.9,1.33c0.14,0.04,0.29,0.08,0.43,0.12c0.09,0.03,0.18,0.05,0.26,0.08c0.44,0.15,0.86,0.32,1.26,0.52    c0.66,0.03,1.33,0.13,2,0.29l0.52,0.13c0.21,0.05,0.42,0.11,0.62,0.18c0.21,0.04,0.41,0.08,0.62,0.13l0.85,0.21    c0.31,0.08,0.62,0.17,0.92,0.27c0.31,0.04,0.63,0.1,0.94,0.18l1.08,0.26c0.18,0.04,0.36,0.09,0.54,0.14    c0.18,0.03,0.36,0.07,0.55,0.11l0.01,0c0,0,0.01,0,0.01,0l1.96,0.45c0,0,0,0,0,0c0.15,0.03,0.3,0.07,0.44,0.11    c0.15,0.03,0.31,0.06,0.46,0.09l1.61,0.36c0.16,0.04,0.32,0.08,0.48,0.12c0.16,0.03,0.33,0.06,0.49,0.1    c0.74,0.16,1.48,0.33,2.24,0.49c0.05,0.01,0.1,0.02,0.16,0.03c0.11,0.02,0.21,0.05,0.32,0.07c0.11,0.02,0.23,0.04,0.34,0.07h0    l2.11,0.45c0.14,0.03,0.29,0.06,0.43,0.1c0.14,0.02,0.29,0.05,0.43,0.08c0,0,0,0,0,0l0,0c0.02,0,0.04,0.01,0.06,0.01    c0.87,0.18,1.75,0.36,2.65,0.54c0.02,0,0.03,0.01,0.05,0.01c0.08,0.02,0.15,0.03,0.23,0.05c0.08,0.01,0.16,0.03,0.23,0.04    c0.84,0.17,1.69,0.34,2.56,0.51c0.14,0.03,0.27,0.06,0.4,0.09c0.14,0.02,0.27,0.04,0.41,0.07c1.01,0.19,2.03,0.39,3.07,0.58    c0.05,0.01,0.09,0.02,0.14,0.03c0.06,0.01,0.12,0.02,0.18,0.03c0.91,0.17,1.83,0.34,2.77,0.51c0.06,0.01,0.11,0.02,0.17,0.03    c0,0,0,0,0,0c0.13,0.02,0.27,0.05,0.4,0.08c0.13,0.02,0.26,0.04,0.39,0.06c1.1,0.2,2.22,0.39,3.35,0.59    c0.03,0.01,0.07,0.01,0.1,0.02c0.04,0.01,0.08,0.01,0.11,0.02c1.07,0.18,2.17,0.37,3.27,0.55c0.14,0.02,0.27,0.05,0.41,0.08    c0.13,0.02,0.27,0.04,0.41,0.06c1.18,0.19,2.37,0.39,3.58,0.57c0.02,0,0.05,0.01,0.07,0.01c0.03,0,0.06,0.01,0.09,0.01    c1.16,0.18,2.33,0.36,3.52,0.54c0.15,0.02,0.29,0.05,0.44,0.08c0.14,0.02,0.29,0.03,0.43,0.05c1.12,0.17,2.26,0.33,3.41,0.49    c0.13,0.02,0.25,0.04,0.38,0.05h0c0.02,0,0.04,0.01,0.06,0.01c0.02,0,0.03,0,0.05,0.01c1.24,0.17,2.49,0.34,3.75,0.51    c0.16,0.02,0.31,0.05,0.47,0.07c0.16,0.01,0.31,0.03,0.47,0.05c0.09,0.01,0.19,0.02,0.28,0.04c1.19,0.16,2.38,0.31,3.59,0.46    c0.03,0,0.06,0.01,0.09,0.01c0,0,0,0,0,0c0.02,0,0.04,0,0.06,0.01c0.02,0,0.03,0,0.05,0.01c0,0,0,0,0,0l0,0    c0.02,0,0.04,0,0.06,0.01c1.27,0.16,2.56,0.31,3.86,0.46c0.17,0.02,0.34,0.04,0.51,0.07c0.17,0.01,0.34,0.03,0.52,0.05    c1.37,0.16,2.74,0.31,4.14,0.46c5.13,0.55,8.93,4.88,8.93,9.92c0,0.36-0.02,0.72-0.06,1.09c-0.59,5.49-5.52,9.47-11.01,8.88    c-1.44-0.16-2.87-0.31-4.29-0.48c-0.18-0.02-0.35-0.05-0.53-0.08c-0.18-0.01-0.35-0.03-0.53-0.05c-0.05-0.01-0.11-0.01-0.16-0.02    c-1.31-0.15-2.62-0.31-3.91-0.47c-0.02,0-0.04,0-0.06-0.01c-0.02,0-0.04,0-0.05-0.01c-1.24-0.15-2.46-0.31-3.68-0.47    c-0.14-0.02-0.29-0.04-0.43-0.06c-0.17-0.02-0.33-0.05-0.49-0.08c-0.16-0.01-0.33-0.03-0.49-0.05c-1.31-0.17-2.61-0.35-3.89-0.53    c-0.02,0-0.04-0.01-0.06-0.01c-0.02,0-0.04-0.01-0.06-0.01c-1.33-0.19-2.63-0.38-3.93-0.57c-0.15-0.02-0.3-0.05-0.45-0.08    c-0.15-0.02-0.3-0.03-0.45-0.06c-1.23-0.18-2.45-0.37-3.64-0.56c-0.03,0-0.05-0.01-0.08-0.01c-0.03,0-0.06-0.01-0.09-0.01    c-1.26-0.2-2.5-0.4-3.72-0.6c-0.14-0.02-0.28-0.05-0.42-0.08c-0.14-0.02-0.28-0.04-0.42-0.06c-0.52-0.09-1.04-0.17-1.56-0.26    c-0.62-0.1-1.23-0.21-1.84-0.31c-0.03-0.01-0.07-0.01-0.1-0.02c-0.04-0.01-0.07-0.01-0.11-0.02c-1.18-0.2-2.34-0.41-3.48-0.61    c-0.14-0.02-0.28-0.05-0.42-0.08c-0.14-0.02-0.27-0.04-0.41-0.07c-1.03-0.19-2.05-0.37-3.06-0.56c-0.05-0.01-0.1-0.02-0.14-0.03    c-0.06-0.01-0.12-0.02-0.19-0.03c-1.08-0.2-2.15-0.41-3.2-0.61c-0.14-0.03-0.28-0.06-0.42-0.09c-0.14-0.02-0.28-0.05-0.42-0.07    c-0.9-0.17-1.78-0.35-2.65-0.52c-0.08-0.02-0.16-0.03-0.24-0.05c-0.08-0.01-0.16-0.03-0.25-0.05c-0.98-0.2-1.94-0.39-2.89-0.59    c-0.15-0.03-0.29-0.06-0.44-0.1c-0.15-0.02-0.3-0.05-0.45-0.08l-2.19-0.46c-0.11-0.02-0.22-0.05-0.33-0.08    c-0.12-0.02-0.24-0.04-0.36-0.07c-0.85-0.18-1.69-0.37-2.51-0.55c-0.17-0.04-0.33-0.08-0.5-0.12c-0.17-0.03-0.34-0.06-0.51-0.1    l-1.68-0.38c-0.16-0.04-0.31-0.07-0.46-0.12c-0.16-0.03-0.32-0.06-0.48-0.1l0,0c-0.2-0.04-0.39-0.09-0.59-0.13v20.88l0.4,0.1    c0.23,0.06,0.47,0.13,0.69,0.2c0.24,0.04,0.48,0.09,0.72,0.15l0.51,0.13c0.34,0.08,0.67,0.18,1,0.3c0.33,0.04,0.67,0.11,1,0.19    l0.69,0.17c0.27,0.06,0.53,0.14,0.78,0.22c0.27,0.04,0.53,0.09,0.8,0.15l0.75,0.18c0.33,0.08,0.64,0.17,0.95,0.27    c0.33,0.04,0.66,0.1,0.99,0.18l0.38,0.09c0.43,0.1,0.84,0.22,1.24,0.37c0.42,0.04,0.84,0.1,1.27,0.2l0.58,0.13    c0.35,0.08,0.69,0.17,1.02,0.28c0.35,0.04,0.71,0.09,1.07,0.17l0.72,0.15c0.39,0.08,0.77,0.19,1.15,0.32    c0.39,0.03,0.78,0.09,1.17,0.17l0.43,0.09c0.5,0.1,0.97,0.24,1.44,0.41c0.49,0.02,0.99,0.08,1.49,0.18l0.52,0.1    c0.42,0.08,0.83,0.19,1.23,0.33c0.42,0.03,0.84,0.08,1.26,0.16l0.8,0.16c0.44,0.08,0.86,0.2,1.27,0.33    c0.43,0.02,0.87,0.08,1.31,0.16l0.57,0.11c0.56,0.1,1.09,0.25,1.61,0.44c0.56,0.01,1.12,0.06,1.68,0.16l0.41,0.07    c0.49,0.09,0.97,0.21,1.43,0.36c0.48,0.01,0.96,0.06,1.45,0.14l0.94,0.16c0.45,0.08,0.9,0.19,1.33,0.32    c0.45,0.01,0.91,0.06,1.37,0.13l0.79,0.13c0.61,0.1,1.19,0.25,1.75,0.45c0.59-0.01,1.2,0.02,1.8,0.12l0.4,0.06    c0.55,0.08,1.08,0.21,1.59,0.38c0.52,0,1.06,0.03,1.59,0.11l1.06,0.16c0.48,0.07,0.94,0.17,1.39,0.3c0.47,0,0.94,0.03,1.42,0.1    l1,0.14c0.65,0.09,1.28,0.24,1.88,0.45c0.63-0.04,1.28-0.02,1.93,0.07l0.17,0.02l-0.08,0.71c1.19-0.31,2.46-0.41,3.76-0.24    l1.2,0.15c0.49,0.06,0.97,0.15,1.43,0.28c0.48-0.01,0.97,0.01,1.47,0.06l1.2,0.14c1.47,0.17,2.82,0.65,4.01,1.36    c1.31-0.45,2.74-0.63,4.21-0.49l2.38,0.22c0.33,0.03,0.67,0.08,0.99,0.14c0.31,0,0.63,0.01,0.95,0.04c0.04,0,0.08,0.01,0.12,0.01    c0,0,0,0,0,0c0.04,0,0.08,0.01,0.12,0.01c0.01,0,0.03,0,0.04,0c0.01,0,0.03,0,0.04,0c0.01,0,0.03,0,0.04,0c0.01,0,0.03,0,0.04,0    c0.74,0.06,1.5,0.13,2.25,0.19l0.43,0.04c0.23,0.02,0.46,0.05,0.69,0.08c0.21,0,0.42,0.01,0.63,0.03c1.21,0.1,2.43,0.19,3.67,0.28    c0.16,0.01,0.32,0.03,0.48,0.05c0.13,0,0.27,0.01,0.4,0.02l0,0l0,0c0.07,0.01,0.15,0.01,0.22,0.02c1.28,0.09,2.57,0.18,3.88,0.26    c0.06,0,0.11,0.01,0.17,0.01c0.07,0,0.15,0.01,0.22,0.02c0.05,0,0.11,0.01,0.16,0.01C230.07,453.59,230.55,453.61,231.02,453.64z     M73.03,343.38L73.03,343.38L73.03,343.38z M433.19,335.63C433.19,335.63,433.19,335.63,433.19,335.63L433.19,335.63z     M433.28,335.27c-0.02,0.02-0.03,0.03-0.05,0.05L433.28,335.27L433.28,335.27z M50.2,307.94c0.03,0.01,0.06,0.02,0.09,0.03    C50.26,307.96,50.23,307.95,50.2,307.94z M49.97,307.86C49.97,307.86,49.97,307.86,49.97,307.86    C49.97,307.86,49.97,307.86,49.97,307.86z M455.51,290.04c0.02,0.01,0.04,0.02,0.06,0.02L455.51,290.04z M454.38,289.97    c-0.01,0.01-0.01,0.03-0.02,0.04L454.38,289.97z M464.16,286.75L464.16,286.75L464.16,286.75z M115.28,180.85    c-8.14,4.01-15.38,9.81-21.14,16.97c-1.06,1.32-2.09,2.71-3.05,4.12c-0.97,1.42-1.89,2.89-2.75,4.39    c-0.29,0.51-0.57,1.01-0.85,1.52c-0.55,1.01-1.08,2.07-1.58,3.13c-1.26,2.66-2.37,5.44-3.3,8.28c-0.38,1.15-0.73,2.32-1.05,3.49    c-0.48,1.77-0.91,3.59-1.26,5.4c-0.24,1.22-0.45,2.47-0.63,3.72c-0.09,0.62-0.17,1.26-0.25,1.89c-0.23,1.9-0.39,3.85-0.47,5.79    c-0.06,1.31-0.09,2.64-0.08,3.95c0.02,8.77,1.42,17.71,4.17,26.67c-1.07-19.16,1.27-37.96,6.91-55.15    c0.02-0.05,0.03-0.1,0.05-0.15c0.32-0.97,0.64-1.86,0.96-2.73c0.09-0.24,0.19-0.48,0.28-0.72l0.13-0.32    c0.23-0.59,0.46-1.17,0.7-1.74c0.12-0.28,0.25-0.57,0.38-0.85l0.16-0.35c0.22-0.5,0.45-1,0.68-1.49c0.15-0.31,0.3-0.61,0.45-0.91    l0.11-0.22c0.25-0.49,0.49-0.98,0.75-1.47c0.17-0.33,0.35-0.65,0.53-0.97l0.08-0.15c0.26-0.46,0.52-0.93,0.79-1.38    c0.22-0.37,0.44-0.73,0.66-1.1c0.27-0.45,0.55-0.88,0.83-1.32c0.23-0.36,0.47-0.71,0.71-1.07c0.28-0.42,0.57-0.83,0.86-1.24    c0.25-0.35,0.5-0.69,0.75-1.03c0.3-0.4,0.6-0.79,0.9-1.18c0.26-0.34,0.52-0.67,0.79-1c0.3-0.38,0.62-0.75,0.94-1.12    c0.29-0.34,0.55-0.65,0.82-0.95c0.32-0.36,0.65-0.72,0.98-1.08l0.15-0.16c0.23-0.25,0.46-0.5,0.69-0.74    c0.31-0.32,0.63-0.64,0.95-0.96l0.27-0.27c0.22-0.22,0.45-0.45,0.67-0.66c0.3-0.29,0.61-0.57,0.92-0.86l0.34-0.31    c0.23-0.21,0.45-0.42,0.68-0.62c0.3-0.26,0.61-0.53,0.92-0.8l0.41-0.35c0.21-0.19,0.43-0.37,0.65-0.55    c0.65-0.53,1.3-1.05,1.97-1.56c0.26-0.2,0.54-0.4,0.81-0.6l0.48-0.35c0.26-0.19,0.51-0.38,0.77-0.56    C115.03,181.02,115.16,180.93,115.28,180.85z M421.99,214.82c0.02,0.07,0.05,0.14,0.07,0.2c2.97,9.04,5.04,18.57,6.16,28.32    c0.11,0.94,0.21,1.88,0.3,2.82c0.75,7.83,0.9,15.89,0.45,23.96c10.09-33.03,1.55-65.3-22.46-83.27c-1.39-1.04-2.85-2.04-4.34-2.97    l-0.16-0.1c-1.37-0.85-2.88-1.71-4.42-2.49l-0.16-0.08c-0.25-0.12-0.49-0.25-0.73-0.36c0.27,0.19,0.54,0.38,0.8,0.57    c0.34,0.24,0.67,0.48,0.99,0.73c0.4,0.29,0.79,0.6,1.18,0.9c0.33,0.25,0.65,0.51,0.97,0.77c0.39,0.31,0.77,0.63,1.15,0.95    c0.33,0.27,0.65,0.55,0.96,0.83c0.37,0.33,0.74,0.66,1.11,0.99c0.31,0.29,0.63,0.58,0.94,0.88c0.36,0.34,0.72,0.7,1.07,1.05    c0.31,0.31,0.62,0.62,0.92,0.93c0.35,0.36,0.69,0.73,1.03,1.1l0.08,0.09c0.27,0.29,0.54,0.59,0.81,0.89    c0.34,0.38,0.67,0.77,0.99,1.16l0.12,0.14c0.25,0.3,0.5,0.59,0.74,0.89c0.28,0.35,0.57,0.73,0.86,1.1l0.21,0.27    c0.23,0.3,0.46,0.6,0.68,0.9c0.27,0.37,0.54,0.75,0.8,1.13l0.27,0.39c0.21,0.29,0.41,0.59,0.61,0.89    c0.26,0.39,0.51,0.79,0.76,1.18l0.26,0.41c0.19,0.3,0.38,0.6,0.57,0.91c0.25,0.41,0.49,0.83,0.72,1.25l0.26,0.46    c0.17,0.3,0.35,0.6,0.51,0.91c0.23,0.42,0.45,0.85,0.67,1.28l0.28,0.54c0.15,0.29,0.3,0.59,0.45,0.89    c0.22,0.46,0.44,0.94,0.65,1.41l0.25,0.54c0.14,0.29,0.27,0.58,0.4,0.88c0.24,0.55,0.47,1.12,0.69,1.7l0.18,0.45    c0.11,0.26,0.21,0.51,0.31,0.78C421.34,212.91,421.67,213.86,421.99,214.82z M452.22,229.72c0.4,2.9,0.66,5.83,0.8,8.78    c0.54-1.07,1.27-2.05,2.17-2.87c0.78-0.71,1.66-1.29,2.6-1.72c-0.97-0.29-1.9-0.72-2.74-1.3    C453.92,231.84,452.96,230.85,452.22,229.72z M54.23,233.92c0.92,0.43,1.79,1,2.56,1.7c0.91,0.83,1.64,1.81,2.18,2.88    c0.11-2.38,0.31-4.78,0.59-7.11c0.06-0.54,0.13-1.08,0.21-1.61c-0.72,1.11-1.66,2.08-2.78,2.84    C56.13,233.2,55.2,233.63,54.23,233.92z M463.15,234.06L463.15,234.06C463.16,234.06,463.16,234.06,463.15,234.06z M47.31,231.45    l0.26,0.2l-5.23-4.93L47.31,231.45z M72.37,182.32c0.25,0.45,0.48,0.92,0.66,1.41c1.04,2.79,0.79,5.9-0.7,8.49    c-2.93,5.1-5.35,10.66-7.25,16.64c0.84-2.2,1.77-4.37,2.77-6.48c0.65-1.37,1.34-2.73,2.05-4.04c0.36-0.66,0.72-1.32,1.1-1.97    c1.11-1.94,2.32-3.86,3.57-5.71c1.26-1.85,2.6-3.66,3.99-5.38c8.83-10.98,20.33-19.55,33.27-24.79c-0.2,0.06-0.39,0.13-0.59,0.19    c-11.69,3.88-21.6,10.15-29.47,18.65c-2.07,2.24-5.06,3.41-8.1,3.17C73.23,182.48,72.79,182.41,72.37,182.32z M400.12,160.48    l0.13,0.05c0.98,0.4,1.93,0.8,2.86,1.23l0.38,0.17c0.98,0.45,1.97,0.92,2.95,1.42l0.22,0.11c2.09,1.07,4.08,2.19,5.98,3.38    l0.17,0.11c1.92,1.2,3.86,2.52,5.69,3.9c12.84,9.61,22.52,22.57,28.37,37.87c-0.24-0.75-0.48-1.48-0.74-2.22    c-1.76-5.07-3.93-9.87-6.46-14.27c-1.48-2.58-1.74-5.69-0.7-8.48c0.18-0.49,0.41-0.97,0.66-1.42c-0.43,0.09-0.86,0.15-1.31,0.19    c-3.04,0.23-6.02-0.94-8.1-3.17c-7.87-8.49-17.78-14.76-29.47-18.65C400.55,160.62,400.33,160.55,400.12,160.48z M445.51,178.62    l8.63,1.06l-8.55-1.16C445.56,178.55,445.53,178.58,445.51,178.62z M444.92,178.54l0.43,0.05c0.05-0.03,0.1-0.06,0.14-0.1    l-0.21-0.03L444.92,178.54z M213.98,163.45c0.05,0.05,0.09,0.09,0.13,0.13C214.07,163.54,214.02,163.49,213.98,163.45z     M213.89,163.38l0.05,0.06C213.92,163.42,213.9,163.4,213.89,163.38z M213.61,161.31l-0.11,0.09    C213.54,161.38,213.57,161.35,213.61,161.31z M298.61,161.37c0.02,0.01,0.04,0.02,0.06,0.02L298.61,161.37z M298.55,161.37    c0.01,0,0.02,0.01,0.03,0.01L298.55,161.37z M297.32,161.25L297.32,161.25L297.32,161.25z M377.77,154.26    c0.1,0.02,0.2,0.04,0.31,0.06c0.72,0.13,1.46,0.28,2.19,0.43l0.17,0.04c0.44,0.09,0.88,0.18,1.32,0.28    c0.76,0.16,1.53,0.34,2.3,0.52l0.34,0.08c0.37,0.09,0.74,0.17,1.12,0.27c0.77,0.19,1.55,0.39,2.33,0.6    c-1.52-0.94-2.78-2.28-3.62-3.89c-0.35-0.67-0.61-1.36-0.8-2.07c-0.38,0.5-0.81,0.97-1.28,1.4    C380.89,153.09,379.38,153.87,377.77,154.26z M128.56,150.56c-0.18,0.69-0.44,1.37-0.77,2.01c-0.84,1.63-2.1,2.99-3.63,3.94    c0.82-0.22,1.64-0.43,2.45-0.62l0.3-0.07c1.18-0.28,2.34-0.55,3.49-0.79l0.85-0.18c1.01-0.21,2-0.4,2.97-0.58    c-1.62-0.38-3.13-1.17-4.39-2.31C129.36,151.52,128.94,151.06,128.56,150.56z M393.77,144.92h0.01H393.77z M242.8,95.73    c1.5,0.9,2.76,2.2,3.62,3.79c1.07,1.98,2.82,3.54,4.92,4.39c1.62,0.65,2.99,1.7,4.04,3c0.96-1.38,2.26-2.51,3.83-3.28    c1.84-0.89,3.37-2.36,4.33-4.12c0.86-1.59,2.11-2.88,3.6-3.79c-1.36-1.09-2.44-2.54-3.08-4.25c-0.89-2.36-2.72-4.32-5.01-5.38    c-1.58-0.73-2.91-1.85-3.9-3.21c-1.02,1.32-2.38,2.39-3.98,3.07c-2.41,1.03-4.33,3.04-5.26,5.51    C245.26,93.18,244.17,94.64,242.8,95.73z M243.87,36.08l0.01,0.01C243.88,36.09,243.87,36.09,243.87,36.08z"/></g><g><g><g><path class="st1" d="M319.64,103.36l-7.39-7.2l7.78-8.75c2.94-3.3,2.64-8.36-0.66-11.29c-3.3-2.94-8.36-2.64-11.29,0.66      l-9.7,10.92l-35.02,0.35l-0.34-34.13l11.74-10.44c3.3-2.94,3.6-7.99,0.66-11.29c-2.94-3.3-7.99-3.6-11.29-0.66l-8.75,7.78      l-7.2-7.39c-3.09-3.16-8.15-3.23-11.31-0.14s-3.23,8.15-0.14,11.31l10.3,10.56l0.34,34.4l-33.83-0.33l-9.7-10.92      c-2.94-3.3-7.99-3.6-11.29-0.66c-3.3,2.94-3.6,7.99-0.66,11.29l7.78,8.75l-7.39,7.2c-3.16,3.09-3.23,8.15-0.14,11.31      s8.15,3.23,11.31,0.14l10.56-10.3l33.53-0.33l0.49,49.58c0.04,4.39,3.62,7.92,8,7.92c0.03,0,0.05,0,0.08,0      c4.42-0.04,7.96-3.66,7.92-8.08l-0.49-49.44l34.4,0.34l10.56,10.3c3.16,3.08,8.23,3.02,11.31-0.14S322.8,106.45,319.64,103.36z"/></g><g><path class="st2" d="M234.46,37.86c-0.05-1,0.09-2,0.42-2.96L234.46,37.86z M320.03,87.41c2.57-2.89,2.66-7.12,0.43-10.1      c-1.1,1.05-2.28,1.76-3.45,1.75c-4.45-0.04-15.43,16.54-15.43,16.54h-37.05l-1.18-7.55l-0.34-34.13l11.74-10.44      c3.03-2.69,3.52-7.17,1.31-10.44c-0.19-0.06-0.41-0.32-0.65-0.85c-0.17-0.19-0.34-0.36-0.52-0.53      c-3.57-1.69-19.92,13.56-19.92,13.56s-10.96-12.01-15.54-11.14c-4.57,0.87-4.98,3.81-4.98,3.81c0.09,1.89,0.83,3.75,2.25,5.21      l10.3,10.56l8.93-0.72v95.57l-7.93-2.14l-0.53-46.71h-0.32v-4.04h-34.29c0,0-12.43-14.82-15-15.68      c-2.12-0.71-6.7-0.94-7.83,3.96c0.29,1.27,0.89,2.49,1.82,3.53l5.34,6.01l1.93,2.18l0,0l0.51,0.57l-0.01,0.01l3.82,4.52      c0,0-9.11,6.8-12.49,12.46c0.32,0.54,0.7,1.05,1.15,1.51c3.08,3.16,8.15,3.23,11.31,0.14l10.56-10.3l33.53-0.33l0.49,49.58      c0.04,4.39,3.62,7.92,8,7.92c0.03,0,0.05,0,0.08,0c4.42-0.04,7.96-3.66,7.92-8.08l-0.49-49.44l34.4,0.34l10.56,10.3      c3.16,3.08,8.23,3.02,11.31-0.14c0.02-0.02,0.03-0.04,0.05-0.05c-13.67-9.73-7.58-18.46-7.58-18.46L320.03,87.41z"/></g></g><g><g><path class="st1" d="M301.59,183.76c0,22.25-20.87,40.29-46.61,40.29s-46.61-18.04-46.61-40.29s20.87-40.29,46.61-40.29      S301.59,161.51,301.59,183.76z M144.73,361.14l-21.35,24.56l4,12.43l130.21,31.64l74.72-12.64l53.5-29.97v-18.28l-43.3-12.54       M206.42,461.64c44.76,4.75,112.04,5.9,179.44-15.32v-41.17c-44.19,13.17-87.98,17.35-125.68,17.35      c-20.91,0-39.94-1.28-56.13-3.02c-34.16-3.66-60.58-9.69-74.74-13.4v41.34C141,450.67,169.19,457.69,206.42,461.64z"/></g><g><path class="st2" d="M208.37,183.76c0-6.69,1.9-13,5.24-18.55c4.32,8.73,12.56,14.58,22.2,16.94      c8.01,1.96,16.58,1.77,24.24-1.17c10.65-1.18,20.43-6.27,24.85-16.6c1.31-3.06,2.13-6.39,2.32-9.69      c8.84,7.33,14.36,17.64,14.36,29.07c0,22.25-20.87,40.29-46.61,40.29C229.24,224.06,208.37,206.02,208.37,183.76z       M385.86,405.16v41.17c-6.6,2.08-13.2,3.93-19.77,5.6c9.03-12.16,12.26-26.25,6.32-29.8c-8.26-4.93-22.65,8.77-120.39,11.5      c-78.83,2.2-112.59-14.23-122.71-20.68v-6.86c14.15,3.72,40.58,9.74,74.74,13.4c5.62,0.6,11.59,1.15,17.85,1.61l-94.52-22.97      l-4-12.43l21.35-24.56l197.77-4.8l43.3,12.54v18.28l-53.44,29.94C349.87,414.39,367.83,410.54,385.86,405.16z M210.3,375.89      l-58.14-7.33c0,0-2.29,10.27,6.71,16.7c9,6.43,54.64,11.72,58.18,7.79C220.59,389.13,210.3,375.89,210.3,375.89z M359.21,378.31      c0.23-9.74-6.09-14.89-6.09-14.89l-57.4,19.74c0,0-2.45,10.1,9.42,11.25C317.02,395.56,358.98,388.05,359.21,378.31z"/></g></g><g><g><path class="st3" d="M234.09,383.52c-48.12,3.39-86.63-11.64-108.29-30.4c-21.65-18.75-44.71-79.07-26.36-135      s99.29-42.43,99.29-42.43l39.48,12.07l11.58,9.74l19.32,0.06c0,0,22.26-22.34,28.74-24.37c6.48-2.03,15.43,2.5,15.43,2.5      s80.93-13.5,99.29,42.43c18.36,55.93-4.7,116.25-26.36,135c-21.65,18.75-60.17,33.79-108.29,30.4"/></g><g><path class="st4" d="M269.89,196.79c3.98-3.94,22.19-21.78,27.95-23.59c6.48-2.03,15.43,2.5,15.43,2.5s8.63-1.44,20.89-1.43l0,0      c0,0,8.58,15.36,10.72,17.07s30.86,44.14,9,103.29c-17.71,47.93-54,71.09-67.12,78.15l2.41-11.64      c23.57-28.2,49.71-102.08,30.86-143.65C302.03,177.83,272.56,195.11,269.89,196.79z M277.62,383.52h0.29      c2,0.14,3.98,0.24,5.95,0.32c1.44-4.19,2.3-8.21,2.3-8.21l0.59-2.85c-3.07,1.65-4.88,2.42-4.88,2.42L277.62,383.52z       M412.55,218.13c-9.5-28.95-35.77-39.3-58.9-42.54c15,5.3,39.08,20.17,47.79,61.61c13.03,61.96-33.79,127.37-57.17,138.69      c17.31-5.66,31.55-13.78,41.93-22.76C407.85,334.37,430.91,274.06,412.55,218.13z M181.16,276.2      c-0.29-63.02,21.78-88.51,39.85-93.69l-22.28-6.81c0,0-13.57-2.26-30.85-1.09l-0.35,0.96c0,0-51.63,1.19-53.65,80.49      c-1.37,53.75,27.47,95.67,46.2,117.11c19.51,7.6,43.57,12.02,70.81,10.55C230.48,383.53,181.55,360.79,181.16,276.2z"/></g><g><path class="st5" d="M151.25,176.8c-21.18,4.31-43.27,15.3-51.81,41.33c-18.36,55.93,4.7,116.25,26.36,135      c1.22,1.06,2.51,2.11,3.84,3.14c-9.41-14.66-23.05-42.88-27.77-88.21C94.39,196.24,151.25,176.8,151.25,176.8z"/></g><g><path class="st5" d="M347.02,177.33c30,15.99,42.85,74.01,15.02,132.3c-12.9,27.02-28.95,45.46-42.45,57.48v10.37      c17.44-14.42,62.81-57.6,66.27-118.85C390.14,182.68,347.02,177.33,347.02,177.33z"/></g></g><g><g><path class="st1" d="M189.42,168.09c0,0-26.56-13.06-67.77-0.47C80.44,180.2,56.66,227.13,75.3,278.56s39.86,66.79,39.86,66.79      l-13.39,15.8c0,0-34.19-26.65-47.04-79.37s-0.64-112.64,53.36-130.57s89.76-1.38,102.21,16.41c12.45,17.8,3.86,5.59,3.86,5.59       M322.58,168.09c0,0,26.56-13.06,67.77-0.47c41.21,12.59,64.99,59.52,46.35,110.94s-39.86,66.79-39.86,66.79l13.39,15.8      c0,0,34.19-26.65,47.04-79.37s0.64-112.64-53.36-130.57s-89.76-1.38-102.21,16.41c-12.45,17.8-3.86,5.59-3.86,5.59       M164.66,285.63c-17.36-60.43,7.71-103.5,39.86-102.86c21.69,0.43,32.83,8.77,37.79,14.14h7.67c0.71-2.56,0.07-6.45-4.32-12.21      c-10.29-13.5-61.49-29.59-86.68-1.94c-25.18,27.65-27.53,97.72,0,138.86c27.53,41.14,69.86,56.11,69.86,56.11v-16.6      C228.84,361.14,182.02,346.06,164.66,285.63z M353.01,182.76c-25.18-27.65-76.39-11.56-86.68,1.94      c-4.39,5.77-5.03,9.65-4.32,12.21h7.67c4.96-5.38,16.1-13.71,37.79-14.14c32.14-0.64,57.21,42.43,39.86,102.86      c-17.36,60.43-64.18,75.51-64.18,75.51v16.6c0,0,42.32-14.97,69.86-56.11C380.55,280.49,378.2,210.41,353.01,182.76z"/></g><g><path class="st2" d="M210.3,167.61c0.29,0.41,0.55,0.79,0.82,1.17c-2.35-0.4-4.75-0.7-7.17-0.9      C207.86,167.39,210.3,167.61,210.3,167.61z M179.04,147.16c-25.8-3.99-77.03-4.38-103.74,47.18      c-35.32,68.17,1.88,125.58,33.57,158.42l6.29-7.42c0,0-21.21-15.36-39.86-66.79c-18.64-51.43,5.14-98.36,46.35-110.94      c28.01-8.55,49.23-5.26,59.97-2.28c14.29-0.4,27.06-0.07,28.68,2.28C204.6,159.47,194.01,151.6,179.04,147.16z M378.45,151.27      c-49.78-5.79-67.18,13.5-67.18,13.5l-8.41,1.26c-0.09,0.12-0.17,0.24-0.26,0.35c7.26-0.65,14.29-0.03,20.83,1.31      c4.83-2.06,29.98-11.37,66.9-0.09c8.13,2.48,15.58,6.31,22.16,11.24c12.09,4.2,39.88,18.95,38.87,65.64      c-1.29,59.6-28.93,86.57-28.93,86.57l-6.92-8.2c-10.59,16.61-18.69,22.49-18.69,22.49l13.39,15.8c0,0,34.19-26.65,47.04-79.37      c6.45-26.44,6.59-54.7-1.69-78.56C443.5,186.22,418.95,155.98,378.45,151.27z M211.12,168.78c11.23,16.05,3.04,4.42,3.04,4.42      l-17.89-3.7c-14.53,4.32-36.31,18.02-45.02,60.84c-13.6,66.86,27.94,108.14,48.08,121.25s29.51,26.15,29.51,26.15v-16.6      c0,0-46.82-15.08-64.18-75.51c-17.36-60.43,7.71-103.5,39.86-102.86c21.69,0.43,32.83,8.77,37.79,14.14h7.67      c0.71-2.56,0.07-6.45-4.32-12.21C240.84,178.37,227.03,171.48,211.12,168.78z M344.95,175.87c-6.65-1.87-15.64-3.26-27.67-3.2      c-32.27,0.17-45.55,20.33-47.82,24.24h0.22c4.96-5.38,16.1-13.71,37.79-14.14c8.69-0.17,16.87,2.86,23.83,8.56l0,0      c0,0,37.45,10.81,34.56,60.98c-2.89,50.16-36.37,91.66-57.75,106.06c-21.37,14.41-18.97,2.77-18.97,2.77l0.92-2.97      c-4.27,2.11-6.92,2.97-6.92,2.97v16.6c0,0,42.32-14.97,69.86-56.11c27.53-41.14,25.18-111.21,0-138.86      C350.55,180.06,347.84,177.78,344.95,175.87z"/></g></g><g><g><path class="st1" d="M257.6,317.12l-38.12,22.01v44.02l38.12,22.01l38.12-22.01v-44.02L257.6,317.12z M276.98,372.33      l-19.39,11.19l-19.39-11.19v-22.39l19.39-11.19l19.39,11.19V372.33z M385.8,312.77l-26.36,18.6v37.2l26.36,18.6l26.36-18.6      v-37.2L385.8,312.77z M399.2,359.42l-13.4,9.46l-13.4-9.46v-18.91l13.4-9.46l13.4,9.46V359.42z M99.44,331.37v37.2l26.36,18.6      l26.36-18.6v-37.2l-26.36-18.6L99.44,331.37z M112.4,340.51l13.4-9.46l13.4,9.46v18.91l-13.4,9.46l-13.4-9.46V340.51z       M112.05,391.52c1.52-4.73,6.59-7.34,11.32-5.81c0.53,0.17,33.95,10.72,83.04,15.94c45.21,4.8,113.38,5.94,181.45-15.94      c4.73-1.52,9.8,1.08,11.32,5.81c1.52,4.73-1.08,9.8-5.81,11.32c-46.72,15.02-93.36,19.67-133.2,19.67      c-20.91,0-39.94-1.28-56.13-3.02c-50.96-5.46-84.76-16.2-86.17-16.65C113.14,401.32,110.53,396.25,112.05,391.52z M387.87,445.7      c-68.07,21.88-136.24,20.74-181.45,15.94c-49.09-5.22-82.51-15.77-83.04-15.94c-4.73-1.52-9.8,1.08-11.32,5.81      c-1.52,4.73,1.08,9.8,5.81,11.32c1.41,0.45,35.21,11.19,86.17,16.65c16.2,1.73,35.23,3.02,56.13,3.02      c39.84,0,86.48-4.65,133.2-19.67c4.73-1.52,7.34-6.59,5.81-11.32C397.67,446.79,392.6,444.18,387.87,445.7z M254.98,75.19      c-10.89,0-19.72,8.83-19.72,19.72s8.83,19.72,19.72,19.72c10.89,0,19.72-8.83,19.72-19.72S265.87,75.19,254.98,75.19z"/></g><g><path class="st2" d="M295.72,339.13l0.7,44.8l-38.82,21.23l-1.55-6.39L287.21,383l3.45-44.25 M224.78,342.84v36.13l29.83,14.09      l-25.78-15.31l2.04-32.4l26.71-17.41 M365.87,335.13l2.27,32.21l21.81,10.68l-19.88-14.03v-28.05l19.88-14.03 M133.54,318.23      l14.7,13.14l-1.1,35.97l-21.35,19.82l26.36-18.6v-37.2"/></g></g><g><g><path class="st3" d="M384.62,134.7c12.23,0,12.25,19,0,19C372.4,153.7,372.38,134.7,384.62,134.7z M445.05,187.77      c12.25,0,12.23-19,0-19C432.81,168.77,432.83,187.77,445.05,187.77z M463.05,243.06c12.25,0,12.23-19,0-19      C450.81,224.06,450.83,243.06,463.05,243.06z M455.34,298.99c12.25,0,12.23-19,0-19C443.09,279.99,443.11,298.99,455.34,298.99z       M434.12,344.63c12.25,0,12.23-19,0-19C421.88,325.63,421.9,344.63,434.12,344.63z M127.37,153.7c-12.25,0-12.23-19,0-19      C139.62,134.7,139.6,153.7,127.37,153.7z M66.94,168.77c-12.23,0-12.25,19,0,19C79.17,187.77,79.19,168.77,66.94,168.77z       M48.94,224.06c-12.23,0-12.25,19,0,19C61.17,243.06,61.19,224.06,48.94,224.06z M56.66,279.99c-12.23,0-12.25,19,0,19      C68.88,298.99,68.9,279.99,56.66,279.99z M77.87,325.63c-12.23,0-12.25,19,0,19C90.1,344.63,90.12,325.63,77.87,325.63z       M214.16,173.2c-14.18,0-14.16-22,0-22C228.34,151.2,228.31,173.2,214.16,173.2z M160.8,164.7c-14.16,0-14.18,22,0,22      C174.96,186.7,174.98,164.7,160.8,164.7z M142.16,209.7c-14.16,0-14.18,22,0,22C156.31,231.7,156.34,209.7,142.16,209.7z       M140.87,262.41c-14.16,0-14.18,22,0,22C155.03,284.41,155.05,262.41,140.87,262.41z M158.87,308.06c-14.16,0-14.18,22,0,22      C173.03,330.06,173.05,308.06,158.87,308.06z M185.23,345.34c-14.16,0-14.18,22,0,22C199.39,367.34,199.41,345.34,185.23,345.34      z M297.84,151.2c14.16,0,14.18,22,0,22C283.68,173.2,283.66,151.2,297.84,151.2z M351.2,186.7c14.18,0,14.16-22,0-22      C337.02,164.7,337.04,186.7,351.2,186.7z M369.84,231.7c14.18,0,14.16-22,0-22C355.66,209.7,355.68,231.7,369.84,231.7z       M371.12,284.41c14.18,0,14.16-22,0-22C356.94,262.41,356.97,284.41,371.12,284.41z M353.12,330.06c14.18,0,14.16-22,0-22      C338.94,308.06,338.97,330.06,353.12,330.06z M326.77,367.34c14.18,0,14.16-22,0-22C312.59,345.34,312.61,367.34,326.77,367.34z       M286.35,377.74l-28.76,16.6l-28.76-16.6l0-33.2l28.76-16.6l28.76,16.6V377.74z M409.83,335.94l-19.88-14.03l-19.88,14.03v28.05      l19.88,14.03l19.88-14.03V335.94z M101.77,363.99l19.88,14.03l19.88-14.03l0-28.05l-19.88-14.03l-19.88,14.03L101.77,363.99z       M274.44,444.63c0.06,1.51-0.26,2.93-0.95,4.24c-0.44,1.36-1.2,2.54-2.27,3.54c-1,1.07-2.18,1.83-3.54,2.27      c-1.31,0.69-2.72,1-4.24,0.95h-0.43c-1.99-0.01-3.84-0.51-5.55-1.5c-0.74-0.57-1.48-1.15-2.23-1.72      c-1.36-1.37-2.31-2.99-2.83-4.85c-0.13-0.97-0.26-1.95-0.39-2.92c-0.06-1.51,0.26-2.93,0.95-4.24c0.44-1.36,1.2-2.54,2.27-3.54      c1-1.07,2.18-1.83,3.54-2.27c1.31-0.69,2.72-1,4.24-0.95h0.43c1.99,0.01,3.84,0.51,5.55,1.5c0.74,0.57,1.48,1.15,2.23,1.72      c1.36,1.37,2.31,2.99,2.83,4.85L274.44,444.63z M209.44,429.77c-14.16,0-14.18,22,0,22      C223.6,451.77,223.62,429.77,209.44,429.77z M162.73,424.63c-14.16,0-14.18,22,0,22C176.89,446.63,176.91,424.63,162.73,424.63z       M312.73,451.77c14.18,0,14.16-22,0-22C298.55,429.77,298.57,451.77,312.73,451.77z M359.44,446.63c14.18,0,14.16-22,0-22      C345.26,424.63,345.29,446.63,359.44,446.63z M254.98,83.29c-6.41,0-11.61,5.2-11.61,11.61c0,6.41,5.2,11.61,11.61,11.61      s11.61-5.2,11.61-11.61C266.59,88.49,261.39,83.29,254.98,83.29z"/></g><g><path class="st4" d="M158.87,330.06c-12.34,0-13.92-16.66-4.79-20.98c-0.21,0.2-0.4,0.41-0.57,0.64      c-1.19,0.48-2.37,1.41-2.94,2.51c-0.72,1.37-1.09,3.03-0.59,4.55c0.45,1.4,1.34,2.85,2.71,3.53c0.99,0.49,2.02,1.01,3.12,1.22      c2.16,0.41,4.15,0.17,5.92-1.2c1.71-1.32,2.54-3.21,2.63-5.35c0.05-1.09-0.18-2.21-0.44-3.26c-0.32-1.33-1.34-2.63-2.5-3.38      C172.99,310.79,172.12,330.06,158.87,330.06z M61.82,281.44c0.49,1.08,0.61,2.37,0.4,3.53c0.18,0.62,0.29,1.26,0.34,1.94      c0.11,1.55-0.71,3.06-1.73,4.17c-1.06,1.16-2.65,1.66-4.17,1.73c-1.47,0.07-3.15-0.7-4.17-1.73c-0.61-0.61-1.02-1.3-1.3-2.06      c-0.16-0.25-0.32-0.49-0.48-0.74c-0.78-1.22-1.14-2.51-1.24-3.94c-0.03-0.37,0.01-0.74,0.07-1.09      c-4.27,5.43-1.91,15.73,7.11,15.73C66.81,298.99,68.54,285.88,61.82,281.44z M127.37,153.7c10.97,0,12.1-15.28,3.38-18.43      c0.14,0.25,0.28,0.49,0.4,0.75c0.37,0.24,0.72,0.51,1.03,0.79c1.16,1.06,1.66,2.65,1.73,4.17c0.07,1.47-0.7,3.15-1.73,4.17      c-0.82,0.82-1.82,1.3-2.9,1.55c0.05-0.01,0.1-0.01,0.15-0.02c-0.5,0.08-0.98,0.25-1.46,0.38c-1.03,0.27-2.11,0.43-3.17,0.46      c-3.19,0.11-5.9-2.79-5.9-5.9c0-0.46,0.02-0.92,0.05-1.38C116.71,145.86,119.5,153.7,127.37,153.7z M54.7,225.94      c0.08,0.39,0.13,0.79,0.14,1.18c0.02,0.43-0.04,0.87-0.15,1.31c0.09,0.41,0.15,0.83,0.15,1.26c-0.07,0.52-0.14,1.05-0.21,1.57      c-0.34,1.5-1.45,2.71-2.71,3.53c-1.25,0.81-3.13,0.98-4.55,0.59c-1.31-0.36-2.92-1.44-3.53-2.71c-0.89-1.86-1.45-3.65-1.17-5.73      c0.03-0.23,0.09-0.46,0.14-0.68c-5.55,5.01-3.52,16.79,6.13,16.79C58.79,243.06,60.71,230.74,54.7,225.94z M129.64,356.27      l-11.44,11.07l-16.43-19.77v16.42l19.88,14.03l19.88-14.03v-28.05l-11.33-7.99L129.64,356.27z M70.12,169.26      c0.48,0.53,0.83,1.15,1.06,1.82c0.98,0.81,1.69,1.78,2.1,3.05c0.49,1.52,0.13,3.18-0.59,4.55c-0.67,1.28-2.16,2.33-3.53,2.71      c-1.38,0.38-3.33,0.23-4.55-0.59c-1.6-1.08-3.25-2.38-4.19-4.12c-0.72-1.33-1.06-2.84-0.82-4.34      c-3.95,5.5-1.52,15.44,7.34,15.44C78,187.77,79.07,172.23,70.12,169.26z M81.05,326.12c0.95,1.05,1.37,2.48,1.43,3.87      c0.03,0.81-0.14,1.57-0.51,2.27c-0.24,0.73-0.64,1.36-1.22,1.9c-1.07,1.07-2.66,1.73-4.17,1.73c-0.94,0-1.89-0.05-2.8-0.3      c-1.3-0.36-2.36-1.13-3.3-2.07c-0.54-0.54-0.94-1.17-1.22-1.85c-1.9,5.56,0.97,12.96,8.61,12.96      C88.93,344.63,90,329.1,81.05,326.12z M102.72,335.27l-0.95,0.67v2.07L102.72,335.27z M371.12,284.41c-14.16,0-14.18-22,0-22      C385.28,262.41,385.3,284.41,371.12,284.41z M376.91,270.84c-0.02-0.4-0.07-0.8-0.15-1.19c0.02-0.21,0.04-0.43,0.03-0.64      c-0.02-0.35-0.13-1.31-0.23-1.65c-0.22-0.78-0.6-1.43-1.09-2.06c-0.38-0.49-0.31-0.45-0.56-0.68c-1.29-1.23-2.97-1.83-4.74-1.87      c-1.55-0.03-2.71,0.44-4.08,1.07c-0.4,0.31-0.8,0.61-1.19,0.92c-0.58,0.53-0.98,1.17-1.22,1.9c-0.27,0.46-0.4,0.96-0.4,1.49      c-0.18,0.78-0.14,1.57,0.11,2.35c0.11,0.72,0.21,1.47,0.47,2.16c0.46,1.23,0.82,1.98,1.7,2.95c0.7,0.78,1.8,1.39,2.8,1.66      c2.14,0.59,4.29-0.08,5.91-1.51c0.32-0.21,0.63-0.45,0.91-0.74c0.58-0.53,0.98-1.17,1.22-1.9      C376.78,272.41,376.94,271.65,376.91,270.84z M359.95,216.47c-2.34,6.47,0.96,15.23,9.89,15.23c12.5,0,13.96-17.09,4.43-21.14      c0.26,0.24,0.51,0.49,0.74,0.78c1.49,1.93,1.59,4.43,0.46,6.55c-0.65,1.23-1.61,2.33-2.52,3.37c-0.84,0.95-1.65,1.75-2.87,2.26      c-4.06,1.71-7.22-1.25-9.29-4.34C360.21,218.34,359.96,217.41,359.95,216.47z M144.46,262.95c1.11,0.82,1.96,1.91,2.34,3.3      c0.26,0.97,0.3,2.25-0.01,3.21c-0.01,0.03-0.03,0.09-0.05,0.13c0,0.02-0.01,0.05-0.01,0.07c0.02,0.18,0.03,0.36,0.04,0.53      c0.07,1.57-0.7,3.05-1.73,4.17c-1.06,1.16-2.65,1.66-4.17,1.73c-1.47,0.07-3.15-0.7-4.17-1.73c-0.81-0.81-1.3-1.82-1.55-2.9      c0,0.04,0.01,0.07,0.01,0.11c-0.07-0.36-0.25-0.69-0.37-1.04c-0.34-0.92-0.44-1.94-0.46-2.92c-0.04-1.63,0.7-3.15,1.85-4.25      c-9.24,4.25-7.7,21.03,4.69,21.03C153.71,284.41,154.92,266.32,144.46,262.95z M384.62,153.7c10.93,0,12.08-15.11,3.52-18.37      c0.33,0.51,0.58,1.07,0.73,1.66c0.14,0.56,0.21,1.21,0.25,1.78c0.01,0.1,0.01,0.19,0.01,0.29c0,1.6-0.67,3.02-1.73,4.17      c-1.06,1.16-2.65,1.66-4.17,1.73c-0.34,0.01-0.68-0.02-1-0.08c-0.83,0.11-1.7,0.05-2.5-0.13c-1.5-0.34-2.71-1.45-3.53-2.71      c-0.15-0.23-0.26-0.48-0.37-0.72C374.33,146.8,377.25,153.7,384.62,153.7z M136.42,211.94c0.24-0.46,0.56-0.86,0.93-1.21      c-9.11,4.33-7.53,20.97,4.81,20.97c13.24,0,14.11-19.23,2.58-21.73c0.47,0.29,0.9,0.69,1.28,1.15c0.11,0.09,0.21,0.17,0.31,0.27      c1.09,1,1.73,2.72,1.73,4.17c0,0.86-0.2,1.65-0.54,2.38c-0.05,0.29-0.08,0.58-0.16,0.86c-0.56,1.86-1.8,3.47-3.5,4.42      c-1.18,0.66-2.44,0.88-3.76,0.7c-1.24-0.17-2.51-0.68-3.39-1.62c-1.82-1.96-2.76-4.5-2-7.15      C135.08,213.81,135.81,213.08,136.42,211.94z M160.8,186.7c12.1,0,13.87-16.07,5.26-20.74c0.44,0.82,0.68,1.74,0.64,2.66      c-0.04,0.93-0.14,1.92-0.43,2.81c0.09,0.57,0.09,1.16,0.01,1.75c-0.19,1.41-0.76,2.68-1.84,3.65c-1,1.65-2.72,2.72-4.93,2.82      c-2.75,0.12-5.58-2.32-5.88-5.1c-0.2-0.36-0.35-0.75-0.45-1.16c-0.07-0.52-0.14-1.05-0.21-1.57c0.21-1.57,0.55-2.92,1.48-4.2      c0.23-0.32,0.48-0.63,0.71-0.95c0.09-0.13,0.17-0.27,0.23-0.39c0.19-0.51,0.17-0.34,0,0c-0.07,0.19-0.17,0.47-0.3,0.87      c-0.03,0.24-0.07,0.49-0.1,0.73c0.02-0.06,0.04-0.12,0.05-0.19c0.13-0.64,0.3-1.23,0.57-1.79      C146.94,170.53,148.64,186.7,160.8,186.7z M254.98,106.52c6.41,0,11.61-5.2,11.61-11.61c0-6.14-4.76-11.15-10.79-11.57      c0.31,0.2,0.62,0.4,0.92,0.62c1.1,0.52,2.1,1.37,2.86,2.59c0.32,0.51,0.56,1.03,0.73,1.56c0.06,0.13,0.14,0.26,0.19,0.39      c1.04,2.46,0.84,5.39-0.73,7.6c-2.08,2.95-5.79,5.14-9.48,4.64c-1.94-0.26-3.49-1.28-4.56-2.94c-0.58-0.9-0.77-1.87-0.78-2.85      c-0.31-1.4-0.54-2.85-0.44-4.28c0.03-0.38,0.09-0.73,0.15-1.09c-0.83,1.6-1.3,3.41-1.3,5.33      C243.37,101.32,248.57,106.52,254.98,106.52z M187.8,345.61c0.58,0.36,1.1,0.87,1.53,1.46c0.65,0.49,1.2,1.12,1.64,1.8      c0.81,1.25,0.98,3.13,0.59,4.55c-0.38,1.36-1.44,2.86-2.71,3.53c-1.02,0.53-1.72,1.21-2.93,1.48c-2.85,0.66-6.16-0.35-7.71-2.96      c-1.22-2.04-1.33-4.68-0.1-6.74c0.5-0.83,1.24-1.59,2.08-2.11c0.09-0.1,0.2-0.18,0.29-0.28c-9.18,4.29-7.62,21,4.74,21      C198.47,367.34,199.34,348.1,187.8,345.61z M364.53,425.8c0.57,0.48,1.07,1.06,1.45,1.72c0.75,1.32,0.82,2.66,0.91,4.05      c0.12,0.35,0.22,0.72,0.28,1.13c0.15,1.08,0.02,2.05-0.4,3.06c-0.87,2.06-3.06,3.73-5.39,3.63c0,0-0.01,0-0.01,0      c-1.27,0.58-2.75,0.75-4.13,0.43c-1.41-0.32-2.81-1.49-3.53-2.71c-0.79-1.35-0.94-2.97-0.61-4.48c0.05-0.99,0.01-1.96,0.25-2.96      c0.53-2.16,1.96-3.78,4-4.64c0.35-0.15,0.69-0.25,1.04-0.35c-13.11,1.07-12.74,21.95,1.05,21.95      C371.65,446.63,373.32,430.35,364.53,425.8z M438.45,326.61c0.21,0.74,0.24,1.49,0.08,2.23c-0.04,0.79-0.27,1.52-0.7,2.19      c-0.6,0.89-1.24,1.78-1.96,2.58c-0.9,1.01-2.06,1.69-3.34,2.09c-0.51,0.16-1.08,0.24-1.61,0.22c-0.19-0.01-1.43-0.17-1.61-0.21      c-0.22-0.06-1.25-0.49-1.45-0.61c-0.23-0.13-0.44-0.34-0.65-0.49c-0.44-0.34-0.44-0.3-0.64-0.51c-0.21-0.21-0.8-0.99-0.95-1.24      c-0.05-0.08-0.16-0.33-0.28-0.6c-1.51,5.48,1.42,12.38,8.79,12.38C444.7,344.63,446.12,330.48,438.45,326.61z M399.2,340.51      v18.91l-7.19,17.14l17.82-12.57v-28.05l-19.88-14.03L399.2,340.51z M363.27,322.48l-0.09-4.24l0.52-0.23      c-0.43-5.13-3.96-9.94-10.58-9.94c-0.44,0-0.87,0.02-1.29,0.06c0.79,0.12,1.55,0.29,2.27,0.66c1.91,0.38,3.54,1.7,4.3,3.51      c0.51,1.21,0.65,2.56,0.3,3.84c-0.14,0.34-0.29,0.68-0.43,1.02v0.62c0,3.31-2.7,5.76-5.9,5.9c-3.19,0.14-5.9-2.81-5.9-5.9v-0.16      c-0.84-1.03-1.23-2.38-1.29-3.7c-0.06-1.27,0.51-2.69,1.32-3.71c-7.03,5.53-4.82,19.86,6.61,19.86      C358.72,330.06,362.1,326.63,363.27,322.48z M351.2,186.7c11.78,0,13.75-15.17,5.96-20.31c0.1,0.22,0.19,0.44,0.26,0.67      c0.47,1.51,0.61,3.08,0.38,4.55c0.28,0.67,0.44,1.41,0.48,2.16c0.14,3.19-2.81,5.89-5.9,5.9c-0.01,0-0.02,0-0.03,0      c-1.49,0.71-3.19,0.82-4.81,0.13c-1.15-0.49-2.09-1.32-2.73-2.35c-1.19-0.74-2.13-1.91-2.61-3.4c-0.83-2.56,0.62-5.6,2.97-6.82      c0.34-0.51,0.73-0.99,1.14-1.46C337.28,170.17,338.92,186.7,351.2,186.7z M467.82,225.27c0.05,0.11,0.08,0.19,0.08,0.19      c0.01,0.03,0.02,0.06,0.03,0.09c0,0.02,0.01,0.04,0.01,0.05c0.09,0.51,0.15,1.09,0.22,1.61c0.07,0.61,0.05,1.24,0.05,1.85      c0,1.06-0.27,2.06-0.81,2.98c-0.31,0.4-0.61,0.8-0.92,1.19c-0.74,0.73-1.6,1.24-2.6,1.52c-0.52,0.07-1.05,0.14-1.57,0.21      c-0.81,0.03-1.57-0.14-2.27-0.51c-0.73-0.24-1.36-0.64-1.9-1.22c-0.19-0.18-0.36-0.38-0.52-0.58c-0.41-0.36-0.78-0.76-1.05-1.26      c-0.43-0.68-0.66-1.41-0.7-2.19c-0.13-0.57-0.14-1.15-0.04-1.72c-4.1,5.47-1.69,15.58,7.23,15.58      C473.42,243.06,474.99,229.45,467.82,225.27z M451.49,171.27c0.01,0.19,0.02,0.38,0,0.57c-0.04,0.42-0.1,0.83-0.18,1.23      c0.1,0.45,0.16,0.91,0.18,1.35c0.07,1.57-0.7,3.05-1.73,4.17c-1,1.09-2.72,1.73-4.17,1.73c-0.34,0-0.67-0.04-0.98-0.09      c-1.52,0.39-3.17,0.18-4.53-0.62c-0.54-0.31-1.02-0.73-1.44-1.2c-1.15-0.89-1.89-2.42-2.1-3.84      c-2.07,5.59,0.77,13.22,8.51,13.22C454.52,187.77,456.65,176.43,451.49,171.27z M458.36,280.43c0.43,0.46,0.78,1.04,1.02,1.66      c0,0,0.01,0.01,0.02,0.01c1.09,1,1.73,2.72,1.73,4.17c0,1.39-0.63,3.24-1.73,4.17c-0.66,0.56-1.33,1.02-2.06,1.33      c-0.88,0.83-2,1.4-3.25,1.57c-1.34,0.18-2.57-0.07-3.76-0.7c-1.14-0.6-2.5-2.21-2.71-3.53c-0.26-1.63-0.53-3.13-0.1-4.75      c0.02-0.07,0.06-0.14,0.08-0.21c-3.37,5.59-0.78,14.83,7.74,14.83C466.47,298.99,467.46,283.28,458.36,280.43z M332.6,346.94      c0.46,0.62,0.8,1.32,1.03,2.05c0.43,1.32,0.18,3.02-0.45,4.27c-0.03,0.48-0.1,0.96-0.19,1.44c-0.29,1.49-1.48,2.73-2.71,3.53      c-1.34,0.86-3.04,0.94-4.55,0.59c-0.14-0.03-0.28-0.08-0.42-0.13c-1.99-0.14-3.89-1.21-5.39-2.67c-2.04-1.99-2.25-5.66-0.49-7.9      c-6.13,5.91-3.67,19.22,7.34,19.22C338.61,367.34,340.54,352,332.6,346.94z M223.06,156.7c-0.8,3.13-2.23,6.33-5.65,7.25      c-1.88,0.5-3.66,0.08-5.34-0.79c-0.25-0.13-0.49-0.27-0.74-0.4c-0.01,0-0.01-0.01-0.02-0.01c-3.19-0.86-4.83-4.15-4.12-7.26      c0.27-1.19,0.96-2.18,1.86-2.91c0.1-0.11,0.2-0.23,0.3-0.33c0.01-0.01,0.02-0.02,0.03-0.03c-9.14,4.32-7.56,20.98,4.78,20.98      c9.83,0,12.84-10.61,9.01-17.09C223.14,156.31,223.11,156.5,223.06,156.7z M271.22,436.85c-0.35-0.27-0.7-0.54-1.05-0.81      c0.02,0.22,0.03,0.44,0.03,0.66c-0.06,1.92-0.57,3.63-1.74,5.14c-0.15,0.2-0.32,0.38-0.48,0.56c-0.31,0.86-0.82,1.66-1.43,2.33      c-1,1.09-2.72,1.73-4.17,1.73c-1.68,0-2.91-0.71-4.17-1.73c-2.15-1.74-3.9-4.15-3.9-6.83c-0.58,0.75-1.04,1.58-1.34,2.5      c-0.69,1.31-1,2.72-0.95,4.24c0.13,0.97,0.26,1.95,0.39,2.92c0.52,1.86,1.47,3.48,2.83,4.85c0.74,0.57,1.48,1.15,2.23,1.72      c1.72,1,3.57,1.5,5.55,1.5h0.43c1.51,0.06,2.93-0.26,4.24-0.95c1.36-0.44,2.54-1.2,3.54-2.27c1.07-1,1.83-2.18,2.27-3.54      c0.69-1.31,1-2.72,0.95-4.24l-0.39-2.92C273.53,439.84,272.59,438.22,271.22,436.85z M213.45,430.47      c1.15,0.76,2.06,1.91,2.5,3.21c0.75,1.34,0.98,2.99,0.68,4.59c-0.27,1.43-1.21,2.55-2.29,3.44c-0.52,1.08-1.28,1.98-2.27,2.6      c-0.03,0.02-0.05,0.04-0.08,0.06c-0.88,0.56-1.9,0.81-2.92,0.8c-0.04,0-0.07,0-0.11,0c-0.15,0-0.3-0.01-0.46-0.03      c-1.15-0.1-2.26-0.54-3.18-1.27c-0.16-0.13-0.32-0.26-0.47-0.41c0,0-0.01-0.01-0.01-0.01c-1.07-1.07-2.14-2.14-3.21-3.21      c-1.21-1.21-1.81-2.91-1.7-4.59c-3.02,6.52,0.14,16.13,9.51,16.13C222.1,451.77,223.45,434.19,213.45,430.47z M300.23,151.43      c0.03,0.02,0.06,0.04,0.09,0.06c0.82,0.31,1.58,0.82,2.22,1.4c1.16,1.06,1.66,2.65,1.73,4.17c0.05,1.22-0.47,2.57-1.23,3.59      c-0.31,0.61-0.7,1.19-1.19,1.7c-1.24,1.32-3.03,1.79-4.76,1.9c-0.51,0.03-1.01-0.04-1.5-0.18c-2.04-0.16-3.98-1.22-5.24-2.83      c-0.87-1.11-1.44-1.99-1.62-3.39c-0.07-0.54-0.08-1.05-0.01-1.55c-3.66,6.5-0.61,16.91,9.13,16.91      C311.17,173.2,311.94,153.77,300.23,151.43z M317.28,430.68c0.64,0.48,1.2,1.04,1.62,1.76c0.66,1.13,0.78,2.31,0.8,3.53      c1.36,2.82,0.36,6.05-2.27,7.75c-2.17,1.4-5.22,0.89-7.07-0.85c-1.77-0.01-3.41-0.56-4.75-1.79c-1.34-1.22-1.86-2.95-1.71-4.63      c-0.04-0.29-0.09-0.58-0.12-0.89c-0.03-0.38,0.01-0.75,0.08-1.11c-4.04,6.46-1.08,17.32,8.87,17.32      C325.18,451.77,326.68,434.82,317.28,430.68z M276.98,349.95v22.39l-19.39,11.19l-28.76-17.62v11.84l28.76,16.6l28.76-16.6      v-33.2l-28.76-16.6L276.98,349.95z M169.35,426.78c1.88,3.31,2.37,8.25-0.62,11.07c-1.32,1.25-2.9,1.91-4.55,2.09      c-0.37,0.21-0.76,0.38-1.17,0.52c-3.06,0.99-6.36-1.15-7.24-4.09c-1.28-1.79-1.78-4.08-1.3-6.38c0.39-1.87,1.78-3.18,3.45-3.82      c0.21-0.29,0.45-0.55,0.69-0.8c-9.87,3.81-8.52,21.26,4.11,21.26C174.15,446.63,176.37,432.31,169.35,426.78z"/></g><g><path class="st5" d="M230.88,363.41l-2.04-18.88l28.76-16.6l14.7,16.69l-21.32-4.57l-12.77,8.57L230.88,363.41z M392.01,376.56      l-12-16.07l1.93-21.74l8.01-16.84l-19.88,14.03v28.05 M110.1,340.67l11.55-18.76l-18.93,13.36l-0.95,12.3 M367.8,217.77      c-4.51,0-4.5-7,0-7C372.31,210.77,372.31,217.77,367.8,217.77z M369.09,263.49c-4.5,0-4.51,7,0,7      C373.59,270.49,373.6,263.49,369.09,263.49z M350.44,308.49c-4.5,0-4.51,7,0,7C354.95,315.49,354.96,308.49,350.44,308.49z       M327.93,349.21c-0.14-0.43-0.38-0.81-0.72-1.13c-0.32-0.34-0.69-0.58-1.13-0.72c-0.42-0.22-0.87-0.32-1.35-0.3      c-0.31,0.04-0.62,0.08-0.93,0.12c-0.59,0.17-1.11,0.47-1.54,0.9c-0.18,0.24-0.36,0.47-0.55,0.71c-0.32,0.55-0.48,1.13-0.48,1.77      v0.64c-0.02,0.48,0.08,0.93,0.3,1.35c0.14,0.43,0.38,0.81,0.72,1.13c0.32,0.34,0.69,0.58,1.13,0.72      c0.42,0.22,0.87,0.32,1.35,0.3c0.31-0.04,0.62-0.08,0.93-0.13c0.59-0.17,1.11-0.47,1.54-0.9c0.18-0.24,0.36-0.47,0.55-0.71      c0.32-0.55,0.48-1.13,0.48-1.77v-0.64C328.25,350.07,328.15,349.63,327.93,349.21z M182.66,345.13c-4.5,0-4.51,7,0,7      C187.16,352.13,187.17,345.13,182.66,345.13z M157.59,308.49c-4.5,0-4.51,7,0,7C162.09,315.49,162.1,308.49,157.59,308.49z       M140.87,262.2c-4.5,0-4.51,7,0,7C145.38,269.2,145.38,262.2,140.87,262.2z M142.16,209.49c-4.5,0-4.51,7,0,7      C146.66,216.49,146.67,209.49,142.16,209.49z M160.16,165.13c-4.5,0-4.51,7,0,7C164.66,172.13,164.67,165.13,160.16,165.13z       M212.23,151.63c-4.5,0-4.51,7,0,7C216.73,158.63,216.74,151.63,212.23,151.63z M295.8,152.27c-4.5,0-4.51,7,0,7      C300.31,159.27,300.31,152.27,295.8,152.27z M348.52,167.7c-4.5,0-4.51,7,0,7C353.02,174.7,353.03,167.7,348.52,167.7z       M381.94,135.56c-4.5,0-4.51,7,0,7C386.45,142.56,386.46,135.56,381.94,135.56z M448.96,172.84c-0.17-0.59-0.47-1.11-0.9-1.54      c-0.24-0.18-0.47-0.36-0.71-0.55c-0.55-0.32-1.13-0.48-1.77-0.48h-0.64c-0.48-0.02-0.93,0.08-1.35,0.3      c-0.43,0.14-0.81,0.38-1.13,0.72c-0.34,0.32-0.58,0.69-0.72,1.13c-0.22,0.42-0.32,0.87-0.3,1.35c0.04,0.31,0.08,0.62,0.12,0.93      c0.17,0.59,0.47,1.11,0.9,1.54c0.24,0.18,0.47,0.36,0.71,0.55c0.55,0.32,1.13,0.48,1.77,0.48h0.64c0.48,0.02,0.93-0.08,1.35-0.3      c0.43-0.14,0.81-0.38,1.13-0.72c0.34-0.32,0.58-0.69,0.72-1.13c0.22-0.42,0.32-0.87,0.3-1.35      C449.04,173.46,449,173.15,448.96,172.84z M463.59,225.56c-4.5,0-4.51,7,0,7C468.09,232.56,468.1,225.56,463.59,225.56z       M455.87,282.77c-4.5,0-4.51,7,0,7C460.38,289.77,460.38,282.77,455.87,282.77z M434.02,327.13c-4.5,0-4.51,7,0,7      C438.52,334.13,438.53,327.13,434.02,327.13z M129.93,137.07c-0.14-0.43-0.38-0.81-0.72-1.13c-0.24-0.18-0.47-0.36-0.71-0.55      c-0.55-0.32-1.13-0.48-1.77-0.48c-0.31,0.04-0.62,0.08-0.93,0.12c-0.59,0.17-1.11,0.47-1.54,0.9l-0.64,0.64      c-0.34,0.32-0.58,0.69-0.72,1.13c-0.22,0.42-0.32,0.87-0.3,1.35c-0.02,0.48,0.08,0.93,0.3,1.35c0.14,0.43,0.38,0.81,0.72,1.13      c0.24,0.18,0.47,0.36,0.71,0.55c0.55,0.32,1.13,0.48,1.77,0.48c0.31-0.04,0.62-0.08,0.93-0.12c0.59-0.17,1.11-0.47,1.54-0.9      c0.21-0.21,0.43-0.43,0.64-0.64c0.34-0.32,0.58-0.69,0.72-1.13c0.22-0.42,0.32-0.87,0.3-1.35      C130.25,137.93,130.15,137.48,129.93,137.07z M65.66,169.63c-4.5,0-4.51,7,0,7C70.16,176.63,70.17,169.63,65.66,169.63z       M50.13,227.54c-0.46-0.83-1.32-1.44-2.23-1.68c-0.47-0.15-0.93-0.17-1.4-0.06c-0.47,0.02-0.9,0.16-1.3,0.42      c-0.34,0.18-0.6,0.43-0.83,0.72c-0.35,0.27-0.66,0.58-0.89,0.98c-0.12,0.28-0.24,0.56-0.35,0.84c-0.17,0.62-0.17,1.24,0,1.86      c0.13,0.63,0.54,1.24,0.98,1.69c0.24,0.18,0.47,0.36,0.71,0.55c0.01,0,0.01,0.01,0.02,0.01c0.26,0.17,0.56,0.28,0.86,0.36      c0.32,0.09,0.66,0.13,0.99,0.13c0.33,0,0.68-0.05,1-0.14c0.02,0,0.03-0.01,0.05-0.02c0.28-0.12,0.56-0.24,0.84-0.35      c0.01,0,0.02-0.01,0.02-0.01c0.32-0.17,0.6-0.41,0.86-0.66c0.03-0.02,0.05-0.05,0.07-0.08c0.18-0.24,0.36-0.47,0.55-0.71      c0.01-0.01,0.01-0.01,0.02-0.02c0.01-0.01,0.02-0.03,0.03-0.05c0.33-0.58,0.53-1.23,0.52-1.9      C50.63,228.71,50.47,228.16,50.13,227.54z M54.09,281.49c-4.5,0-4.51,7,0,7C58.59,288.49,58.6,281.49,54.09,281.49z       M76.59,329.06c-4.5,0-4.51,7,0,7C81.09,336.06,81.1,329.06,76.59,329.06z"/></g></g><g><path class="st6" d="M296.44,156.49c-2.58,0-2.57-4,0-4C299.02,152.49,299.02,156.49,296.44,156.49z M349.8,165.34     c-2.57,0-2.58,4,0,4C352.37,169.34,352.38,165.34,349.8,165.34z M253.37,87.56c-2.57,0-2.58,4,0,4     C255.95,91.56,255.95,87.56,253.37,87.56z M212.23,153.77c-2.57,0-2.58,4,0,4C214.8,157.77,214.81,153.77,212.23,153.77z      M158.87,167.27c-2.57,0-2.58,4,0,4C161.45,171.27,161.45,167.27,158.87,167.27z M127.27,138.29c-0.08-0.25-0.22-0.46-0.41-0.64     c-0.18-0.2-0.4-0.33-0.64-0.41c-0.24-0.13-0.5-0.18-0.77-0.17c-0.18,0.02-0.35,0.05-0.53,0.07c-0.34,0.09-0.63,0.27-0.88,0.51     c-0.1,0.13-0.21,0.27-0.31,0.4c-0.18,0.31-0.27,0.65-0.27,1.01v0.64c-0.01,0.28,0.05,0.53,0.17,0.77     c0.08,0.25,0.22,0.46,0.41,0.64c0.18,0.19,0.4,0.33,0.64,0.41c0.24,0.13,0.5,0.18,0.77,0.17c0.18-0.02,0.35-0.05,0.53-0.07     c0.34-0.1,0.63-0.27,0.88-0.51c0.1-0.14,0.21-0.27,0.31-0.4c0.18-0.31,0.27-0.65,0.27-1.01v-0.64     C127.45,138.78,127.4,138.52,127.27,138.29z M140.87,210.99c-2.57,0-2.58,4,0,4C143.45,214.99,143.45,210.99,140.87,210.99z      M62.44,171.13c-2.57,0-2.58,4,0,4C65.02,175.13,65.02,171.13,62.44,171.13z M47.02,225.77c-2.57,0-2.58,4,0,4     C49.59,229.77,49.59,225.77,47.02,225.77z M55.37,284.27c-2.57,0-2.58,4,0,4C57.95,288.27,57.95,284.27,55.37,284.27z      M139.59,263.7c-2.57,0-2.58,4,0,4C142.16,267.7,142.16,263.7,139.59,263.7z M159.52,310.63c-2.57,0-2.58,4,0,4     C162.09,314.63,162.09,310.63,159.52,310.63z M75.3,327.99c-2.57,0-2.58,4,0,4C77.87,331.99,77.88,327.99,75.3,327.99z      M182.66,347.91c-2.57,0-2.58,4,0,4C185.23,351.91,185.24,347.91,182.66,347.91z M323.44,349.84c-2.57,0-2.58,4,0,4     C326.02,353.84,326.02,349.84,323.44,349.84z M347.87,312.56c-2.57,0-2.58,4,0,4C350.45,316.56,350.45,312.56,347.87,312.56z      M370.91,267.5c-0.08-0.25-0.22-0.46-0.41-0.64c-0.14-0.1-0.27-0.21-0.4-0.31c-0.31-0.18-0.65-0.27-1.01-0.27     c-0.18,0.02-0.35,0.05-0.53,0.07c-0.34,0.1-0.63,0.27-0.88,0.51l-0.64,0.64c-0.2,0.18-0.33,0.4-0.41,0.64     c-0.13,0.24-0.18,0.5-0.17,0.77c-0.01,0.28,0.05,0.53,0.17,0.77c0.08,0.25,0.22,0.46,0.41,0.64c0.14,0.1,0.27,0.21,0.4,0.31     c0.31,0.18,0.65,0.27,1.01,0.27c0.18-0.02,0.35-0.05,0.53-0.07c0.34-0.1,0.63-0.27,0.88-0.51l0.64-0.64     c0.2-0.18,0.33-0.4,0.41-0.64c0.13-0.24,0.18-0.5,0.17-0.77C371.1,268,371.04,267.74,370.91,267.5z M367.8,214.38     c-0.09-0.34-0.27-0.63-0.51-0.88c-0.21-0.21-0.43-0.43-0.64-0.64c-0.18-0.2-0.4-0.33-0.64-0.41c-0.24-0.13-0.5-0.18-0.77-0.17     c-0.28-0.01-0.53,0.05-0.77,0.17c-0.25,0.08-0.46,0.22-0.64,0.41c-0.1,0.13-0.21,0.27-0.31,0.4c-0.18,0.31-0.27,0.65-0.27,1.01     c0.02,0.18,0.05,0.35,0.07,0.53c0.1,0.34,0.27,0.63,0.51,0.88c0.21,0.21,0.43,0.43,0.64,0.64c0.18,0.2,0.4,0.33,0.64,0.41     c0.24,0.13,0.5,0.18,0.77,0.17c0.28,0.01,0.53-0.05,0.77-0.17c0.25-0.08,0.46-0.22,0.64-0.41c0.1-0.13,0.21-0.27,0.31-0.4     c0.18-0.31,0.27-0.65,0.27-1.01C367.85,214.74,367.82,214.56,367.8,214.38z M381.94,139.81c-0.1-0.34-0.27-0.63-0.51-0.88     c-0.14-0.1-0.27-0.21-0.4-0.31c-0.31-0.18-0.65-0.27-1.01-0.27h-0.64c-0.28-0.01-0.53,0.05-0.77,0.17     c-0.25,0.08-0.46,0.22-0.64,0.41c-0.19,0.18-0.33,0.4-0.41,0.64c-0.12,0.24-0.18,0.5-0.17,0.77c0.02,0.18,0.05,0.35,0.07,0.53     c0.09,0.34,0.27,0.63,0.51,0.88c0.14,0.1,0.27,0.21,0.4,0.31c0.31,0.18,0.65,0.27,1.01,0.27h0.64c0.28,0.01,0.53-0.05,0.77-0.17     c0.25-0.08,0.46-0.22,0.64-0.41c0.2-0.18,0.33-0.4,0.41-0.64c0.13-0.24,0.18-0.5,0.17-0.77     C381.99,140.16,381.97,139.99,381.94,139.81z M442.37,171.13c-2.57,0-2.58,4,0,4C444.95,175.13,444.95,171.13,442.37,171.13z      M463.59,225.13c-2.57,0-2.58,4,0,4C466.16,229.13,466.16,225.13,463.59,225.13z M457.8,281.7c-2.57,0-2.58,4,0,4     C460.37,285.7,460.38,281.7,457.8,281.7z M432.73,327.99c-2.57,0-2.58,4,0,4C435.3,331.99,435.31,327.99,432.73,327.99z      M358.8,428.91c-2.57,0-2.58,4,0,4C361.37,432.91,361.38,428.91,358.8,428.91z M308.02,433.41c-2.57,0-2.58,4,0,4     C310.59,437.41,310.59,433.41,308.02,433.41z M256.59,437.91c-2.57,0-2.58,4,0,4C259.16,441.91,259.16,437.91,256.59,437.91z      M204.52,431.49c-2.57,0-2.58,4,0,4C207.09,435.49,207.09,431.49,204.52,431.49z M158.87,427.63c-2.57,0-2.58,4,0,4     C161.45,431.63,161.45,427.63,158.87,427.63z M117.73,331.77c-5.15,0-5.16,8,0,8C122.88,339.77,122.89,331.77,117.73,331.77z      M250.8,337.56c-5.15,0-5.16,8,0,8C255.95,345.56,255.96,337.56,250.8,337.56z M382.59,329.2c-5.15,0-5.16,8,0,8     C387.73,337.2,387.74,329.2,382.59,329.2z M376.16,340.2c-2.57,0-2.58,4,0,4C378.73,344.2,378.74,340.2,376.16,340.2z      M238.59,347.91c-2.57,0-2.58,4,0,4C241.16,351.91,241.16,347.91,238.59,347.91z M107.44,339.56c-2.57,0-2.58,4,0,4     C110.02,343.56,110.02,339.56,107.44,339.56z M133.16,360.13c-2.57,0-2.58,4,0,4C135.73,364.13,135.74,360.13,133.16,360.13z      M280.37,371.06c-2.57,0-2.58,4,0,4C282.95,375.06,282.95,371.06,280.37,371.06z M405.09,356.27c-2.57,0-2.58,4,0,4     C407.66,360.27,407.66,356.27,405.09,356.27z"/></g></g></g></svg>